<?xml version="1.0" encoding="UTF-8" standalone="no"?>
<!DOCTYPE svg PUBLIC "-//W3C//DTD SVG 1.1//EN" "http://www.w3.org/Graphics/SVG/1.1/DTD/svg11.dtd">
<svg width="100%" height="100%" viewBox="0 0 2000 2000" version="1.1" xmlns="http://www.w3.org/2000/svg" xmlns:xlink="http://www.w3.org/1999/xlink" xml:space="preserve" xmlns:serif="http://www.serif.com/" style="fill-rule:evenodd;clip-rule:evenodd;stroke-linejoin:round;stroke-miterlimit:2;">
    <g transform="matrix(19.873288,0,0,19.873288,-4157.267075,-4169.141588)">
        <path d="M269.276,238.621C269.276,239.617 260.7,240.424 250.121,240.424C239.542,240.424 230.965,239.617 230.965,238.621C230.965,237.625 239.542,236.818 250.121,236.818C260.7,236.818 269.276,237.625 269.276,238.621Z" style="fill:rgb(174,191,226);fill-rule:nonzero;"/>
        <path d="M268.112,239.538C268.112,239.538 254.601,240.698 250.085,240.701C245.482,240.704 231.712,239.538 231.712,239.538L238.324,293.324L238.324,293.328C238.324,294.752 243.512,295.906 249.912,295.906C256.312,295.906 261.5,294.752 261.5,293.328L261.499,293.324L268.112,239.538Z" style="fill:rgb(169,0,0);fill-rule:nonzero;"/>
        <path d="M258.648,237.006C261.465,237.489 263.15,238.103 263.15,238.772C263.15,239.263 262.239,239.725 260.638,240.128C265.841,239.805 269.276,239.251 269.276,238.621C269.276,237.913 264.948,237.301 258.648,237.006Z" style="fill:rgb(152,174,218);fill-rule:nonzero;"/>
        <path d="M250.085,240.701C245.482,240.704 231.712,239.538 231.712,239.538L238.324,293.322L238.324,293.328C238.324,294.752 243.512,295.906 249.912,295.906C252.982,295.906 255.771,295.64 257.844,295.206C257.681,295.213 243.252,294.202 242.727,290.739C242.199,287.251 238.465,241.419 238.465,241.419C238.465,241.419 253.018,242.439 258.648,241.968C263.675,241.548 268.336,240.706 268.003,240.482L268.112,239.538C268.112,239.538 254.601,240.698 250.085,240.701Z" style="fill:rgb(109,0,0);fill-rule:nonzero;"/>
        <path d="M268.965,239.618C256.45,241.536 243.718,241.536 231.205,239.618C230.864,239.566 230.628,239.248 230.682,238.912L230.693,238.841C230.746,238.506 231.066,238.276 231.402,238.327C243.785,240.225 256.384,240.225 268.767,238.327C269.104,238.276 269.424,238.506 269.477,238.841L269.488,238.912C269.542,239.248 269.306,239.566 268.965,239.618Z" style="fill:rgb(219,229,238);fill-rule:nonzero;"/>
        <path d="M268.905,237.104L268.19,235.079L231.732,235.079L231.017,237.104L229.508,239.302C229.508,240.881 238.665,242.16 249.961,242.16C261.256,242.16 270.414,240.881 270.414,239.302L268.905,237.104Z" style="fill:rgb(186,199,206);fill-rule:nonzero;"/>
        <path d="M251.212,241.457C239.916,241.457 235.348,240.416 235.7,239.849C235.899,239.53 239.043,239.517 238.985,239.243C238.922,238.951 233.175,238.503 232.181,237.014C231.928,236.634 232.39,235.2 232.39,235.2C231.969,235.125 231.732,235.079 231.732,235.079L231.017,237.104L229.508,239.302C229.508,240.881 238.665,242.16 249.961,242.16C260.449,242.16 269.088,241.057 270.271,239.635C267.299,240.701 259.889,241.457 251.212,241.457Z" style="fill:rgb(159,177,187);fill-rule:nonzero;"/>
        <path d="M268.854,236.96L268.19,235.079L238.241,235.079C237.89,236.135 237.714,237.06 237.714,237.464C237.714,238.46 240.568,238.852 250.636,238.852C260.437,238.852 268.439,237.919 268.854,236.96Z" style="fill:rgb(216,225,224);fill-rule:nonzero;"/>
        <path d="M268.19,235.079C268.19,236.075 260.028,236.882 249.961,236.882C239.893,236.882 231.732,236.075 231.732,235.079C231.732,234.083 239.893,233.276 249.961,233.276C260.028,233.276 268.19,234.083 268.19,235.079Z" style="fill:rgb(219,229,238);fill-rule:nonzero;"/>
        <path d="M266.724,234.883C266.724,235.553 259.355,236.096 250.264,236.096C241.174,236.096 233.804,235.553 233.804,234.883C233.804,234.214 241.174,233.671 250.264,233.671C259.355,233.671 266.724,234.214 266.724,234.883Z" style="fill:rgb(159,177,187);fill-rule:nonzero;"/>
        <path d="M251.927,234.842C251.927,235.136 251.077,235.373 250.028,235.373C248.98,235.373 248.13,235.136 248.13,234.842C248.13,234.549 248.98,234.312 250.028,234.312C251.077,234.312 251.927,234.549 251.927,234.842Z" style="fill:rgb(56,98,102);fill-rule:nonzero;"/>
        <path d="M251.241,234.704L248.546,234.725L248.832,217.876L251.51,217.876L251.241,234.704Z" style="fill:rgb(169,0,0);fill-rule:nonzero;"/>
        <path d="M251.241,234.725C251.241,235.018 250.634,235.151 249.889,235.151C249.145,235.151 248.546,235.018 248.546,234.725C248.546,234.432 249.15,234.194 249.894,234.194C250.638,234.194 251.241,234.432 251.241,234.725Z" style="fill:rgb(169,0,0);fill-rule:nonzero;"/>
        <path d="M249.888,295.906L249.881,295.906L249.888,295.906ZM249.863,295.906L249.856,295.906L249.863,295.906ZM249.832,295.906L249.83,295.906L249.832,295.906ZM249.805,295.906L249.804,295.906L249.805,295.906Z" style="fill:rgb(211,211,206);fill-rule:nonzero;"/>
        <path d="M249.912,295.906L249.75,295.906C249.181,295.904 248.622,295.893 248.076,295.874C248.674,295.895 249.287,295.906 249.912,295.906C252.982,295.906 255.771,295.64 257.844,295.206L257.842,295.206C257.59,295.206 243.25,294.191 242.727,290.739C242.572,289.713 242.139,285.026 241.606,278.919C245.059,271.036 253.147,265.707 264.305,265.707C264.503,265.707 264.697,265.715 264.893,265.719L261.499,293.324L261.5,293.328C261.5,294.752 256.312,295.906 249.912,295.906ZM248.074,295.874C248.07,295.874 248.066,295.873 248.062,295.873C248.066,295.873 248.07,295.874 248.074,295.874Z" style="fill:rgb(140,0,0);fill-rule:nonzero;"/>
        <path d="M249.912,295.906C249.287,295.906 248.674,295.895 248.076,295.874L248.074,295.874C248.07,295.874 248.066,295.873 248.062,295.873C244.266,295.737 241.094,295.19 239.479,294.444C239.152,291.23 239.542,287.13 240.103,283.927C240.411,282.17 240.916,280.494 241.606,278.919C242.139,285.026 242.572,289.713 242.727,290.739C243.25,294.191 257.59,295.206 257.842,295.206L257.844,295.206C255.771,295.64 252.982,295.906 249.912,295.906Z" style="fill:rgb(90,0,0);fill-rule:nonzero;"/>
        <path d="M288.46,294.401C288.46,297.474 283.521,302.334 266.954,302.334C250.387,302.334 246,297.474 246,294.401C246.237,286.387 253.55,292.328 267.691,292.328C281.337,292.328 288.064,285.763 288.46,294.401Z" style="fill:rgb(214,131,44);fill-rule:nonzero;"/>
        <path d="M267.563,300.969C250.996,300.969 246.609,296.109 246.609,293.036C246.629,292.366 246.703,291.802 246.821,291.315C246.319,291.97 246.043,292.956 246,294.401C246,297.474 250.387,302.334 266.954,302.334C282.292,302.334 287.66,298.17 288.372,295.113C286.525,297.911 280.704,300.969 267.563,300.969Z" style="fill:rgb(206,104,29);fill-rule:nonzero;"/>
        <path d="M288.067,293.457C287.811,292.683 286.973,295.127 278.908,297.076C272.272,298.678 265.167,298.232 265.03,299.328C264.894,300.424 275.353,300.546 280.343,299.267C285.333,297.989 288.42,294.526 288.067,293.457Z" style="fill:rgb(224,159,71);fill-rule:nonzero;"/>
        <path d="M246.932,291.995C246.932,293.367 249.528,296.386 258.402,297.562C259.293,297.68 260.25,298.175 261.272,298.253C262.862,298.373 264.612,298.045 266.54,298.045C274.337,298.045 279.568,296.788 282.835,295.347C283.946,294.857 285.473,294.684 286.153,294.194C287.45,293.259 287.364,292.062 287.344,291.572C287.283,290.073 281.219,287.774 267.432,287.774C253.645,287.774 246.932,289.25 246.932,291.995Z" style="fill:rgb(169,0,0);fill-rule:nonzero;"/>
        <path d="M246.738,290.743C246.738,292.767 250.96,297.159 266.468,297.159C281.976,297.159 287.626,292.765 287.626,291.004C287.626,290.366 287.792,288.67 287.467,288.27C285.713,286.112 278.866,287.288 267.234,287.288C254.797,287.288 247.838,284.396 246.65,288.168C246.521,288.577 246.738,290.169 246.738,290.743Z" style="fill:rgb(84,21,9);fill-rule:nonzero;"/>
        <path d="M246.694,288.355C246.694,290.379 250.916,294.772 266.425,294.772C281.933,294.772 287.644,290.376 287.582,288.616C287.521,286.856 281.104,282.618 267.316,282.618C253.529,282.618 246.694,285.134 246.694,288.355Z" style="fill:rgb(114,51,14);fill-rule:nonzero;"/>
        <path d="M247.332,287.659C246.857,288.365 251.034,290.421 251.68,290.666C252.327,290.91 250.849,298.385 252.592,298.628C254.025,298.828 253.482,292.915 254.359,292.964C255.237,293.013 254.359,295.458 255.514,295.702C256.668,295.947 261.01,294.089 263.273,294.089C265.536,294.089 271.678,293.844 272.925,295.262C274.172,296.68 274.415,300.513 276.811,300.188C279.661,299.802 279.714,294.137 280.499,293.355C281.284,292.573 286.18,291.253 286.596,289.786C287.011,288.319 279.991,284.31 268.538,284.505C257.084,284.701 248.434,286.022 247.332,287.659Z" style="fill:rgb(224,141,0);fill-rule:nonzero;"/>
        <path d="M280.001,292.639C280.001,292.639 278.953,298.902 278.087,298.943C277.221,298.983 278.042,295.777 277.164,294.123C276.495,292.861 273.931,293.189 273.207,293.123C272.482,293.058 276.31,290.744 276.31,290.744C276.31,290.744 279.819,291.937 280.001,292.639Z" style="fill:rgb(224,159,0);fill-rule:nonzero;"/>
        <path d="M261.483,289.819C261.685,290.177 262.108,290.52 262.782,290.853C263.342,291.114 264.168,290.93 264.344,290.467L264.365,290.415C264.462,290.409 264.543,290.387 264.641,290.376C264.917,290.951 265.338,291.431 265.866,291.781C266.043,291.955 266.233,292.084 266.422,292.165C266.871,292.684 267.753,293.115 268.971,293.401C269.578,293.548 270.415,293.801 271.043,293.659C271.694,293.632 272.373,293.404 272.968,293.084C273.476,293.173 273.983,293.226 274.336,293.253C275.141,293.313 275.909,292.944 276.341,292.458L276.355,292.458C276.92,292.964 277.698,293.338 278.733,293.476C280.365,293.688 281.289,293.185 281.755,292.415C282.1,292.325 282.4,292.119 282.475,291.775C282.605,291.151 284.673,291.286 285.354,291.083C286.344,290.788 286.652,289.745 286.636,289.078C286.629,288.779 286.526,288.508 286.354,288.287C286.473,288.038 286.593,287.819 286.745,287.793C288.08,287.446 288.94,286.657 289.314,285.716C289.483,285.277 289.134,284.907 288.633,284.779C288.517,284.283 287.644,283.984 286.993,284.257C286.8,284.313 286.608,284.383 286.452,284.534C284.13,286.754 280.71,287.993 277.003,288.587L276.941,288.594C276.494,288.389 275.809,288.486 275.52,288.792C275.035,288.847 274.552,288.895 274.068,288.927C270.01,289.243 267.066,286.908 263.164,287.137C262.624,287.152 262.335,287.513 262.344,287.865C261.944,287.991 261.54,288.18 261.165,288.469C260.846,288.713 260.716,289.048 260.959,289.368L261.074,289.531C261.165,289.649 261.315,289.753 261.483,289.819Z" style="fill:rgb(104,164,0);fill-rule:nonzero;"/>
        <path d="M260.772,288.749C260.98,289.101 261.397,289.434 262.077,289.775C262.623,290.043 263.457,289.845 263.633,289.388L263.66,289.327C263.757,289.316 263.853,289.31 263.944,289.298C264.206,289.88 264.625,290.343 265.169,290.705C265.345,290.878 265.528,290.999 265.71,291.088C266.146,291.598 267.043,292.037 268.267,292.325C268.868,292.479 269.704,292.717 270.331,292.579C270.981,292.546 271.663,292.328 272.263,291.997C272.773,292.097 273.286,292.141 273.632,292.173C274.437,292.236 275.205,291.874 275.636,291.378L275.65,291.378C276.215,291.878 277.001,292.26 278.028,292.396C279.662,292.609 280.591,292.099 281.037,291.329C281.395,291.256 281.689,291.041 281.757,290.69C281.908,290.082 283.962,290.2 284.643,290.004C285.633,289.71 285.941,288.668 285.925,288C285.918,287.692 285.814,287.43 285.656,287.211C285.77,286.96 285.889,286.749 286.032,286.715C287.369,286.367 288.229,285.579 288.609,284.632C288.778,284.198 288.423,283.83 287.922,283.699C287.814,283.207 286.947,282.906 286.288,283.18C286.089,283.234 285.903,283.306 285.755,283.454C283.425,285.675 280.005,286.915 276.278,287.516L276.23,287.515C275.781,287.304 275.099,287.415 274.801,287.706C274.325,287.77 273.848,287.817 273.363,287.849C269.298,288.159 266.376,285.83 262.445,286.059C261.906,286.074 261.638,286.435 261.646,286.78C261.233,286.913 260.836,287.102 260.454,287.391C260.135,287.62 260.019,287.969 260.255,288.283L260.371,288.456C260.454,288.572 260.596,288.675 260.772,288.749Z" style="fill:rgb(53,111,0);fill-rule:nonzero;"/>
        <path d="M265.927,291.76C265.647,291.912 265.401,292.029 265.168,292.108C264.457,292.58 263.333,292.972 261.954,293.217C261.278,293.332 260.319,293.551 259.758,293.412C259.114,293.363 258.553,293.131 258.148,292.812C257.579,292.891 257.047,292.927 256.691,292.949C255.848,292.985 255.28,292.623 255.102,292.152L255.087,292.16C254.265,292.608 253.28,292.949 252.17,293.051C250.431,293.217 249.773,292.725 249.725,291.984C249.417,291.899 249.238,291.695 249.349,291.362C249.54,290.773 247.404,290.853 246.843,290.642C246.005,290.345 246.254,289.361 246.617,288.737C246.787,288.439 247.033,288.201 247.321,287.99C247.328,287.751 247.328,287.556 247.199,287.519C246.041,287.171 245.61,286.403 245.733,285.504C245.788,285.09 246.336,284.749 246.91,284.64C247.281,284.184 248.313,283.916 248.815,284.198C248.993,284.235 249.129,284.315 249.21,284.46C250.334,286.606 253.115,287.845 256.497,288.491L256.553,288.499C257.114,288.317 257.743,288.433 257.872,288.722C258.333,288.78 258.786,288.84 259.252,288.882C262.408,289.201 265.99,289.824 269.167,289.462C269.893,289.382 266.647,291.434 265.927,291.76Z" style="fill:rgb(104,164,0);fill-rule:nonzero;"/>
        <path d="M268.907,288.876C268.209,289.361 267.927,290.441 267.203,290.767C266.935,290.911 266.674,291.027 266.441,291.108C265.743,291.586 264.619,291.97 263.236,292.216C262.559,292.346 261.6,292.55 261.045,292.405C260.409,292.361 259.84,292.136 259.43,291.811C258.868,291.899 258.333,291.926 257.963,291.948C257.129,291.984 256.553,291.622 256.389,291.143L256.375,291.158C255.539,291.609 254.561,291.948 253.465,292.058C251.704,292.216 251.054,291.724 251.02,290.983C250.704,290.897 250.526,290.694 250.623,290.369C250.821,289.78 248.692,289.853 248.116,289.644C247.281,289.361 247.527,288.359 247.898,287.736C248.06,287.445 248.309,287.2 248.594,286.998C248.609,286.757 248.609,286.555 248.472,286.519C247.321,286.163 246.876,285.395 247.013,284.502C247.061,284.098 247.623,283.756 248.191,283.648C248.568,283.183 249.596,282.914 250.095,283.183C250.266,283.242 250.416,283.328 250.485,283.468C251.623,285.604 254.395,286.845 257.785,287.49L257.841,287.504C258.394,287.315 259.031,287.432 259.169,287.722C259.607,287.78 260.066,287.845 260.525,287.881C262.716,288.099 264.976,286.968 267.263,287.025C271.346,287.128 268.996,288.889 268.907,288.876Z" style="fill:rgb(53,111,0);fill-rule:nonzero;"/>
        <path d="M246.738,284.204C246.738,286.228 251.075,290.56 266.583,290.56C282.092,290.56 287.626,286.226 287.626,284.465C287.626,283.827 287.792,282.131 287.467,281.731C285.713,279.573 278.866,280.749 267.234,280.749C254.797,280.749 247.838,277.858 246.65,281.629C246.521,282.038 246.738,283.63 246.738,284.204Z" style="fill:rgb(84,21,9);fill-rule:nonzero;"/>
        <path d="M246.694,281.817C246.694,283.84 251.032,288.173 266.54,288.173C282.048,288.173 287.644,283.838 287.582,282.077C287.521,280.317 281.104,276.08 267.316,276.08C253.529,276.08 246.694,278.595 246.694,281.817Z" style="fill:rgb(114,51,14);fill-rule:nonzero;"/>
        <path d="M289.507,280.301C289.507,283.201 284.409,286.719 266.954,286.719C249.499,286.719 244.77,283.201 244.77,280.301C244.77,277.401 252.326,268.2 267.225,268.2C281.603,268.2 289.507,277.401 289.507,280.301Z" style="fill:rgb(224,159,71);fill-rule:nonzero;"/>
        <path d="M249.994,276.803C251.019,278.446 262.783,281.774 268.176,282.221C274.054,282.708 285.674,282.16 286.613,277.899C287.396,274.346 276.378,267.914 265.237,268.584C255.197,269.187 248.969,275.159 249.994,276.803Z" style="fill:rgb(238,179,91);fill-rule:nonzero;"/>
        <path d="M268.084,285.177C250.628,285.177 245.9,281.659 245.9,278.759C245.9,278.205 246.18,277.42 246.729,276.515C245.437,278.056 244.77,279.452 244.77,280.301C244.77,283.201 249.499,286.719 266.954,286.719C282.654,286.719 288.354,283.873 289.342,281.19C286.923,283.319 280.768,285.177 268.084,285.177Z" style="fill:rgb(211,131,44);fill-rule:nonzero;"/>
        <path d="M255.485,295.087C255.689,295.45 257.398,294.843 258.402,294.681C259.403,294.519 260.907,294.194 260.771,294.113C260.634,294.032 258.174,294.113 257.445,294.153C256.716,294.194 255.257,294.681 255.485,295.087Z" style="fill:rgb(224,159,0);fill-rule:nonzero;"/>
        <path d="M267.652,293.602C267.652,293.682 266.948,293.748 266.08,293.748C265.212,293.748 264.508,293.682 264.508,293.602C264.508,293.522 265.212,293.457 266.08,293.457C266.948,293.457 267.652,293.522 267.652,293.602Z" style="fill:rgb(224,159,0);fill-rule:nonzero;"/>
        <path d="M275.016,296.915C275.357,297.912 275.48,298.762 275.29,298.813C275.1,298.865 274.669,298.099 274.328,297.102C273.986,296.105 273.864,295.255 274.054,295.203C274.244,295.152 274.674,295.918 275.016,296.915Z" style="fill:rgb(224,159,0);fill-rule:nonzero;"/>
        <path d="M253.384,295.98C253.266,297.017 253.07,297.848 252.947,297.837C252.823,297.826 252.819,296.976 252.937,295.939C253.056,294.902 253.252,294.071 253.375,294.082C253.498,294.093 253.503,294.943 253.384,295.98Z" style="fill:rgb(224,159,0);fill-rule:nonzero;"/>
        <path d="M269.817,288.216C269.817,288.531 269.281,288.787 268.62,288.787C267.96,288.787 267.424,288.531 267.424,288.216C267.424,287.9 267.96,287.644 268.62,287.644C269.281,287.644 269.817,287.9 269.817,288.216Z" style="fill:rgb(114,51,14);fill-rule:nonzero;"/>
        <path d="M263.54,288.857C263.54,289.092 263.078,289.283 262.509,289.283C261.939,289.283 261.476,289.092 261.476,288.857C261.476,288.622 261.939,288.431 262.509,288.431C263.078,288.431 263.54,288.622 263.54,288.857Z" style="fill:rgb(114,51,14);fill-rule:nonzero;"/>
        <path d="M265.603,294.945C265.603,295.18 265.141,295.371 264.572,295.371C264.002,295.371 263.54,295.18 263.54,294.945C263.54,294.709 264.002,294.519 264.572,294.519C265.141,294.519 265.603,294.709 265.603,294.945Z" style="fill:rgb(114,51,14);fill-rule:nonzero;"/>
        <path d="M273.115,288.493C273.115,288.817 272.654,289.08 272.084,289.08C271.514,289.08 271.053,288.817 271.053,288.493C271.053,288.169 271.514,287.906 272.084,287.906C272.654,287.906 273.115,288.169 273.115,288.493Z" style="fill:rgb(114,51,14);fill-rule:nonzero;"/>
        <path d="M269.66,295.903C269.66,296.094 269.388,296.249 269.052,296.249C268.716,296.249 268.443,296.094 268.443,295.903C268.443,295.711 268.716,295.556 269.052,295.556C269.388,295.556 269.66,295.711 269.66,295.903Z" style="fill:rgb(114,51,14);fill-rule:nonzero;"/>
        <path d="M277.879,287.319C277.879,287.643 277.256,287.906 276.487,287.906C275.718,287.906 275.095,287.643 275.095,287.319C275.095,286.995 275.718,286.732 276.487,286.732C277.256,286.732 277.879,286.995 277.879,287.319Z" style="fill:rgb(114,51,14);fill-rule:nonzero;"/>
        <path d="M279.465,278.985C279.774,279.292 279.701,279.639 279.469,279.781C279.236,279.924 278.839,279.858 278.624,279.501C278.536,279.354 278.506,279.006 278.55,278.823L278.576,278.629C278.619,278.602 278.658,278.669 278.771,278.688C278.976,278.722 279.356,278.876 279.465,278.985Z" style="fill:rgb(245,207,151);fill-rule:nonzero;"/>
        <path d="M278.951,279.439C279.085,279.612 279.306,279.683 279.444,279.598C279.583,279.512 279.587,279.303 279.453,279.131C279.32,278.958 279.099,278.888 278.96,278.973C278.822,279.058 278.818,279.267 278.951,279.439Z" style="fill:rgb(247,214,166);fill-rule:nonzero;"/>
        <path d="M280.455,275.141C280.144,275.447 279.749,275.419 279.565,275.228C279.382,275.038 279.413,274.678 279.79,274.451C279.945,274.357 280.33,274.294 280.539,274.314C280.639,274.324 280.728,274.285 280.759,274.316C280.793,274.352 280.722,274.394 280.713,274.495C280.697,274.68 280.564,275.033 280.455,275.141Z" style="fill:rgb(245,207,151);fill-rule:nonzero;"/>
        <path d="M279.893,274.734C279.714,274.871 279.659,275.074 279.768,275.187C279.878,275.301 280.112,275.283 280.29,275.146C280.469,275.01 280.525,274.807 280.415,274.693C280.305,274.579 280.072,274.598 279.893,274.734Z" style="fill:rgb(247,214,166);fill-rule:nonzero;"/>
        <path d="M285.812,278.084C285.588,278.445 285.196,278.497 284.969,278.349C284.741,278.201 284.68,277.845 284.988,277.547C285.116,277.424 285.475,277.284 285.683,277.262C285.783,277.251 285.86,277.195 285.898,277.219C285.94,277.247 285.882,277.302 285.899,277.403C285.93,277.586 285.891,277.957 285.812,278.084Z" style="fill:rgb(245,207,151);fill-rule:nonzero;"/>
        <path d="M285.161,277.802C285.022,277.971 285.02,278.18 285.156,278.268C285.291,278.357 285.514,278.292 285.653,278.123C285.792,277.953 285.795,277.745 285.659,277.656C285.523,277.567 285.3,277.633 285.161,277.802Z" style="fill:rgb(247,214,166);fill-rule:nonzero;"/>
        <path d="M275.226,271.289C275.618,271.07 275.99,271.193 276.108,271.421C276.227,271.649 276.087,271.987 275.655,272.114C275.477,272.167 275.087,272.134 274.892,272.064C274.799,272.031 274.701,272.046 274.682,272.009C274.66,271.966 274.74,271.943 274.78,271.847C274.852,271.674 275.088,271.366 275.226,271.289Z" style="fill:rgb(245,207,151);fill-rule:nonzero;"/>
        <path d="M275.642,271.817C275.856,271.729 275.972,271.547 275.901,271.411C275.83,271.275 275.6,271.236 275.386,271.324C275.173,271.412 275.057,271.593 275.127,271.73C275.198,271.866 275.429,271.905 275.642,271.817Z" style="fill:rgb(247,214,166);fill-rule:nonzero;"/>
        <path d="M279.916,271.82C280.225,272.127 280.151,272.474 279.919,272.617C279.687,272.759 279.289,272.694 279.075,272.336C278.987,272.189 278.956,271.841 279.001,271.659L279.027,271.464C279.07,271.438 279.109,271.504 279.222,271.523C279.426,271.557 279.807,271.712 279.916,271.82Z" style="fill:rgb(245,207,151);fill-rule:nonzero;"/>
        <path d="M279.402,272.275C279.536,272.447 279.757,272.518 279.895,272.433C280.034,272.348 280.038,272.139 279.904,271.966C279.77,271.794 279.55,271.723 279.411,271.808C279.273,271.893 279.269,272.102 279.402,272.275Z" style="fill:rgb(247,214,166);fill-rule:nonzero;"/>
        <path d="M272.851,269.51C273.278,269.351 273.622,269.526 273.698,269.768C273.773,270.01 273.574,270.323 273.125,270.387C272.94,270.413 272.56,270.325 272.381,270.228L272.183,270.143L272.309,269.998C272.412,269.836 272.701,269.567 272.851,269.51Z" style="fill:rgb(245,207,151);fill-rule:nonzero;"/>
        <path d="M273.166,270.091C273.393,270.035 273.54,269.873 273.495,269.728C273.45,269.584 273.229,269.512 273.003,269.568C272.776,269.624 272.629,269.787 272.674,269.931C272.719,270.076 272.939,270.147 273.166,270.091Z" style="fill:rgb(247,214,166);fill-rule:nonzero;"/>
        <path d="M269.553,273.081C269.939,272.853 270.314,272.969 270.438,273.194C270.563,273.42 270.431,273.761 270.003,273.897C269.827,273.953 269.435,273.929 269.239,273.863C269.145,273.831 269.048,273.849 269.027,273.812C269.004,273.77 269.084,273.745 269.121,273.648C269.189,273.473 269.417,273.161 269.553,273.081Z" style="fill:rgb(245,207,151);fill-rule:nonzero;"/>
        <path d="M269.982,273.6C270.194,273.507 270.305,273.323 270.23,273.189C270.156,273.054 269.925,273.02 269.714,273.112C269.502,273.205 269.391,273.389 269.466,273.523C269.54,273.658 269.771,273.692 269.982,273.6Z" style="fill:rgb(247,214,166);fill-rule:nonzero;"/>
        <path d="M270.283,271.496C270.593,271.803 270.519,272.15 270.287,272.293C270.055,272.435 269.657,272.37 269.443,272.012C269.355,271.865 269.324,271.517 269.369,271.335L269.394,271.14C269.437,271.114 269.477,271.18 269.589,271.199C269.794,271.233 270.174,271.388 270.283,271.496Z" style="fill:rgb(245,207,151);fill-rule:nonzero;"/>
        <path d="M269.77,271.951C269.904,272.123 270.124,272.194 270.263,272.109C270.401,272.024 270.405,271.815 270.272,271.642C270.138,271.47 269.917,271.399 269.779,271.484C269.64,271.569 269.636,271.778 269.77,271.951Z" style="fill:rgb(247,214,166);fill-rule:nonzero;"/>
        <path d="M267.415,269.892C267.719,269.581 268.115,269.604 268.303,269.791C268.49,269.979 268.466,270.338 268.094,270.572C267.941,270.668 267.557,270.738 267.348,270.721C267.248,270.713 267.159,270.753 267.128,270.722C267.093,270.687 267.163,270.644 267.17,270.542C267.183,270.357 267.308,270.002 267.415,269.892Z" style="fill:rgb(245,207,151);fill-rule:nonzero;"/>
        <path d="M267.985,270.29C268.161,270.151 268.213,269.947 268.101,269.835C267.989,269.723 267.756,269.745 267.58,269.885C267.404,270.024 267.352,270.228 267.464,270.34C267.576,270.452 267.809,270.43 267.985,270.29Z" style="fill:rgb(247,214,166);fill-rule:nonzero;"/>
        <path d="M261.993,281.399C261.729,281.06 261.851,280.724 262.101,280.608C262.352,280.493 262.737,280.603 262.899,280.981C262.966,281.137 262.947,281.486 262.877,281.662L262.824,281.852C262.778,281.873 262.748,281.803 262.639,281.771C262.441,281.715 262.084,281.519 261.993,281.399Z" style="fill:rgb(245,207,151);fill-rule:nonzero;"/>
        <path d="M262.566,281.006C262.458,280.819 262.249,280.724 262.1,280.793C261.95,280.862 261.917,281.069 262.025,281.255C262.133,281.441 262.342,281.536 262.491,281.467C262.641,281.399 262.674,281.192 262.566,281.006Z" style="fill:rgb(247,214,166);fill-rule:nonzero;"/>
        <path d="M266.132,272.952C265.829,273.264 265.434,273.243 265.245,273.055C265.057,272.868 265.081,272.509 265.452,272.274C265.604,272.178 265.988,272.107 266.197,272.124C266.297,272.132 266.386,272.091 266.417,272.122C266.452,272.157 266.383,272.2 266.376,272.302C266.364,272.487 266.239,272.842 266.132,272.952Z" style="fill:rgb(245,207,151);fill-rule:nonzero;"/>
        <path d="M265.562,272.556C265.386,272.695 265.335,272.899 265.447,273.011C265.56,273.123 265.793,273.1 265.968,272.96C266.143,272.821 266.195,272.617 266.082,272.505C265.97,272.393 265.737,272.416 265.562,272.556Z" style="fill:rgb(247,214,166);fill-rule:nonzero;"/>
        <path d="M257.104,279.238C256.801,279.55 256.405,279.528 256.217,279.341C256.028,279.154 256.052,278.794 256.423,278.56C256.575,278.464 256.959,278.393 257.169,278.409C257.269,278.417 257.358,278.377 257.389,278.407C257.424,278.442 257.354,278.485 257.347,278.587C257.336,278.772 257.211,279.128 257.104,279.238Z" style="fill:rgb(245,207,151);fill-rule:nonzero;"/>
        <path d="M256.532,278.841C256.358,278.981 256.307,279.185 256.419,279.297C256.531,279.408 256.764,279.386 256.94,279.246C257.114,279.106 257.165,278.902 257.053,278.791C256.941,278.679 256.709,278.701 256.532,278.841Z" style="fill:rgb(247,214,166);fill-rule:nonzero;"/>
        <path d="M270.146,277.547C269.693,277.462 269.522,277.144 269.614,276.906C269.706,276.669 270.07,276.512 270.48,276.687C270.649,276.759 270.905,277.024 270.991,277.194L271.099,277.364C271.082,277.408 271.006,277.375 270.903,277.42C270.715,277.5 270.306,277.576 270.146,277.547Z" style="fill:rgb(245,207,151);fill-rule:nonzero;"/>
        <path d="M270.258,276.909C270.035,276.841 269.811,276.9 269.755,277.042C269.7,277.184 269.836,277.354 270.059,277.423C270.281,277.491 270.506,277.432 270.561,277.29C270.616,277.148 270.48,276.978 270.258,276.909Z" style="fill:rgb(247,214,166);fill-rule:nonzero;"/>
        <path d="M273.927,281.378C273.624,281.689 273.228,281.668 273.04,281.481C272.852,281.294 272.876,280.934 273.247,280.7C273.399,280.603 273.783,280.533 273.992,280.549C274.092,280.557 274.181,280.516 274.212,280.547C274.247,280.582 274.178,280.625 274.171,280.727C274.159,280.912 274.034,281.268 273.927,281.378Z" style="fill:rgb(245,207,151);fill-rule:nonzero;"/>
        <path d="M273.357,280.981C273.181,281.121 273.13,281.325 273.242,281.436C273.355,281.548 273.588,281.525 273.763,281.386C273.938,281.246 273.99,281.042 273.877,280.93C273.765,280.818 273.532,280.841 273.357,280.981Z" style="fill:rgb(247,214,166);fill-rule:nonzero;"/>
        <path d="M275.655,275.994C276.111,275.923 276.403,276.162 276.416,276.413C276.429,276.664 276.156,276.93 275.702,276.903C275.515,276.891 275.167,276.73 275.017,276.6L274.845,276.477L275.005,276.361C275.146,276.225 275.494,276.019 275.655,275.994Z" style="fill:rgb(245,207,151);fill-rule:nonzero;"/>
        <path d="M275.816,276.623C276.051,276.613 276.236,276.484 276.228,276.334C276.22,276.184 276.023,276.071 275.788,276.08C275.553,276.09 275.369,276.219 275.377,276.369C275.384,276.519 275.581,276.632 275.816,276.623Z" style="fill:rgb(247,214,166);fill-rule:nonzero;"/>
        <path d="M265.574,277.22C265.271,277.531 264.875,277.51 264.687,277.323C264.499,277.136 264.522,276.776 264.893,276.542C265.046,276.445 265.43,276.375 265.639,276.391C265.739,276.399 265.828,276.358 265.859,276.389C265.894,276.424 265.824,276.467 265.818,276.569C265.805,276.754 265.681,277.11 265.574,277.22Z" style="fill:rgb(245,207,151);fill-rule:nonzero;"/>
        <path d="M265.003,276.823C264.828,276.963 264.777,277.167 264.889,277.278C265.001,277.39 265.234,277.367 265.41,277.228C265.585,277.088 265.636,276.884 265.524,276.772C265.412,276.66 265.178,276.683 265.003,276.823Z" style="fill:rgb(247,214,166);fill-rule:nonzero;"/>
        <path d="M261.112,274.978C261.561,275.077 261.72,275.401 261.618,275.635C261.517,275.869 261.146,276.014 260.743,275.827C260.578,275.749 260.332,275.477 260.254,275.304L260.152,275.13C260.17,275.086 260.245,275.122 260.35,275.081C260.54,275.006 260.953,274.943 261.112,274.978Z" style="fill:rgb(245,207,151);fill-rule:nonzero;"/>
        <path d="M260.975,275.611C261.194,275.687 261.42,275.635 261.482,275.495C261.543,275.355 261.414,275.181 261.195,275.105C260.975,275.029 260.747,275.081 260.687,275.221C260.626,275.361 260.755,275.536 260.975,275.611Z" style="fill:rgb(247,214,166);fill-rule:nonzero;"/>
        <path d="M274.318,274.379C274.015,274.69 273.619,274.669 273.431,274.482C273.243,274.295 273.266,273.935 273.637,273.701C273.79,273.604 274.174,273.534 274.383,273.55C274.483,273.558 274.572,273.517 274.603,273.548C274.638,273.583 274.568,273.626 274.562,273.728C274.55,273.913 274.425,274.269 274.318,274.379Z" style="fill:rgb(245,207,151);fill-rule:nonzero;"/>
        <path d="M273.747,273.982C273.572,274.122 273.521,274.326 273.633,274.437C273.745,274.549 273.978,274.526 274.154,274.387C274.329,274.247 274.38,274.043 274.268,273.931C274.156,273.82 273.923,273.842 273.747,273.982Z" style="fill:rgb(247,214,166);fill-rule:nonzero;"/>
        <path d="M272.124,271.868C271.756,271.617 271.757,271.264 271.956,271.086C272.154,270.907 272.559,270.907 272.843,271.223C272.96,271.353 273.062,271.69 273.056,271.877L273.071,272.072C273.034,272.105 272.982,272.046 272.867,272.046C272.659,272.046 272.253,271.957 272.124,271.868Z" style="fill:rgb(245,207,151);fill-rule:nonzero;"/>
        <path d="M272.534,271.337C272.367,271.189 272.136,271.156 272.017,271.262C271.899,271.369 271.938,271.575 272.105,271.722C272.272,271.87 272.503,271.904 272.622,271.797C272.741,271.691 272.701,271.485 272.534,271.337Z" style="fill:rgb(247,214,166);fill-rule:nonzero;"/>
        <path d="M261.109,271.263C261.2,271.667 260.939,271.933 260.657,271.95C260.376,271.968 260.071,271.731 260.091,271.326C260.1,271.16 260.272,270.846 260.415,270.709L260.548,270.553L260.682,270.693C260.838,270.815 261.078,271.12 261.109,271.263Z" style="fill:rgb(245,207,151);fill-rule:nonzero;"/>
        <path d="M260.407,271.421C260.424,271.63 260.574,271.791 260.742,271.781C260.91,271.771 261.032,271.593 261.015,271.384C261,271.174 260.851,271.013 260.683,271.024C260.515,271.034 260.392,271.212 260.407,271.421Z" style="fill:rgb(247,214,166);fill-rule:nonzero;"/>
        <path d="M256.305,271.441C255.947,271.179 255.962,270.826 256.167,270.654C256.372,270.482 256.777,270.494 257.049,270.818C257.161,270.952 257.25,271.292 257.236,271.479L257.243,271.674C257.204,271.706 257.155,271.646 257.04,271.642C256.833,271.636 256.431,271.534 256.305,271.441Z" style="fill:rgb(245,207,151);fill-rule:nonzero;"/>
        <path d="M256.736,270.923C256.575,270.77 256.345,270.73 256.221,270.832C256.099,270.935 256.13,271.142 256.292,271.295C256.453,271.448 256.683,271.488 256.805,271.386C256.928,271.283 256.897,271.076 256.736,270.923Z" style="fill:rgb(247,214,166);fill-rule:nonzero;"/>
        <path d="M264.543,269.976C264.24,270.288 263.844,270.266 263.656,270.079C263.468,269.892 263.491,269.532 263.862,269.298C264.015,269.202 264.399,269.131 264.607,269.147C264.708,269.155 264.796,269.115 264.827,269.146C264.862,269.18 264.793,269.224 264.786,269.325C264.774,269.511 264.65,269.866 264.543,269.976Z" style="fill:rgb(245,207,151);fill-rule:nonzero;"/>
        <path d="M263.972,269.579C263.796,269.719 263.745,269.923 263.857,270.035C263.97,270.147 264.203,270.124 264.378,269.984C264.554,269.844 264.605,269.64 264.493,269.529C264.38,269.417 264.147,269.44 263.972,269.579Z" style="fill:rgb(247,214,166);fill-rule:nonzero;"/>
        <path d="M253.363,275.436C252.957,275.238 252.897,274.889 253.063,274.686C253.229,274.483 253.628,274.427 253.963,274.701C254.101,274.813 254.26,275.133 254.286,275.318L254.334,275.509C254.304,275.547 254.242,275.495 254.128,275.511C253.923,275.54 253.506,275.506 253.363,275.436Z" style="fill:rgb(245,207,151);fill-rule:nonzero;"/>
        <path d="M253.678,274.856C253.488,274.732 253.253,274.731 253.154,274.852C253.055,274.973 253.129,275.172 253.319,275.295C253.51,275.418 253.744,275.42 253.843,275.298C253.942,275.177 253.868,274.979 253.678,274.856Z" style="fill:rgb(247,214,166);fill-rule:nonzero;"/>
        <path d="M250.569,277.846C250.908,278.127 250.87,278.478 250.653,278.639C250.437,278.8 250.034,278.766 249.784,278.427C249.682,278.288 249.616,277.944 249.642,277.758L249.648,277.563C249.688,277.533 249.734,277.596 249.848,277.606C250.055,277.623 250.45,277.747 250.569,277.846Z" style="fill:rgb(245,207,151);fill-rule:nonzero;"/>
        <path d="M250.104,278.34C250.254,278.501 250.481,278.554 250.611,278.458C250.74,278.362 250.723,278.153 250.572,277.992C250.422,277.831 250.195,277.778 250.066,277.874C249.936,277.97 249.953,278.179 250.104,278.34Z" style="fill:rgb(247,214,166);fill-rule:nonzero;"/>
    </g>
</svg>
