<?xml version="1.0" encoding="UTF-8" standalone="no"?>
<!DOCTYPE svg PUBLIC "-//W3C//DTD SVG 1.1//EN" "http://www.w3.org/Graphics/SVG/1.1/DTD/svg11.dtd">
<svg width="100%" height="100%" viewBox="0 0 2000 2000" version="1.1" xmlns="http://www.w3.org/2000/svg" xmlns:xlink="http://www.w3.org/1999/xlink" xml:space="preserve" xmlns:serif="http://www.serif.com/" style="fill-rule:evenodd;clip-rule:evenodd;stroke-linejoin:round;stroke-miterlimit:2;">
    <g transform="matrix(17.484956,0,0,17.484956,-1479.699023,-1719.067984)">
        <g>
            <path d="M95.409,188.625L95.409,188.17L95.35,188.183C96.554,187.439 103.688,165.005 108.188,150.109L108.427,149.317L108.644,150.115C108.721,150.4 116.529,178.636 128.524,178.636C140.519,178.636 158.209,108.693 158.386,107.987L158.599,107.14L158.843,107.978C158.982,108.454 172.988,155.491 195.201,155.491L195.201,155.946C185.845,155.946 176.509,147.66 168.204,131.983C162.889,121.95 159.543,111.806 158.637,108.915C156.517,117.212 140.31,179.091 128.524,179.091C117.167,179.091 109.779,155.714 108.407,151.009C107.657,153.477 105.22,161.457 102.685,169.352C96.494,188.625 95.788,188.625 95.409,188.625Z" style="fill:rgb(169,0,0);fill-rule:nonzero;"/>
            <rect x="157.458" y="107.905" width="2.315" height="91.809" style="fill:rgb(169,0,0);fill-rule:nonzero;"/>
            <rect x="155.985" y="134.767" width="5.261" height="64.865" style="fill:rgb(169,0,0);fill-rule:nonzero;"/>
            <rect x="160.749" y="134.767" width="0.497" height="64.867" style="fill:rgb(109,0,0);fill-rule:nonzero;"/>
            <rect x="155.99" y="134.767" width="1.333" height="39.588" style="fill:rgb(214,0,0);fill-rule:nonzero;"/>
            <rect x="156.825" y="120.801" width="3.581" height="13.966" style="fill:rgb(169,0,0);fill-rule:nonzero;"/>
            <rect x="157.981" y="106.369" width="1.269" height="2.043" style="fill:rgb(169,0,0);fill-rule:nonzero;"/>
            <rect x="157.458" y="107.905" width="0.693" height="12.896" style="fill:rgb(214,0,0);fill-rule:nonzero;"/>
            <rect x="156.825" y="120.797" width="0.692" height="13.974" style="fill:rgb(214,0,0);fill-rule:nonzero;"/>
            <rect x="159.375" y="107.905" width="0.344" height="12.896" style="fill:rgb(109,0,0);fill-rule:nonzero;"/>
            <rect x="160.056" y="120.797" width="0.35" height="13.974" style="fill:rgb(109,0,0);fill-rule:nonzero;"/>
            <rect x="155.985" y="173.343" width="5.261" height="26.289" style="fill:rgb(109,0,0);fill-rule:nonzero;"/>
            <rect x="108.021" y="150.172" width="1.317" height="51.698" style="fill:rgb(169,0,0);fill-rule:nonzero;"/>
            <rect x="107.183" y="165.298" width="2.993" height="36.526" style="fill:rgb(169,0,0);fill-rule:nonzero;"/>
            <rect x="109.894" y="165.298" width="0.282" height="36.527" style="fill:rgb(109,0,0);fill-rule:nonzero;"/>
            <rect x="107.186" y="165.298" width="0.758" height="22.292" style="fill:rgb(214,0,0);fill-rule:nonzero;"/>
            <rect x="108.021" y="150.172" width="0.394" height="7.262" style="fill:rgb(214,0,0);fill-rule:nonzero;"/>
            <rect x="109.112" y="150.172" width="0.196" height="7.262" style="fill:rgb(109,0,0);fill-rule:nonzero;"/>
            <rect x="107.661" y="157.434" width="2.038" height="7.864" style="fill:rgb(169,0,0);fill-rule:nonzero;"/>
            <rect x="108.319" y="149.307" width="0.722" height="1.15" style="fill:rgb(169,0,0);fill-rule:nonzero;"/>
            <rect x="107.661" y="157.432" width="0.394" height="7.868" style="fill:rgb(214,0,0);fill-rule:nonzero;"/>
            <rect x="109.499" y="157.432" width="0.2" height="7.868" style="fill:rgb(109,0,0);fill-rule:nonzero;"/>
            <rect x="107.183" y="187.02" width="2.993" height="14.804" style="fill:rgb(109,0,0);fill-rule:nonzero;"/>
            <path d="M88.437,189.73L88.437,191.102L94.482,191.102L195.201,167.974L195.201,155.718L88.437,189.73Z" style="fill:rgb(109,0,0);fill-rule:nonzero;"/>
            <path d="M195.201,155.718L88.437,189.73L88.437,191.102L195.201,161.195L195.201,155.718Z" style="fill:rgb(169,0,0);fill-rule:nonzero;"/>
            <rect x="145.054" y="194.453" width="10.931" height="1.201" style="fill:rgb(109,0,0);fill-rule:nonzero;"/>
            <rect x="145.108" y="184.977" width="10.932" height="1.03" style="fill:rgb(109,0,0);fill-rule:nonzero;"/>
            <rect x="145.103" y="175.381" width="10.932" height="1.201" style="fill:rgb(109,0,0);fill-rule:nonzero;"/>
            <path d="M155.732,194.998L144.308,186.243L145.416,185.394L156.84,194.149L155.732,194.998Z" style="fill:rgb(109,0,0);fill-rule:nonzero;"/>
            <path d="M156.84,186.243L145.416,194.998L144.308,194.149L155.732,185.394L156.84,186.243Z" style="fill:rgb(109,0,0);fill-rule:nonzero;"/>
            <rect x="148.708" y="188.766" width="3.732" height="2.86" style="fill:rgb(109,0,0);fill-rule:nonzero;"/>
            <path d="M155.727,185.394L144.303,176.639L145.411,175.79L156.835,184.545L155.727,185.394Z" style="fill:rgb(109,0,0);fill-rule:nonzero;"/>
            <path d="M156.835,176.639L145.411,185.394L144.303,184.545L155.727,175.79L156.835,176.639Z" style="fill:rgb(109,0,0);fill-rule:nonzero;"/>
            <rect x="148.704" y="179.162" width="3.731" height="2.86" style="fill:rgb(109,0,0);fill-rule:nonzero;"/>
            <rect x="143.681" y="108.797" width="14.123" height="3.91" style="fill:rgb(169,0,0);fill-rule:nonzero;"/>
            <rect x="145.057" y="109.744" width="0.344" height="2.037" style="fill:rgb(109,0,0);fill-rule:nonzero;"/>
            <rect x="146.346" y="109.744" width="0.344" height="2.037" style="fill:rgb(109,0,0);fill-rule:nonzero;"/>
            <rect x="147.635" y="109.744" width="0.344" height="2.037" style="fill:rgb(109,0,0);fill-rule:nonzero;"/>
            <rect x="148.924" y="109.744" width="0.344" height="2.037" style="fill:rgb(109,0,0);fill-rule:nonzero;"/>
            <rect x="150.213" y="109.744" width="0.344" height="2.037" style="fill:rgb(109,0,0);fill-rule:nonzero;"/>
            <rect x="151.502" y="109.744" width="0.344" height="2.037" style="fill:rgb(109,0,0);fill-rule:nonzero;"/>
            <rect x="152.791" y="109.744" width="0.344" height="2.037" style="fill:rgb(109,0,0);fill-rule:nonzero;"/>
            <rect x="154.08" y="109.744" width="0.344" height="2.037" style="fill:rgb(109,0,0);fill-rule:nonzero;"/>
            <rect x="155.369" y="109.744" width="0.344" height="2.037" style="fill:rgb(109,0,0);fill-rule:nonzero;"/>
            <rect x="156.658" y="109.744" width="0.344" height="2.037" style="fill:rgb(109,0,0);fill-rule:nonzero;"/>
            <path d="M146.003,112.707L146.003,113.031L144.368,113.898L143.681,113.898L143.681,112.707L146.003,112.707Z" style="fill:rgb(109,0,0);fill-rule:nonzero;"/>
            <path d="M155.482,112.707L155.482,113.031L157.117,113.898L157.804,113.898L157.804,112.707L155.482,112.707Z" style="fill:rgb(169,0,0);fill-rule:nonzero;"/>
            <path d="M152.295,108.04C152.295,108.622 151.744,109.094 151.064,109.094C150.383,109.094 149.832,108.622 149.832,108.04C149.832,107.458 150.383,106.986 151.064,106.986C151.744,106.986 152.295,107.458 152.295,108.04Z" style="fill:rgb(169,0,0);fill-rule:nonzero;"/>
            <rect x="143.681" y="108.797" width="4.674" height="3.91" style="fill:rgb(109,0,0);fill-rule:nonzero;"/>
            <path d="M145.899,126.289L145.899,126.613L144.337,127.48L143.681,127.48L143.681,126.289L145.899,126.289Z" style="fill:rgb(109,0,0);fill-rule:nonzero;"/>
            <path d="M145.899,122.379L145.899,122.056L144.337,121.188L143.681,121.188L143.681,122.379L145.899,122.379Z" style="fill:rgb(109,0,0);fill-rule:nonzero;"/>
            <rect x="143.681" y="122.379" width="13.49" height="3.91" style="fill:rgb(169,0,0);fill-rule:nonzero;"/>
            <rect x="144.996" y="123.326" width="0.328" height="2.037" style="fill:rgb(109,0,0);fill-rule:nonzero;"/>
            <rect x="146.227" y="123.326" width="0.328" height="2.037" style="fill:rgb(109,0,0);fill-rule:nonzero;"/>
            <rect x="147.458" y="123.326" width="0.328" height="2.037" style="fill:rgb(109,0,0);fill-rule:nonzero;"/>
            <rect x="148.689" y="123.326" width="0.329" height="2.037" style="fill:rgb(109,0,0);fill-rule:nonzero;"/>
            <rect x="149.921" y="123.326" width="0.328" height="2.037" style="fill:rgb(109,0,0);fill-rule:nonzero;"/>
            <rect x="151.152" y="123.326" width="0.328" height="2.037" style="fill:rgb(109,0,0);fill-rule:nonzero;"/>
            <rect x="152.383" y="123.326" width="0.328" height="2.037" style="fill:rgb(109,0,0);fill-rule:nonzero;"/>
            <rect x="153.614" y="123.326" width="0.328" height="2.037" style="fill:rgb(109,0,0);fill-rule:nonzero;"/>
            <rect x="154.845" y="123.326" width="0.329" height="2.037" style="fill:rgb(109,0,0);fill-rule:nonzero;"/>
            <rect x="156.077" y="123.326" width="0.328" height="2.037" style="fill:rgb(109,0,0);fill-rule:nonzero;"/>
            <path d="M154.953,126.289L154.953,126.613L156.515,127.48L157.171,127.48L157.171,126.289L154.953,126.289Z" style="fill:rgb(169,0,0);fill-rule:nonzero;"/>
            <path d="M154.953,122.379L154.953,122.056L156.515,121.188L157.171,121.188L157.171,122.379L154.953,122.379Z" style="fill:rgb(169,0,0);fill-rule:nonzero;"/>
            <rect x="144.034" y="122.379" width="4.218" height="3.91" style="fill:rgb(109,0,0);fill-rule:nonzero;"/>
            <path d="M146.409,157.759L146.409,158.165L144.977,159.254L144.376,159.254L144.376,157.759L146.409,157.759Z" style="fill:rgb(109,0,0);fill-rule:nonzero;"/>
            <path d="M146.409,152.852L146.409,152.445L144.977,151.356L144.376,151.356L144.376,152.852L146.409,152.852Z" style="fill:rgb(109,0,0);fill-rule:nonzero;"/>
            <rect x="144.376" y="152.852" width="12.363" height="4.907" style="fill:rgb(169,0,0);fill-rule:nonzero;"/>
            <rect x="145.581" y="154.04" width="0.301" height="2.557" style="fill:rgb(109,0,0);fill-rule:nonzero;"/>
            <rect x="146.709" y="154.04" width="0.301" height="2.557" style="fill:rgb(109,0,0);fill-rule:nonzero;"/>
            <rect x="147.838" y="154.04" width="0.301" height="2.557" style="fill:rgb(109,0,0);fill-rule:nonzero;"/>
            <rect x="148.966" y="154.04" width="0.301" height="2.557" style="fill:rgb(109,0,0);fill-rule:nonzero;"/>
            <rect x="150.094" y="154.04" width="0.301" height="2.557" style="fill:rgb(109,0,0);fill-rule:nonzero;"/>
            <rect x="151.223" y="154.04" width="0.301" height="2.557" style="fill:rgb(109,0,0);fill-rule:nonzero;"/>
            <rect x="152.351" y="154.04" width="0.301" height="2.557" style="fill:rgb(109,0,0);fill-rule:nonzero;"/>
            <rect x="153.479" y="154.04" width="0.301" height="2.557" style="fill:rgb(109,0,0);fill-rule:nonzero;"/>
            <rect x="154.608" y="154.04" width="0.3" height="2.557" style="fill:rgb(109,0,0);fill-rule:nonzero;"/>
            <rect x="155.736" y="154.04" width="0.301" height="2.557" style="fill:rgb(109,0,0);fill-rule:nonzero;"/>
            <path d="M154.706,157.759L154.706,158.165L156.137,159.254L156.739,159.254L156.739,157.759L154.706,157.759Z" style="fill:rgb(169,0,0);fill-rule:nonzero;"/>
            <path d="M154.706,152.852L154.706,152.445L156.137,151.356L156.739,151.356L156.739,152.852L154.706,152.852Z" style="fill:rgb(169,0,0);fill-rule:nonzero;"/>
            <rect x="144.812" y="152.852" width="3.46" height="4.907" style="fill:rgb(109,0,0);fill-rule:nonzero;"/>
            <path d="M146.474,140.76L146.474,141.121L145.05,142.091L144.452,142.091L144.452,140.76L146.474,140.76Z" style="fill:rgb(109,0,0);fill-rule:nonzero;"/>
            <path d="M146.474,136.389L146.474,136.028L145.05,135.058L144.452,135.058L144.452,136.389L146.474,136.389Z" style="fill:rgb(109,0,0);fill-rule:nonzero;"/>
            <rect x="144.452" y="136.389" width="12.301" height="4.371" style="fill:rgb(169,0,0);fill-rule:nonzero;"/>
            <rect x="145.651" y="137.448" width="0.284" height="2.277" style="fill:rgb(109,0,0);fill-rule:nonzero;"/>
            <rect x="146.717" y="137.448" width="0.284" height="2.277" style="fill:rgb(109,0,0);fill-rule:nonzero;"/>
            <rect x="147.783" y="137.448" width="0.284" height="2.277" style="fill:rgb(109,0,0);fill-rule:nonzero;"/>
            <rect x="148.849" y="137.448" width="0.284" height="2.277" style="fill:rgb(109,0,0);fill-rule:nonzero;"/>
            <rect x="149.915" y="137.448" width="0.284" height="2.277" style="fill:rgb(109,0,0);fill-rule:nonzero;"/>
            <rect x="150.98" y="137.448" width="0.285" height="2.277" style="fill:rgb(109,0,0);fill-rule:nonzero;"/>
            <rect x="152.046" y="137.448" width="0.285" height="2.277" style="fill:rgb(109,0,0);fill-rule:nonzero;"/>
            <rect x="153.112" y="137.448" width="0.284" height="2.277" style="fill:rgb(109,0,0);fill-rule:nonzero;"/>
            <rect x="154.178" y="137.448" width="0.284" height="2.277" style="fill:rgb(109,0,0);fill-rule:nonzero;"/>
            <rect x="155.244" y="137.448" width="0.284" height="2.277" style="fill:rgb(109,0,0);fill-rule:nonzero;"/>
            <path d="M154.73,140.76L154.73,141.121L156.154,142.091L156.753,142.091L156.753,140.76L154.73,140.76Z" style="fill:rgb(169,0,0);fill-rule:nonzero;"/>
            <path d="M154.73,136.389L154.73,136.028L156.154,135.058L156.753,135.058L156.753,136.389L154.73,136.389Z" style="fill:rgb(169,0,0);fill-rule:nonzero;"/>
            <rect x="144.833" y="136.389" width="3.32" height="4.371" style="fill:rgb(109,0,0);fill-rule:nonzero;"/>
            <rect x="100.963" y="198.907" width="6.22" height="0.677" style="fill:rgb(109,0,0);fill-rule:nonzero;"/>
            <rect x="100.994" y="193.572" width="6.22" height="0.579" style="fill:rgb(109,0,0);fill-rule:nonzero;"/>
            <rect x="100.991" y="188.168" width="6.22" height="0.676" style="fill:rgb(109,0,0);fill-rule:nonzero;"/>
            <path d="M107.039,199.214L100.539,194.284L101.169,193.806L107.669,198.736L107.039,199.214Z" style="fill:rgb(109,0,0);fill-rule:nonzero;"/>
            <path d="M107.669,194.284L101.169,199.214L100.539,198.736L107.039,193.806L107.669,194.284Z" style="fill:rgb(109,0,0);fill-rule:nonzero;"/>
            <rect x="103.042" y="195.705" width="2.123" height="1.61" style="fill:rgb(109,0,0);fill-rule:nonzero;"/>
            <path d="M107.036,193.806L100.536,188.876L101.166,188.398L107.666,193.328L107.036,193.806Z" style="fill:rgb(109,0,0);fill-rule:nonzero;"/>
            <path d="M107.666,188.876L101.166,193.806L100.536,193.328L107.036,188.398L107.666,188.876Z" style="fill:rgb(109,0,0);fill-rule:nonzero;"/>
            <rect x="103.04" y="190.297" width="2.123" height="1.61" style="fill:rgb(109,0,0);fill-rule:nonzero;"/>
            <rect x="100.181" y="150.674" width="8.037" height="2.202" style="fill:rgb(169,0,0);fill-rule:nonzero;"/>
            <rect x="100.965" y="151.207" width="0.196" height="1.147" style="fill:rgb(109,0,0);fill-rule:nonzero;"/>
            <rect x="101.698" y="151.207" width="0.196" height="1.147" style="fill:rgb(109,0,0);fill-rule:nonzero;"/>
            <rect x="102.432" y="151.207" width="0.195" height="1.147" style="fill:rgb(109,0,0);fill-rule:nonzero;"/>
            <rect x="103.165" y="151.207" width="0.196" height="1.147" style="fill:rgb(109,0,0);fill-rule:nonzero;"/>
            <rect x="103.899" y="151.207" width="0.195" height="1.147" style="fill:rgb(109,0,0);fill-rule:nonzero;"/>
            <rect x="104.632" y="151.207" width="0.196" height="1.147" style="fill:rgb(109,0,0);fill-rule:nonzero;"/>
            <rect x="105.366" y="151.207" width="0.195" height="1.147" style="fill:rgb(109,0,0);fill-rule:nonzero;"/>
            <rect x="106.099" y="151.207" width="0.196" height="1.147" style="fill:rgb(109,0,0);fill-rule:nonzero;"/>
            <rect x="106.833" y="151.207" width="0.195" height="1.147" style="fill:rgb(109,0,0);fill-rule:nonzero;"/>
            <rect x="107.566" y="151.207" width="0.196" height="1.147" style="fill:rgb(109,0,0);fill-rule:nonzero;"/>
            <path d="M101.503,152.876L101.503,153.058L100.573,153.547L100.181,153.547L100.181,152.876L101.503,152.876Z" style="fill:rgb(109,0,0);fill-rule:nonzero;"/>
            <path d="M106.897,152.876L106.897,153.058L107.827,153.547L108.218,153.547L108.218,152.876L106.897,152.876Z" style="fill:rgb(169,0,0);fill-rule:nonzero;"/>
            <path d="M105.083,150.248C105.083,150.576 104.77,150.841 104.383,150.841C103.996,150.841 103.682,150.576 103.682,150.248C103.682,149.92 103.996,149.654 104.383,149.654C104.77,149.654 105.083,149.92 105.083,150.248Z" style="fill:rgb(169,0,0);fill-rule:nonzero;"/>
            <rect x="100.181" y="150.674" width="2.66" height="2.202" style="fill:rgb(109,0,0);fill-rule:nonzero;"/>
            <path d="M101.444,160.524L101.444,160.706L100.555,161.195L100.181,161.195L100.181,160.524L101.444,160.524Z" style="fill:rgb(109,0,0);fill-rule:nonzero;"/>
            <path d="M101.444,158.322L101.444,158.14L100.555,157.651L100.181,157.651L100.181,158.322L101.444,158.322Z" style="fill:rgb(109,0,0);fill-rule:nonzero;"/>
            <rect x="100.181" y="158.322" width="7.677" height="2.202" style="fill:rgb(169,0,0);fill-rule:nonzero;"/>
            <rect x="100.93" y="158.855" width="0.187" height="1.147" style="fill:rgb(109,0,0);fill-rule:nonzero;"/>
            <rect x="101.63" y="158.855" width="0.187" height="1.147" style="fill:rgb(109,0,0);fill-rule:nonzero;"/>
            <rect x="102.331" y="158.855" width="0.187" height="1.147" style="fill:rgb(109,0,0);fill-rule:nonzero;"/>
            <rect x="103.032" y="158.855" width="0.186" height="1.147" style="fill:rgb(109,0,0);fill-rule:nonzero;"/>
            <rect x="103.732" y="158.855" width="0.187" height="1.147" style="fill:rgb(109,0,0);fill-rule:nonzero;"/>
            <rect x="104.433" y="158.855" width="0.187" height="1.147" style="fill:rgb(109,0,0);fill-rule:nonzero;"/>
            <rect x="105.133" y="158.855" width="0.187" height="1.147" style="fill:rgb(109,0,0);fill-rule:nonzero;"/>
            <rect x="105.834" y="158.855" width="0.187" height="1.147" style="fill:rgb(109,0,0);fill-rule:nonzero;"/>
            <rect x="106.534" y="158.855" width="0.187" height="1.147" style="fill:rgb(109,0,0);fill-rule:nonzero;"/>
            <rect x="107.235" y="158.855" width="0.187" height="1.147" style="fill:rgb(109,0,0);fill-rule:nonzero;"/>
            <path d="M106.596,160.524L106.596,160.706L107.484,161.195L107.858,161.195L107.858,160.524L106.596,160.524Z" style="fill:rgb(169,0,0);fill-rule:nonzero;"/>
            <path d="M106.596,158.322L106.596,158.14L107.484,157.651L107.858,157.651L107.858,158.322L106.596,158.322Z" style="fill:rgb(169,0,0);fill-rule:nonzero;"/>
            <rect x="100.382" y="158.322" width="2.401" height="2.202" style="fill:rgb(109,0,0);fill-rule:nonzero;"/>
            <path d="M101.734,178.245L101.734,178.473L100.919,179.087L100.577,179.087L100.577,178.245L101.734,178.245Z" style="fill:rgb(109,0,0);fill-rule:nonzero;"/>
            <path d="M101.734,175.481L101.734,175.253L100.919,174.639L100.577,174.639L100.577,175.481L101.734,175.481Z" style="fill:rgb(109,0,0);fill-rule:nonzero;"/>
            <rect x="100.577" y="175.481" width="7.035" height="2.764" style="fill:rgb(169,0,0);fill-rule:nonzero;"/>
            <rect x="101.263" y="176.15" width="0.171" height="1.44" style="fill:rgb(109,0,0);fill-rule:nonzero;"/>
            <rect x="101.905" y="176.15" width="0.171" height="1.44" style="fill:rgb(109,0,0);fill-rule:nonzero;"/>
            <rect x="102.547" y="176.15" width="0.171" height="1.44" style="fill:rgb(109,0,0);fill-rule:nonzero;"/>
            <rect x="103.189" y="176.15" width="0.171" height="1.44" style="fill:rgb(109,0,0);fill-rule:nonzero;"/>
            <rect x="103.831" y="176.15" width="0.171" height="1.44" style="fill:rgb(109,0,0);fill-rule:nonzero;"/>
            <rect x="104.473" y="176.15" width="0.171" height="1.44" style="fill:rgb(109,0,0);fill-rule:nonzero;"/>
            <rect x="105.115" y="176.15" width="0.171" height="1.44" style="fill:rgb(109,0,0);fill-rule:nonzero;"/>
            <rect x="105.757" y="176.15" width="0.171" height="1.44" style="fill:rgb(109,0,0);fill-rule:nonzero;"/>
            <rect x="106.399" y="176.15" width="0.171" height="1.44" style="fill:rgb(109,0,0);fill-rule:nonzero;"/>
            <rect x="107.041" y="176.15" width="0.171" height="1.44" style="fill:rgb(109,0,0);fill-rule:nonzero;"/>
            <path d="M106.455,178.245L106.455,178.473L107.269,179.087L107.612,179.087L107.612,178.245L106.455,178.245Z" style="fill:rgb(169,0,0);fill-rule:nonzero;"/>
            <path d="M106.455,175.481L106.455,175.253L107.269,174.639L107.612,174.639L107.612,175.481L106.455,175.481Z" style="fill:rgb(169,0,0);fill-rule:nonzero;"/>
            <rect x="100.825" y="175.481" width="1.969" height="2.764" style="fill:rgb(109,0,0);fill-rule:nonzero;"/>
            <path d="M101.771,168.672L101.771,168.876L100.961,169.422L100.62,169.422L100.62,168.672L101.771,168.672Z" style="fill:rgb(109,0,0);fill-rule:nonzero;"/>
            <path d="M101.771,166.212L101.771,166.008L100.961,165.462L100.62,165.462L100.62,166.212L101.771,166.212Z" style="fill:rgb(109,0,0);fill-rule:nonzero;"/>
            <rect x="100.62" y="166.212" width="7" height="2.46" style="fill:rgb(169,0,0);fill-rule:nonzero;"/>
            <rect x="101.303" y="166.807" width="0.161" height="1.283" style="fill:rgb(109,0,0);fill-rule:nonzero;"/>
            <rect x="101.909" y="166.807" width="0.162" height="1.283" style="fill:rgb(109,0,0);fill-rule:nonzero;"/>
            <rect x="102.516" y="166.807" width="0.161" height="1.283" style="fill:rgb(109,0,0);fill-rule:nonzero;"/>
            <rect x="103.122" y="166.807" width="0.162" height="1.283" style="fill:rgb(109,0,0);fill-rule:nonzero;"/>
            <rect x="103.729" y="166.807" width="0.161" height="1.283" style="fill:rgb(109,0,0);fill-rule:nonzero;"/>
            <rect x="104.335" y="166.807" width="0.162" height="1.283" style="fill:rgb(109,0,0);fill-rule:nonzero;"/>
            <rect x="104.942" y="166.807" width="0.161" height="1.283" style="fill:rgb(109,0,0);fill-rule:nonzero;"/>
            <rect x="105.548" y="166.807" width="0.162" height="1.283" style="fill:rgb(109,0,0);fill-rule:nonzero;"/>
            <rect x="106.155" y="166.807" width="0.161" height="1.283" style="fill:rgb(109,0,0);fill-rule:nonzero;"/>
            <rect x="106.761" y="166.807" width="0.162" height="1.283" style="fill:rgb(109,0,0);fill-rule:nonzero;"/>
            <path d="M106.469,168.672L106.469,168.876L107.279,169.422L107.62,169.422L107.62,168.672L106.469,168.672Z" style="fill:rgb(169,0,0);fill-rule:nonzero;"/>
            <path d="M106.469,166.212L106.469,166.008L107.279,165.462L107.62,165.462L107.62,166.212L106.469,166.212Z" style="fill:rgb(169,0,0);fill-rule:nonzero;"/>
            <rect x="100.837" y="166.212" width="1.889" height="2.46" style="fill:rgb(109,0,0);fill-rule:nonzero;"/>
            <rect x="98.025" y="165.298" width="2.994" height="36.526" style="fill:rgb(169,0,0);fill-rule:nonzero;"/>
            <rect x="100.737" y="165.298" width="0.282" height="36.527" style="fill:rgb(109,0,0);fill-rule:nonzero;"/>
            <rect x="141.365" y="107.905" width="2.316" height="91.403" style="fill:rgb(169,0,0);fill-rule:nonzero;"/>
            <rect x="140.732" y="120.801" width="3.582" height="13.966" style="fill:rgb(169,0,0);fill-rule:nonzero;"/>
            <rect x="141.77" y="106.369" width="1.269" height="2.043" style="fill:rgb(169,0,0);fill-rule:nonzero;"/>
            <rect x="139.892" y="134.767" width="5.261" height="64.865" style="fill:rgb(169,0,0);fill-rule:nonzero;"/>
            <rect x="141.365" y="107.905" width="0.693" height="12.896" style="fill:rgb(214,0,0);fill-rule:nonzero;"/>
            <rect x="140.732" y="120.801" width="0.693" height="13.974" style="fill:rgb(214,0,0);fill-rule:nonzero;"/>
            <rect x="139.892" y="134.767" width="1.226" height="64.867" style="fill:rgb(214,0,0);fill-rule:nonzero;"/>
            <rect x="144.656" y="134.767" width="0.497" height="64.867" style="fill:rgb(109,0,0);fill-rule:nonzero;"/>
            <rect x="143.963" y="120.797" width="0.351" height="13.974" style="fill:rgb(109,0,0);fill-rule:nonzero;"/>
            <rect x="143.337" y="107.905" width="0.344" height="12.896" style="fill:rgb(109,0,0);fill-rule:nonzero;"/>
            <path d="M88.437,189.957L88.437,189.502C92.548,189.502 97.664,161.72 99.288,151.015L99.463,149.864L99.752,150.994C99.828,151.292 107.457,180.765 115.862,180.765C122.587,180.765 136.014,133.404 142.175,108.36L142.365,107.583L142.629,108.34C142.803,108.841 160.374,158.469 188.309,158.469L188.309,158.924C173.513,158.924 161.753,145.192 154.493,133.672C147.733,122.946 143.514,112.096 142.448,109.22C140.419,117.37 124.256,181.22 115.862,181.22C107.945,181.22 101.078,157.69 99.583,152.199C98.46,159.358 93.37,189.957 88.437,189.957Z" style="fill:rgb(169,0,0);fill-rule:nonzero;"/>
            <rect x="138.114" y="199.543" width="24.626" height="5.106" style="fill:rgb(211,131,44);fill-rule:nonzero;"/>
            <rect x="146.546" y="199.543" width="0.97" height="5.106" style="fill:rgb(150,91,65);fill-rule:nonzero;"/>
            <rect x="149.083" y="199.543" width="0.97" height="5.106" style="fill:rgb(150,91,65);fill-rule:nonzero;"/>
            <rect x="151.621" y="199.543" width="0.97" height="5.106" style="fill:rgb(150,91,65);fill-rule:nonzero;"/>
            <rect x="154.158" y="199.543" width="0.97" height="5.106" style="fill:rgb(150,91,65);fill-rule:nonzero;"/>
            <rect x="156.695" y="199.543" width="0.97" height="5.106" style="fill:rgb(150,91,65);fill-rule:nonzero;"/>
            <rect x="138.114" y="199.543" width="3.88" height="5.106" style="fill:rgb(238,179,91);fill-rule:nonzero;"/>
            <rect x="97.013" y="201.773" width="14.013" height="2.876" style="fill:rgb(211,131,44);fill-rule:nonzero;"/>
            <rect x="101.812" y="201.773" width="0.552" height="2.876" style="fill:rgb(150,91,65);fill-rule:nonzero;"/>
            <rect x="103.256" y="201.773" width="0.552" height="2.876" style="fill:rgb(150,91,65);fill-rule:nonzero;"/>
            <rect x="104.699" y="201.773" width="0.552" height="2.876" style="fill:rgb(150,91,65);fill-rule:nonzero;"/>
            <rect x="106.143" y="201.773" width="0.552" height="2.876" style="fill:rgb(150,91,65);fill-rule:nonzero;"/>
            <rect x="107.587" y="201.773" width="0.552" height="2.876" style="fill:rgb(150,91,65);fill-rule:nonzero;"/>
        </g>
        <rect x="98.863" y="150.172" width="1.318" height="51.469" style="fill:rgb(169,0,0);fill-rule:nonzero;"/>
        <rect x="98.503" y="157.434" width="2.039" height="7.864" style="fill:rgb(169,0,0);fill-rule:nonzero;"/>
        <rect x="99.094" y="149.307" width="0.722" height="1.15" style="fill:rgb(169,0,0);fill-rule:nonzero;"/>
        <rect x="98.863" y="150.172" width="0.395" height="7.262" style="fill:rgb(214,0,0);fill-rule:nonzero;"/>
        <rect x="98.503" y="157.434" width="0.394" height="7.869" style="fill:rgb(214,0,0);fill-rule:nonzero;"/>
        <rect x="98.025" y="165.298" width="0.698" height="36.527" style="fill:rgb(214,0,0);fill-rule:nonzero;"/>
        <rect x="100.342" y="157.432" width="0.2" height="7.868" style="fill:rgb(109,0,0);fill-rule:nonzero;"/>
        <rect x="99.985" y="150.172" width="0.196" height="7.262" style="fill:rgb(109,0,0);fill-rule:nonzero;"/>
        <rect x="97.013" y="201.773" width="2.208" height="2.876" style="fill:rgb(238,179,91);fill-rule:nonzero;"/>
    </g>
</svg>
