<?xml version="1.0" encoding="UTF-8" standalone="no"?>
<!DOCTYPE svg PUBLIC "-//W3C//DTD SVG 1.1//EN" "http://www.w3.org/Graphics/SVG/1.1/DTD/svg11.dtd">
<svg width="100%" height="100%" viewBox="0 0 2000 2000" version="1.1" xmlns="http://www.w3.org/2000/svg" xmlns:xlink="http://www.w3.org/1999/xlink" xml:space="preserve" xmlns:serif="http://www.serif.com/" style="fill-rule:evenodd;clip-rule:evenodd;stroke-linejoin:round;stroke-miterlimit:2;">
    <g transform="matrix(16.545762,0,0,16.545762,-3355.159195,-1539.402268)">
        <rect x="212.953" y="189.002" width="17.527" height="15.647" style="fill:rgb(56,98,102);fill-rule:nonzero;"/>
        <rect x="214.485" y="177.176" width="14.485" height="11.826" style="fill:rgb(56,98,102);fill-rule:nonzero;"/>
        <path d="M217.617,189.002L217.609,189.002L217.609,188.941C217.612,188.961 217.615,188.982 217.617,189.002ZM217.432,189.002L214.485,189.002L214.485,187.298L217.432,187.645L217.432,189.002Z" style="fill:rgb(47,86,90);fill-rule:nonzero;"/>
        <rect x="216.026" y="175.642" width="11.403" height="1.534" style="fill:rgb(119,153,167);fill-rule:nonzero;"/>
        <rect x="214.486" y="177.176" width="1.54" height="1.995" style="fill:rgb(119,153,167);fill-rule:nonzero;"/>
        <path d="M226.987,204.649L226.747,204.649L226.747,204.237L226.987,204.264L226.987,204.649ZM226.571,204.649L226.044,204.649L226.044,204.16L226.571,204.218L226.571,204.649ZM225.868,204.649L225.341,204.649L225.341,204.082L225.868,204.14L225.868,204.649ZM225.165,204.649L224.638,204.649L224.638,204.005L225.165,204.063L225.165,204.649ZM224.462,204.649L223.935,204.649L223.935,203.927L224.462,203.985L224.462,204.649ZM223.759,204.649L223.233,204.649L223.233,203.85L223.759,203.908L223.759,204.649ZM223.056,204.649L222.53,204.649L222.53,203.772L223.056,203.83L223.056,204.649ZM222.353,204.649L221.827,204.649L221.827,203.695L222.353,203.753L222.353,204.649ZM221.65,204.649L221.124,204.649L221.124,203.617L221.65,203.675L221.65,204.649ZM220.947,204.649L220.421,204.649L220.421,203.54L220.947,203.598L220.947,204.649ZM220.244,204.649L219.718,204.649L219.718,203.463L220.244,203.521L220.244,204.649ZM219.541,204.649L219.015,204.649L219.015,203.385L219.541,203.443L219.541,204.649ZM218.838,204.649L218.312,204.649L218.312,203.308L218.838,203.366L218.838,204.649ZM218.135,204.649L217.609,204.649L217.609,203.23L218.135,203.288L218.135,204.649ZM217.432,204.649L213.027,204.649L213.039,202.727L217.432,203.211L217.432,204.649Z" style="fill:rgb(47,86,90);fill-rule:nonzero;"/>
        <rect x="227.429" y="177.176" width="1.541" height="1.995" style="fill:rgb(119,153,167);fill-rule:nonzero;"/>
        <rect x="216.026" y="177.176" width="0.177" height="27.473" style="fill:rgb(119,153,167);fill-rule:nonzero;"/>
        <rect x="215.256" y="179.167" width="0.177" height="25.482" style="fill:rgb(119,153,167);fill-rule:nonzero;"/>
        <rect x="214.486" y="179.169" width="0.176" height="25.48" style="fill:rgb(119,153,167);fill-rule:nonzero;"/>
        <rect x="213.715" y="189.017" width="0.177" height="15.632" style="fill:rgb(119,153,167);fill-rule:nonzero;"/>
        <rect x="212.945" y="189.017" width="0.176" height="15.632" style="fill:rgb(119,153,167);fill-rule:nonzero;"/>
        <rect x="227.992" y="179.167" width="0.177" height="25.482" style="fill:rgb(119,153,167);fill-rule:nonzero;"/>
        <rect x="228.762" y="179.169" width="0.177" height="25.48" style="fill:rgb(119,153,167);fill-rule:nonzero;"/>
        <rect x="229.533" y="189.017" width="0.176" height="15.632" style="fill:rgb(119,153,167);fill-rule:nonzero;"/>
        <rect x="230.303" y="189.017" width="0.177" height="15.632" style="fill:rgb(119,153,167);fill-rule:nonzero;"/>
        <rect x="216.729" y="177.176" width="0.177" height="27.473" style="fill:rgb(119,153,167);fill-rule:nonzero;"/>
        <rect x="217.432" y="177.176" width="0.177" height="27.473" style="fill:rgb(119,153,167);fill-rule:nonzero;"/>
        <rect x="218.135" y="177.176" width="0.177" height="27.473" style="fill:rgb(119,153,167);fill-rule:nonzero;"/>
        <rect x="218.838" y="177.176" width="0.177" height="27.473" style="fill:rgb(119,153,167);fill-rule:nonzero;"/>
        <rect x="219.541" y="177.176" width="0.177" height="27.473" style="fill:rgb(119,153,167);fill-rule:nonzero;"/>
        <rect x="220.244" y="177.176" width="0.177" height="27.473" style="fill:rgb(119,153,167);fill-rule:nonzero;"/>
        <rect x="220.947" y="177.176" width="0.177" height="27.473" style="fill:rgb(119,153,167);fill-rule:nonzero;"/>
        <rect x="221.65" y="177.176" width="0.177" height="27.473" style="fill:rgb(119,153,167);fill-rule:nonzero;"/>
        <rect x="222.353" y="177.176" width="0.177" height="27.473" style="fill:rgb(119,153,167);fill-rule:nonzero;"/>
        <rect x="223.056" y="177.176" width="0.177" height="27.473" style="fill:rgb(119,153,167);fill-rule:nonzero;"/>
        <rect x="223.759" y="177.176" width="0.176" height="27.473" style="fill:rgb(119,153,167);fill-rule:nonzero;"/>
        <rect x="224.462" y="177.176" width="0.176" height="27.473" style="fill:rgb(119,153,167);fill-rule:nonzero;"/>
        <rect x="225.165" y="177.176" width="0.176" height="27.473" style="fill:rgb(119,153,167);fill-rule:nonzero;"/>
        <rect x="225.868" y="177.176" width="0.176" height="27.473" style="fill:rgb(119,153,167);fill-rule:nonzero;"/>
        <rect x="226.571" y="177.176" width="0.176" height="27.473" style="fill:rgb(119,153,167);fill-rule:nonzero;"/>
        <rect x="227.274" y="177.176" width="0.176" height="27.473" style="fill:rgb(119,153,167);fill-rule:nonzero;"/>
        <path d="M226.987,200.873C226.907,200.844 226.827,200.813 226.747,200.783L226.747,189.002L227.274,189.002L227.274,189.42L226.987,189.42L226.987,200.873ZM226.571,200.713C226.393,200.642 226.217,200.568 226.044,200.491L226.044,189.002L226.571,189.002L226.571,200.713ZM225.868,200.411C225.69,200.33 225.514,200.245 225.341,200.158L225.341,189.002L225.868,189.002L225.868,200.411ZM225.165,200.067C224.986,199.974 224.811,199.878 224.638,199.779L224.638,189.002L225.165,189.002L225.165,200.067ZM224.462,199.675C224.283,199.569 224.108,199.46 223.935,199.348L223.935,189.002L224.462,189.002L224.462,199.675ZM223.759,199.23C223.579,199.109 223.404,198.985 223.233,198.857L223.233,189.002L223.759,189.002L223.759,199.23ZM223.056,198.723C222.876,198.585 222.701,198.443 222.53,198.298L222.53,189.002L223.056,189.002L223.056,198.723ZM222.353,198.145C222.172,197.986 221.997,197.823 221.827,197.656L221.827,189.002L222.353,189.002L222.353,198.145ZM221.65,197.48C221.469,197.297 221.293,197.108 221.124,196.915L221.124,189.002L221.65,189.002L221.65,197.48ZM220.947,196.71C220.765,196.494 220.589,196.272 220.421,196.046L220.421,189.002L220.947,189.002L220.947,196.71ZM220.244,195.803C220.06,195.543 219.884,195.277 219.718,195.005L219.718,189.002L220.244,189.002L220.244,195.803ZM219.541,194.708C219.353,194.383 219.178,194.05 219.015,193.71L219.015,189.002L219.541,189.002L219.541,194.708ZM218.838,193.327C218.642,192.886 218.467,192.433 218.312,191.969L218.312,189.002L218.838,189.002L218.838,193.327ZM218.135,191.406C217.907,190.63 217.735,189.827 217.617,189.002L218.135,189.002L218.135,191.406Z" style="fill:rgb(60,109,119);fill-rule:nonzero;"/>
        <path d="M227.274,188.802L226.747,188.74L226.747,177.176L226.571,177.176L226.571,188.72L226.044,188.658L226.044,177.176L225.868,177.176L225.868,188.637L225.341,188.575L225.341,177.176L225.165,177.176L225.165,188.554L224.638,188.492L224.638,177.176L224.462,177.176L224.462,188.471L223.935,188.41L223.935,177.176L223.759,177.176L223.759,188.389L223.233,188.327L223.233,177.176L223.056,177.176L223.056,188.306L222.53,188.244L222.53,177.176L222.353,177.176L222.353,188.223L221.827,188.161L221.827,177.176L221.65,177.176L221.65,188.141L221.124,188.079L221.124,177.176L220.947,177.176L220.947,188.058L220.421,187.996L220.421,177.176L220.244,177.176L220.244,187.975L219.718,187.913L219.718,177.176L219.641,177.176L227.429,177.176L227.274,177.176L227.274,188.802ZM219.541,187.893L219.015,187.831L219.015,178.159C219.174,177.871 219.349,177.59 219.541,177.316L219.541,187.893ZM218.838,187.81L218.312,187.748L218.312,179.72C218.462,179.3 218.636,178.891 218.838,178.492L218.838,187.81ZM218.135,187.727L217.609,187.665L217.609,182.842C217.717,181.948 217.883,181.084 218.135,180.255L218.135,187.727Z" style="fill:rgb(60,109,119);fill-rule:nonzero;"/>
        <path d="M227.274,189.002L226.747,189.002L226.747,188.74L227.274,188.802L227.274,189.002ZM226.571,189.002L226.044,189.002L226.044,188.658L226.571,188.72L226.571,189.002ZM225.868,189.002L225.341,189.002L225.341,188.575L225.868,188.637L225.868,189.002ZM225.165,189.002L224.638,189.002L224.638,188.492L225.165,188.554L225.165,189.002ZM224.462,189.002L223.935,189.002L223.935,188.41L224.462,188.471L224.462,189.002ZM223.759,189.002L223.233,189.002L223.233,188.327L223.759,188.389L223.759,189.002ZM223.056,189.002L222.53,189.002L222.53,188.244L223.056,188.306L223.056,189.002ZM222.353,189.002L221.827,189.002L221.827,188.161L222.353,188.223L222.353,189.002ZM221.65,189.002L221.124,189.002L221.124,188.079L221.65,188.141L221.65,189.002ZM220.947,189.002L220.421,189.002L220.421,187.996L220.947,188.058L220.947,189.002ZM220.244,189.002L219.718,189.002L219.718,187.913L220.244,187.975L220.244,189.002ZM219.541,189.002L219.015,189.002L219.015,187.831L219.541,187.893L219.541,189.002ZM218.838,189.002L218.312,189.002L218.312,187.748L218.838,187.81L218.838,189.002ZM218.135,189.002L217.617,189.002C217.615,188.982 217.612,188.961 217.609,188.941L217.609,187.665L218.135,187.727L218.135,189.002Z" style="fill:rgb(51,97,108);fill-rule:nonzero;"/>
        <path d="M227.429,177.176L219.641,177.176C220.03,176.638 220.486,176.126 221.019,175.642L227.429,175.642L227.429,177.176Z" style="fill:rgb(122,161,178);fill-rule:nonzero;"/>
        <path d="M217.609,188.941C217.491,188.091 217.432,187.217 217.432,186.326C217.432,185.128 217.474,183.962 217.609,182.842L217.609,188.941Z" style="fill:rgb(122,161,178);fill-rule:nonzero;"/>
        <path d="M218.312,191.969C218.25,191.783 218.191,191.596 218.135,191.406L218.135,180.255C218.19,180.075 218.249,179.897 218.312,179.72L218.312,191.969Z" style="fill:rgb(122,161,178);fill-rule:nonzero;"/>
        <path d="M219.015,193.71C218.954,193.583 218.895,193.455 218.838,193.327L218.838,178.492C218.895,178.38 218.954,178.269 219.015,178.159L219.015,193.71Z" style="fill:rgb(122,161,178);fill-rule:nonzero;"/>
        <path d="M219.718,195.005C219.658,194.907 219.599,194.808 219.541,194.708L219.541,177.316C219.574,177.269 219.607,177.222 219.641,177.176L219.718,177.176L219.718,195.005Z" style="fill:rgb(122,161,178);fill-rule:nonzero;"/>
        <path d="M220.421,196.046C220.361,195.966 220.302,195.884 220.244,195.803L220.244,177.176L220.421,177.176L220.421,196.046Z" style="fill:rgb(122,161,178);fill-rule:nonzero;"/>
        <path d="M221.124,196.915C221.064,196.847 221.005,196.779 220.947,196.71L220.947,177.176L221.124,177.176L221.124,196.915Z" style="fill:rgb(122,161,178);fill-rule:nonzero;"/>
        <path d="M221.827,197.656C221.767,197.598 221.708,197.54 221.65,197.48L221.65,177.176L221.827,177.176L221.827,197.656Z" style="fill:rgb(122,161,178);fill-rule:nonzero;"/>
        <path d="M222.53,198.298C222.47,198.247 222.411,198.196 222.353,198.145L222.353,177.176L222.53,177.176L222.53,198.298Z" style="fill:rgb(122,161,178);fill-rule:nonzero;"/>
        <path d="M223.233,198.857C223.173,198.813 223.114,198.768 223.056,198.723L223.056,177.176L223.233,177.176L223.233,198.857Z" style="fill:rgb(122,161,178);fill-rule:nonzero;"/>
        <path d="M228.461,189.42L228.169,189.42L228.169,189.002L228.461,189.002L228.461,189.42ZM227.992,189.42L227.45,189.42L227.45,189.002L227.992,189.002L227.992,189.42Z" style="fill:rgb(60,109,119);fill-rule:nonzero;"/>
        <path d="M228.461,188.942L228.169,188.907L228.169,179.171L228.762,179.171L228.762,182.977L228.312,182.977L228.312,184.065L228.762,184.065L228.762,186.491L228.461,186.491L228.461,188.942ZM227.992,188.887L227.45,188.823L227.45,179.171L227.992,179.171L227.992,188.887ZM228.97,186.491L228.939,186.491L228.939,184.065L228.97,184.065L228.97,186.491ZM228.97,182.977L228.939,182.977L228.939,179.171L228.97,179.171L228.97,182.977Z" style="fill:rgb(60,109,119);fill-rule:nonzero;"/>
        <path d="M228.461,189.002L228.169,189.002L228.169,188.907L228.461,188.942L228.461,189.002ZM227.992,189.002L227.45,189.002L227.45,188.823L227.992,188.887L227.992,189.002Z" style="fill:rgb(51,97,108);fill-rule:nonzero;"/>
        <path d="M228.97,179.171L228.939,179.171L228.939,179.169L228.762,179.169L228.762,179.171L228.169,179.171L228.169,179.167L227.992,179.167L227.992,179.171L227.45,179.171L227.45,177.176L228.97,177.176L228.97,179.171Z" style="fill:rgb(122,161,178);fill-rule:nonzero;"/>
        <rect x="227.992" y="179.167" width="0.177" height="10.253" style="fill:rgb(122,161,178);fill-rule:nonzero;"/>
        <path d="M228.939,186.491L228.762,186.491L228.762,184.065L228.939,184.065L228.939,186.491ZM228.939,182.977L228.762,182.977L228.762,179.169L228.939,179.169L228.939,182.977Z" style="fill:rgb(122,161,178);fill-rule:nonzero;"/>
        <path d="M223.935,199.348C223.876,199.309 223.817,199.269 223.759,199.23L223.759,177.176L223.935,177.176L223.935,199.348Z" style="fill:rgb(122,161,178);fill-rule:nonzero;"/>
        <path d="M224.638,199.779C224.579,199.744 224.52,199.71 224.462,199.675L224.462,177.176L224.638,177.176L224.638,199.779Z" style="fill:rgb(122,161,178);fill-rule:nonzero;"/>
        <path d="M225.341,200.158C225.282,200.128 225.223,200.098 225.165,200.067L225.165,177.176L225.341,177.176L225.341,200.158Z" style="fill:rgb(122,161,178);fill-rule:nonzero;"/>
        <path d="M226.044,200.491C225.985,200.465 225.926,200.438 225.868,200.411L225.868,177.176L226.044,177.176L226.044,200.491Z" style="fill:rgb(122,161,178);fill-rule:nonzero;"/>
        <path d="M226.747,200.783C226.688,200.76 226.629,200.736 226.571,200.713L226.571,177.176L226.747,177.176L226.747,200.783Z" style="fill:rgb(122,161,178);fill-rule:nonzero;"/>
        <rect x="227.274" y="177.176" width="0.176" height="12.244" style="fill:rgb(122,161,178);fill-rule:nonzero;"/>
        <rect x="217.439" y="174.588" width="8.727" height="1.054" style="fill:rgb(56,98,102);fill-rule:nonzero;"/>
        <path d="M226.166,174.588L217.439,174.588L218.819,172.969L224.786,172.969L226.166,174.588Z" style="fill:rgb(201,216,229);fill-rule:nonzero;"/>
        <rect x="288.416" y="188.527" width="10.862" height="16.122" style="fill:rgb(56,98,102);fill-rule:nonzero;"/>
        <rect x="289.231" y="187.219" width="9.231" height="1.535" style="fill:rgb(56,98,102);fill-rule:nonzero;"/>
        <rect x="290.529" y="186.451" width="6.635" height="0.768" style="fill:rgb(56,98,102);fill-rule:nonzero;"/>
        <rect x="291.679" y="185.683" width="4.336" height="0.911" style="fill:rgb(56,98,102);fill-rule:nonzero;"/>
        <rect x="266.22" y="168.588" width="9.14" height="36.061" style="fill:rgb(119,153,167);fill-rule:nonzero;"/>
        <rect x="266.907" y="165.661" width="7.767" height="3.193" style="fill:rgb(119,153,167);fill-rule:nonzero;"/>
        <rect x="267.999" y="163.943" width="5.583" height="1.924" style="fill:rgb(119,153,167);fill-rule:nonzero;"/>
        <rect x="268.966" y="162.226" width="3.648" height="1.965" style="fill:rgb(119,153,167);fill-rule:nonzero;"/>
        <path d="M259.765,112.567L260.582,102.306L261.398,112.567L259.765,112.567Z" style="fill:rgb(119,153,167);fill-rule:nonzero;"/>
        <rect x="255.565" y="114.997" width="9.952" height="3.01" style="fill:rgb(119,153,167);fill-rule:nonzero;"/>
        <path d="M270.501,204.649L250.664,204.649L250.664,117.768L260.592,116.453L270.501,117.768L270.501,204.649Z" style="fill:rgb(166,188,197);fill-rule:nonzero;"/>
        <path d="M250.664,204.649L260.592,116.453L270.52,204.649L250.664,204.649Z" style="fill:rgb(201,216,229);fill-rule:nonzero;"/>
        <path d="M250.664,117.768L250.664,204.649L260.592,116.453L250.664,117.768Z" style="fill:rgb(119,153,167);fill-rule:nonzero;"/>
        <rect x="257.847" y="112.505" width="5.292" height="2.492" style="fill:rgb(119,153,167);fill-rule:nonzero;"/>
        <path d="M270.501,117.768L265.517,117.107L270.501,117.768Z" style="fill:rgb(161,166,169);fill-rule:nonzero;"/>
        <path d="M265.517,117.107L263.253,116.806L265.517,117.107Z" style="fill:rgb(133,166,179);fill-rule:nonzero;"/>
        <path d="M270.501,204.474L270.447,203.996L263.253,116.806L265.517,117.107L270.501,117.768L270.501,204.474Z" style="fill:rgb(176,197,205);fill-rule:nonzero;"/>
        <path d="M270.501,204.474L270.447,203.996L270.501,204.474Z" style="fill:rgb(207,221,233);fill-rule:nonzero;"/>
        <path d="M250.664,204.649L255.457,162.067L265.727,162.067L270.52,204.649L250.664,204.649Z" style="fill:rgb(70,109,113);fill-rule:nonzero;"/>
        <rect x="275.398" y="140.922" width="12.721" height="14.424" style="fill:rgb(211,131,44);fill-rule:nonzero;"/>
        <rect x="273.619" y="155.309" width="16.279" height="49.34" style="fill:rgb(238,179,91);fill-rule:nonzero;"/>
        <rect x="274.297" y="146.868" width="5.366" height="8.441" style="fill:rgb(224,159,71);fill-rule:nonzero;"/>
        <rect x="283.944" y="146.868" width="5.366" height="8.441" style="fill:rgb(224,159,71);fill-rule:nonzero;"/>
        <rect x="279.658" y="155.309" width="4.271" height="49.34" style="fill:rgb(211,131,44);fill-rule:nonzero;"/>
        <rect x="276.513" y="137.686" width="10.491" height="1.656" style="fill:rgb(41,86,90);fill-rule:nonzero;"/>
        <rect x="277.433" y="136.321" width="8.651" height="1.365" style="fill:rgb(41,86,90);fill-rule:nonzero;"/>
        <rect x="278.4" y="135.26" width="6.717" height="1.061" style="fill:rgb(41,86,90);fill-rule:nonzero;"/>
        <rect x="279.228" y="134.461" width="5.061" height="0.858" style="fill:rgb(41,86,90);fill-rule:nonzero;"/>
        <rect x="280.462" y="126.63" width="2.593" height="1.932" style="fill:rgb(41,86,90);fill-rule:nonzero;"/>
        <path d="M281.295,126.731L281.759,110.459L282.222,126.731L281.295,126.731Z" style="fill:rgb(41,86,90);fill-rule:nonzero;"/>
        <rect x="279.799" y="128.562" width="3.919" height="9.814" style="fill:rgb(41,86,90);fill-rule:nonzero;"/>
        <rect x="281.029" y="129.198" width="1.46" height="10.117" style="fill:rgb(0,49,58);fill-rule:nonzero;"/>
        <rect x="275.745" y="139.338" width="11.972" height="1.594" style="fill:rgb(224,159,71);fill-rule:nonzero;"/>
        <rect x="282.605" y="126.63" width="0.45" height="1.932" style="fill:rgb(70,109,113);fill-rule:nonzero;"/>
        <rect x="283.017" y="128.562" width="0.701" height="5.891" style="fill:rgb(70,109,113);fill-rule:nonzero;"/>
        <rect x="280.462" y="126.63" width="0.45" height="1.932" style="fill:rgb(0,49,58);fill-rule:nonzero;"/>
        <rect x="279.228" y="134.472" width="0.45" height="0.788" style="fill:rgb(0,49,58);fill-rule:nonzero;"/>
        <rect x="278.4" y="135.26" width="0.449" height="1.053" style="fill:rgb(0,49,58);fill-rule:nonzero;"/>
        <rect x="277.433" y="136.313" width="0.45" height="1.374" style="fill:rgb(0,49,58);fill-rule:nonzero;"/>
        <rect x="276.513" y="137.689" width="0.45" height="1.638" style="fill:rgb(0,49,58);fill-rule:nonzero;"/>
        <rect x="283.839" y="134.472" width="0.45" height="0.788" style="fill:rgb(70,109,113);fill-rule:nonzero;"/>
        <rect x="284.668" y="135.26" width="0.449" height="1.053" style="fill:rgb(70,109,113);fill-rule:nonzero;"/>
        <rect x="285.634" y="136.313" width="0.45" height="1.374" style="fill:rgb(70,109,113);fill-rule:nonzero;"/>
        <rect x="286.554" y="137.689" width="0.45" height="1.638" style="fill:rgb(70,109,113);fill-rule:nonzero;"/>
        <rect x="279.799" y="128.562" width="0.45" height="5.906" style="fill:rgb(0,49,58);fill-rule:nonzero;"/>
        <rect x="284.801" y="147.845" width="0.803" height="7.453" style="fill:rgb(211,131,44);fill-rule:nonzero;"/>
        <rect x="286.295" y="147.845" width="0.803" height="7.466" style="fill:rgb(211,131,44);fill-rule:nonzero;"/>
        <rect x="287.788" y="147.845" width="0.803" height="7.466" style="fill:rgb(211,131,44);fill-rule:nonzero;"/>
        <rect x="285.404" y="147.845" width="0.2" height="7.453" style="fill:rgb(171,105,58);fill-rule:nonzero;"/>
        <rect x="286.897" y="147.845" width="0.201" height="7.466" style="fill:rgb(171,105,58);fill-rule:nonzero;"/>
        <rect x="288.368" y="147.845" width="0.223" height="7.466" style="fill:rgb(171,105,58);fill-rule:nonzero;"/>
        <rect x="275.085" y="147.838" width="0.803" height="7.453" style="fill:rgb(211,131,44);fill-rule:nonzero;"/>
        <rect x="276.579" y="147.838" width="0.803" height="7.466" style="fill:rgb(211,131,44);fill-rule:nonzero;"/>
        <rect x="278.072" y="147.838" width="0.803" height="7.466" style="fill:rgb(211,131,44);fill-rule:nonzero;"/>
        <rect x="275.688" y="147.838" width="0.2" height="7.453" style="fill:rgb(171,105,58);fill-rule:nonzero;"/>
        <rect x="277.182" y="147.838" width="0.2" height="7.466" style="fill:rgb(171,105,58);fill-rule:nonzero;"/>
        <rect x="278.652" y="147.838" width="0.223" height="7.466" style="fill:rgb(171,105,58);fill-rule:nonzero;"/>
        <path d="M285.404,146.86L284.801,146.86L284.801,142.312L285.604,142.312L285.404,142.312L285.404,146.86Z" style="fill:rgb(171,105,58);fill-rule:nonzero;"/>
        <path d="M286.897,146.868L286.295,146.868L286.295,142.312L287.098,142.312L286.897,142.312L286.897,146.868Z" style="fill:rgb(171,105,58);fill-rule:nonzero;"/>
        <rect x="285.404" y="142.312" width="0.2" height="4.548" style="fill:rgb(139,84,69);fill-rule:nonzero;"/>
        <rect x="286.897" y="142.312" width="0.201" height="4.556" style="fill:rgb(139,84,69);fill-rule:nonzero;"/>
        <path d="M277.182,146.864L276.579,146.864L276.579,142.308L277.382,142.308L277.182,142.308L277.182,146.864Z" style="fill:rgb(171,105,58);fill-rule:nonzero;"/>
        <path d="M278.652,146.864L278.072,146.864L278.072,142.308L278.875,142.308L278.652,142.308L278.652,146.864Z" style="fill:rgb(171,105,58);fill-rule:nonzero;"/>
        <rect x="277.182" y="142.308" width="0.2" height="4.556" style="fill:rgb(139,84,69);fill-rule:nonzero;"/>
        <rect x="278.652" y="142.308" width="0.223" height="4.556" style="fill:rgb(139,84,69);fill-rule:nonzero;"/>
        <rect x="274.492" y="156.215" width="0.929" height="48.434" style="fill:rgb(224,159,71);fill-rule:nonzero;"/>
        <rect x="276.22" y="156.215" width="0.928" height="48.434" style="fill:rgb(224,159,71);fill-rule:nonzero;"/>
        <rect x="277.947" y="156.215" width="0.928" height="48.434" style="fill:rgb(224,159,71);fill-rule:nonzero;"/>
        <rect x="275.189" y="156.215" width="0.232" height="48.434" style="fill:rgb(181,127,79);fill-rule:nonzero;"/>
        <rect x="276.916" y="156.215" width="0.232" height="48.434" style="fill:rgb(181,127,79);fill-rule:nonzero;"/>
        <rect x="278.617" y="156.215" width="0.258" height="48.434" style="fill:rgb(181,127,79);fill-rule:nonzero;"/>
        <rect x="284.806" y="156.209" width="0.929" height="48.44" style="fill:rgb(224,159,71);fill-rule:nonzero;"/>
        <rect x="286.533" y="156.209" width="0.929" height="48.44" style="fill:rgb(224,159,71);fill-rule:nonzero;"/>
        <rect x="288.26" y="156.209" width="0.929" height="48.44" style="fill:rgb(224,159,71);fill-rule:nonzero;"/>
        <rect x="285.503" y="156.209" width="0.232" height="48.44" style="fill:rgb(181,127,79);fill-rule:nonzero;"/>
        <rect x="287.23" y="156.209" width="0.232" height="48.44" style="fill:rgb(181,127,79);fill-rule:nonzero;"/>
        <rect x="288.93" y="156.209" width="0.259" height="48.44" style="fill:rgb(181,127,79);fill-rule:nonzero;"/>
        <path d="M283.944,155.309L283.633,155.309L283.633,146.851L283.984,146.851L283.984,146.868L283.944,146.868L283.944,155.309Z" style="fill:rgb(171,105,58);fill-rule:nonzero;"/>
        <path d="M283.984,204.649L283.929,204.649L283.929,155.309L283.633,155.309L283.984,155.309L283.984,204.649Z" style="fill:rgb(192,143,95);fill-rule:nonzero;"/>
        <rect x="283.944" y="146.868" width="0.04" height="8.441" style="fill:rgb(181,127,79);fill-rule:nonzero;"/>
        <rect x="283.633" y="155.309" width="0.296" height="49.34" style="fill:rgb(171,105,58);fill-rule:nonzero;"/>
        <path d="M280.664,155.309L280.123,155.309L280.123,142.335L280.844,142.335L280.664,142.335L280.664,155.309Z" style="fill:rgb(171,105,58);fill-rule:nonzero;"/>
        <rect x="280.123" y="155.309" width="0.541" height="49.34" style="fill:rgb(171,105,58);fill-rule:nonzero;"/>
        <path d="M282.006,155.309L281.465,155.309L281.465,142.335L282.186,142.335L282.006,142.335L282.006,155.309Z" style="fill:rgb(171,105,58);fill-rule:nonzero;"/>
        <rect x="281.465" y="155.309" width="0.541" height="49.34" style="fill:rgb(171,105,58);fill-rule:nonzero;"/>
        <path d="M283.328,155.309L282.807,155.309L282.807,142.335L283.528,142.335L283.328,142.335L283.328,155.309Z" style="fill:rgb(171,105,58);fill-rule:nonzero;"/>
        <rect x="282.807" y="155.309" width="0.521" height="49.34" style="fill:rgb(171,105,58);fill-rule:nonzero;"/>
        <rect x="280.664" y="142.335" width="0.18" height="12.974" style="fill:rgb(139,84,69);fill-rule:nonzero;"/>
        <rect x="280.664" y="155.309" width="0.18" height="49.34" style="fill:rgb(139,84,69);fill-rule:nonzero;"/>
        <rect x="282.006" y="142.335" width="0.18" height="12.974" style="fill:rgb(139,84,69);fill-rule:nonzero;"/>
        <rect x="282.006" y="155.309" width="0.18" height="49.34" style="fill:rgb(139,84,69);fill-rule:nonzero;"/>
        <rect x="283.328" y="142.335" width="0.2" height="12.974" style="fill:rgb(139,84,69);fill-rule:nonzero;"/>
        <rect x="283.328" y="155.309" width="0.2" height="49.34" style="fill:rgb(139,84,69);fill-rule:nonzero;"/>
        <rect x="276.513" y="140.018" width="0.669" height="0.914" style="fill:rgb(181,127,79);fill-rule:nonzero;"/>
        <rect x="278.155" y="140.018" width="0.668" height="0.914" style="fill:rgb(181,127,79);fill-rule:nonzero;"/>
        <rect x="279.796" y="140.018" width="0.668" height="0.914" style="fill:rgb(181,127,79);fill-rule:nonzero;"/>
        <rect x="281.437" y="140.018" width="0.669" height="0.914" style="fill:rgb(181,127,79);fill-rule:nonzero;"/>
        <rect x="283.079" y="140.018" width="0.668" height="0.914" style="fill:rgb(181,127,79);fill-rule:nonzero;"/>
        <rect x="284.72" y="140.018" width="0.669" height="0.914" style="fill:rgb(181,127,79);fill-rule:nonzero;"/>
        <rect x="286.362" y="140.018" width="0.668" height="0.914" style="fill:rgb(181,127,79);fill-rule:nonzero;"/>
        <rect x="302.63" y="185.683" width="10.863" height="18.966" style="fill:rgb(119,153,167);fill-rule:nonzero;"/>
        <rect x="303.446" y="184.143" width="9.231" height="1.786" style="fill:rgb(119,153,167);fill-rule:nonzero;"/>
        <rect x="304.744" y="183.24" width="6.635" height="1.068" style="fill:rgb(119,153,167);fill-rule:nonzero;"/>
        <rect x="305.893" y="182.337" width="4.337" height="1.068" style="fill:rgb(119,153,167);fill-rule:nonzero;"/>
        <path d="M306.986,182.337L305.893,182.337L305.893,183.263L304.744,183.263L304.744,184.19L303.446,184.19L303.446,185.682L302.63,185.682L302.63,204.649L306.986,204.649L306.986,182.337Z" style="fill:rgb(56,98,102);fill-rule:nonzero;"/>
        <rect x="240.484" y="183.531" width="22.32" height="21.118" style="fill:rgb(212,224,234);fill-rule:nonzero;"/>
        <path d="M257.519,165.454C257.519,163.671 254.895,162.226 251.658,162.226C248.421,162.226 245.798,163.671 245.798,165.454C245.798,167.236 248.421,168.681 251.658,168.681C254.895,168.681 257.519,167.236 257.519,165.454Z" style="fill:rgb(56,98,102);fill-rule:nonzero;"/>
        <rect x="242.436" y="167.57" width="18.445" height="15.961" style="fill:rgb(212,224,234);fill-rule:nonzero;"/>
        <path d="M242.436,181.232L260.881,183.531L242.436,183.531L242.436,181.232Z" style="fill:rgb(199,213,219);fill-rule:nonzero;"/>
        <path d="M240.546,187.756L262.804,190.021L240.546,190.021L240.546,187.756Z" style="fill:rgb(199,213,219);fill-rule:nonzero;"/>
        <rect x="244.398" y="165.501" width="14.52" height="2.069" style="fill:rgb(119,153,167);fill-rule:nonzero;"/>
        <rect x="239.551" y="190.021" width="24.214" height="14.628" style="fill:rgb(212,224,234);fill-rule:nonzero;"/>
        <rect x="242.436" y="167.57" width="1.962" height="2.693" style="fill:rgb(119,153,167);fill-rule:nonzero;"/>
        <path d="M239.551,202.036L263.765,204.649L239.535,204.649L239.551,202.036Z" style="fill:rgb(199,213,219);fill-rule:nonzero;"/>
        <rect x="258.918" y="167.57" width="1.963" height="2.693" style="fill:rgb(119,153,167);fill-rule:nonzero;"/>
        <rect x="244.398" y="167.57" width="0.225" height="37.079" style="fill:rgb(166,188,197);fill-rule:nonzero;"/>
        <rect x="243.417" y="170.258" width="0.225" height="34.391" style="fill:rgb(166,188,197);fill-rule:nonzero;"/>
        <rect x="242.436" y="170.261" width="0.225" height="34.388" style="fill:rgb(166,188,197);fill-rule:nonzero;"/>
        <rect x="241.454" y="183.552" width="0.225" height="21.097" style="fill:rgb(166,188,197);fill-rule:nonzero;"/>
        <rect x="240.473" y="183.552" width="0.225" height="21.097" style="fill:rgb(166,188,197);fill-rule:nonzero;"/>
        <rect x="259.635" y="170.258" width="0.224" height="34.391" style="fill:rgb(166,188,197);fill-rule:nonzero;"/>
        <rect x="260.616" y="170.261" width="0.225" height="34.388" style="fill:rgb(166,188,197);fill-rule:nonzero;"/>
        <rect x="261.596" y="183.552" width="0.225" height="21.097" style="fill:rgb(166,188,197);fill-rule:nonzero;"/>
        <rect x="262.579" y="183.552" width="0.225" height="21.097" style="fill:rgb(166,188,197);fill-rule:nonzero;"/>
        <rect x="245.293" y="167.57" width="0.225" height="37.079" style="fill:rgb(166,188,197);fill-rule:nonzero;"/>
        <rect x="246.188" y="167.57" width="0.225" height="37.079" style="fill:rgb(166,188,197);fill-rule:nonzero;"/>
        <rect x="247.083" y="167.57" width="0.225" height="37.079" style="fill:rgb(166,188,197);fill-rule:nonzero;"/>
        <rect x="247.979" y="167.57" width="0.224" height="37.079" style="fill:rgb(166,188,197);fill-rule:nonzero;"/>
        <rect x="248.874" y="167.57" width="0.225" height="37.079" style="fill:rgb(166,188,197);fill-rule:nonzero;"/>
        <rect x="249.769" y="167.57" width="0.225" height="37.079" style="fill:rgb(166,188,197);fill-rule:nonzero;"/>
        <rect x="250.664" y="167.57" width="0.225" height="37.079" style="fill:rgb(166,188,197);fill-rule:nonzero;"/>
        <rect x="251.559" y="167.57" width="0.225" height="37.079" style="fill:rgb(166,188,197);fill-rule:nonzero;"/>
        <rect x="252.454" y="167.57" width="0.225" height="37.079" style="fill:rgb(166,188,197);fill-rule:nonzero;"/>
        <rect x="253.35" y="167.57" width="0.225" height="37.079" style="fill:rgb(166,188,197);fill-rule:nonzero;"/>
        <rect x="254.245" y="167.57" width="0.225" height="37.079" style="fill:rgb(166,188,197);fill-rule:nonzero;"/>
        <rect x="255.14" y="167.57" width="0.225" height="37.079" style="fill:rgb(166,188,197);fill-rule:nonzero;"/>
        <rect x="256.035" y="167.57" width="0.225" height="37.079" style="fill:rgb(166,188,197);fill-rule:nonzero;"/>
        <rect x="256.93" y="167.57" width="0.225" height="37.079" style="fill:rgb(166,188,197);fill-rule:nonzero;"/>
        <rect x="257.825" y="167.57" width="0.224" height="37.079" style="fill:rgb(166,188,197);fill-rule:nonzero;"/>
        <rect x="258.721" y="167.57" width="0.225" height="37.079" style="fill:rgb(166,188,197);fill-rule:nonzero;"/>
        <path d="M260.881,183.531L260.881,167.57L258.918,167.57L258.918,165.501L258.918,167.57L260.881,167.57L260.881,183.531Z" style="fill:rgb(94,133,137);"/>
        <path d="M262.579,189.998L261.821,189.921L261.821,183.552L261.596,183.552L261.596,189.898L260.841,189.821L260.841,183.531L262.804,183.531L262.804,183.552L262.579,183.552L262.579,189.998ZM258.721,189.605L258.049,189.537L258.049,183.531L258.721,183.531L258.721,189.605ZM257.825,189.514L257.155,189.446L257.155,183.531L257.825,183.531L257.825,189.514ZM256.93,189.423L256.26,189.355L256.26,183.531L256.93,183.531L256.93,189.423ZM256.035,189.332L255.365,189.264L255.365,183.531L256.035,183.531L256.035,189.332ZM255.14,189.241L254.47,189.173L254.47,183.531L255.14,183.531L255.14,189.241ZM254.245,189.15L253.575,189.082L253.575,183.531L254.245,183.531L254.245,189.15ZM253.35,189.059L252.679,188.991L252.679,183.531L253.35,183.531L253.35,189.059ZM252.454,188.968L251.784,188.899L251.784,183.531L252.454,183.531L252.454,188.968ZM251.559,188.877L250.889,188.808L250.889,183.531L251.559,183.531L251.559,188.877ZM250.664,188.786L249.994,188.717L249.994,183.531L250.664,183.531L250.664,188.786ZM249.769,188.694L249.099,188.626L249.099,183.531L249.769,183.531L249.769,188.694Z" style="fill:rgb(220,230,238);fill-rule:nonzero;"/>
        <path d="M260.881,183.531L260.841,183.526L260.841,170.263L260.881,170.263L260.881,183.531ZM258.721,183.262L258.049,183.178L258.049,167.57L257.825,167.57L257.825,183.15L257.155,183.067L257.155,167.57L256.93,167.57L256.93,183.039L256.26,182.955L256.26,167.57L256.035,167.57L256.035,182.927L255.365,182.844L255.365,167.57L255.14,167.57L255.14,182.815L254.47,182.732L254.47,167.57L254.245,167.57L254.245,182.704L253.575,182.62L253.575,167.57L253.35,167.57L253.35,182.592L252.679,182.509L252.679,167.57L252.454,167.57L252.454,182.481L251.784,182.397L251.784,167.57L251.559,167.57L251.559,182.369L250.889,182.286L250.889,167.57L250.664,167.57L250.664,182.258L249.994,182.174L249.994,167.57L249.769,167.57L249.769,182.146L249.099,182.062L249.099,167.57L260.881,167.57L258.721,167.57L258.721,183.262Z" style="fill:rgb(220,230,238);fill-rule:nonzero;"/>
        <path d="M260.881,183.531L260.841,183.531L260.841,183.526L260.881,183.531ZM258.721,183.531L258.049,183.531L258.049,183.178L258.721,183.262L258.721,183.531ZM257.825,183.531L257.155,183.531L257.155,183.067L257.825,183.15L257.825,183.531ZM256.93,183.531L256.26,183.531L256.26,182.955L256.93,183.039L256.93,183.531ZM256.035,183.531L255.365,183.531L255.365,182.844L256.035,182.927L256.035,183.531ZM255.14,183.531L254.47,183.531L254.47,182.732L255.14,182.815L255.14,183.531ZM254.245,183.531L253.575,183.531L253.575,182.62L254.245,182.704L254.245,183.531ZM253.35,183.531L252.679,183.531L252.679,182.509L253.35,182.592L253.35,183.531ZM252.454,183.531L251.784,183.531L251.784,182.397L252.454,182.481L252.454,183.531ZM251.559,183.531L250.889,183.531L250.889,182.286L251.559,182.369L251.559,183.531ZM250.664,183.531L249.994,183.531L249.994,182.174L250.664,182.258L250.664,183.531ZM249.769,183.531L249.099,183.531L249.099,182.062L249.769,182.146L249.769,183.531Z" style="fill:rgb(209,221,226);fill-rule:nonzero;"/>
        <path d="M262.579,190.021L261.821,190.021L261.821,189.921L262.579,189.998L262.579,190.021ZM261.596,190.021L260.841,190.021L260.841,189.821L261.596,189.898L261.596,190.021ZM258.721,190.021L258.049,190.021L258.049,189.537L258.721,189.605L258.721,190.021ZM257.825,190.021L257.155,190.021L257.155,189.446L257.825,189.514L257.825,190.021ZM256.93,190.021L256.26,190.021L256.26,189.355L256.93,189.423L256.93,190.021ZM256.035,190.021L255.365,190.021L255.365,189.264L256.035,189.332L256.035,190.021ZM255.14,190.021L254.47,190.021L254.47,189.173L255.14,189.241L255.14,190.021ZM254.245,190.021L253.575,190.021L253.575,189.082L254.245,189.15L254.245,190.021ZM253.35,190.021L252.679,190.021L252.679,188.991L253.35,189.059L253.35,190.021ZM252.454,190.021L251.784,190.021L251.784,188.899L252.454,188.968L252.454,190.021ZM251.559,190.021L250.889,190.021L250.889,188.808L251.559,188.877L251.559,190.021ZM250.664,190.021L249.994,190.021L249.994,188.717L250.664,188.786L250.664,190.021ZM249.769,190.021L249.099,190.021L249.099,188.626L249.769,188.694L249.769,190.021Z" style="fill:rgb(209,221,226);fill-rule:nonzero;"/>
        <path d="M258.918,167.57L249.099,167.57L249.099,167.429C249.573,166.755 250.121,166.111 250.755,165.501L258.918,165.501L258.918,167.57Z" style="fill:rgb(140,171,183);fill-rule:nonzero;"/>
        <path d="M263.765,200.764C263.441,200.71 263.12,200.65 262.804,200.584L262.804,190.021L263.765,190.021L263.765,200.764ZM262.579,200.536C262.324,200.481 262.071,200.422 261.821,200.359L261.821,190.021L262.579,190.021L262.579,200.536ZM261.596,200.301C261.342,200.235 261.09,200.164 260.841,200.089L260.841,190.021L261.596,190.021L261.596,200.301ZM258.721,199.338C258.493,199.245 258.271,199.148 258.049,199.048L258.049,190.021L258.721,190.021L258.721,199.338ZM257.825,198.944C257.599,198.838 257.376,198.729 257.155,198.616L257.155,190.021L257.825,190.021L257.825,198.944ZM256.93,198.499C256.704,198.38 256.48,198.256 256.26,198.13L256.26,190.021L256.93,190.021L256.93,198.499ZM256.035,197.998C255.808,197.863 255.585,197.725 255.365,197.583L255.365,190.021L256.035,190.021L256.035,197.998ZM255.14,197.435C254.913,197.283 254.689,197.127 254.47,196.968L254.47,190.021L255.14,190.021L255.14,197.435ZM254.245,196.802C254.017,196.631 253.794,196.456 253.575,196.277L253.575,190.021L254.245,190.021L254.245,196.802ZM253.35,196.09C253.121,195.896 252.898,195.699 252.679,195.497L252.679,190.021L253.35,190.021L253.35,196.09ZM252.454,195.285C252.225,195.066 252.002,194.842 251.784,194.612L251.784,190.021L252.454,190.021L252.454,195.285ZM251.559,194.371C251.329,194.12 251.105,193.863 250.889,193.601L250.889,190.021L251.559,190.021L251.559,194.371ZM250.664,193.323C250.432,193.031 250.208,192.733 249.994,192.428L249.994,190.021L250.664,190.021L250.664,193.323ZM249.769,192.103C249.534,191.756 249.311,191.402 249.099,191.04L249.099,190.021L249.769,190.021L249.769,192.103Z" style="fill:rgb(220,230,238);fill-rule:nonzero;"/>
        <path d="M260.616,189.798L259.859,189.721L259.859,183.531L260.616,183.531L260.616,189.798Z" style="fill:rgb(220,230,238);fill-rule:nonzero;"/>
        <path d="M260.616,183.498L259.859,183.404L259.859,170.263L260.616,170.263L260.616,183.498Z" style="fill:rgb(220,230,238);fill-rule:nonzero;"/>
        <path d="M260.616,183.531L259.859,183.531L259.859,183.404L260.616,183.498L260.616,183.531Z" style="fill:rgb(209,221,226);fill-rule:nonzero;"/>
        <path d="M260.616,190.021L259.859,190.021L259.859,189.721L260.616,189.798L260.616,190.021Z" style="fill:rgb(209,221,226);fill-rule:nonzero;"/>
        <path d="M260.616,200.021C260.361,199.942 260.109,199.859 259.859,199.772L259.859,190.021L260.616,190.021L260.616,200.021Z" style="fill:rgb(220,230,238);fill-rule:nonzero;"/>
        <path d="M259.635,189.698L258.946,189.628L258.946,183.531L259.635,183.531L259.635,189.698Z" style="fill:rgb(220,230,238);fill-rule:nonzero;"/>
        <path d="M259.635,183.376L258.946,183.29L258.946,170.263L259.635,170.263L259.635,183.376Z" style="fill:rgb(220,230,238);fill-rule:nonzero;"/>
        <path d="M259.635,183.531L258.946,183.531L258.946,183.29L259.635,183.376L259.635,183.531Z" style="fill:rgb(209,221,226);fill-rule:nonzero;"/>
        <path d="M259.635,190.021L258.946,190.021L258.946,189.628L259.635,189.698L259.635,190.021Z" style="fill:rgb(209,221,226);fill-rule:nonzero;"/>
        <path d="M259.635,199.692C259.402,199.608 259.173,199.52 258.946,199.429L258.946,190.021L259.635,190.021L259.635,199.692Z" style="fill:rgb(220,230,238);fill-rule:nonzero;"/>
        <path d="M260.881,170.263L260.841,170.263L260.841,170.261L260.616,170.261L260.616,170.263L259.859,170.263L259.859,170.258L259.635,170.258L259.635,170.263L258.946,170.263L258.946,167.57L258.918,167.57L260.881,167.57L260.881,170.263Z" style="fill:rgb(140,171,183);fill-rule:nonzero;"/>
        <path d="M259.859,199.772C259.785,199.746 259.709,199.719 259.635,199.692L259.635,170.258L259.859,170.258L259.859,199.772Z" style="fill:rgb(181,201,208);fill-rule:nonzero;"/>
        <path d="M260.841,200.089C260.765,200.067 260.691,200.044 260.616,200.021L260.616,170.261L260.841,170.261L260.841,200.089Z" style="fill:rgb(181,201,208);fill-rule:nonzero;"/>
        <path d="M261.821,200.359C261.747,200.34 261.672,200.321 261.596,200.301L261.596,183.552L261.821,183.552L261.821,200.359Z" style="fill:rgb(181,201,208);fill-rule:nonzero;"/>
        <path d="M262.804,200.584C262.728,200.569 262.654,200.553 262.579,200.536L262.579,183.552L262.804,183.552L262.804,200.584Z" style="fill:rgb(181,201,208);fill-rule:nonzero;"/>
        <path d="M249.994,192.428C249.918,192.321 249.843,192.212 249.769,192.103L249.769,167.57L249.994,167.57L249.994,192.428Z" style="fill:rgb(181,201,208);fill-rule:nonzero;"/>
        <path d="M250.889,193.601C250.813,193.509 250.738,193.416 250.664,193.323L250.664,167.57L250.889,167.57L250.889,193.601Z" style="fill:rgb(181,201,208);fill-rule:nonzero;"/>
        <path d="M251.784,194.612C251.708,194.532 251.634,194.452 251.559,194.371L251.559,167.57L251.784,167.57L251.784,194.612Z" style="fill:rgb(181,201,208);fill-rule:nonzero;"/>
        <path d="M252.679,195.497C252.604,195.427 252.529,195.356 252.454,195.285L252.454,167.57L252.679,167.57L252.679,195.497Z" style="fill:rgb(181,201,208);fill-rule:nonzero;"/>
        <path d="M253.575,196.277C253.499,196.215 253.424,196.152 253.35,196.09L253.35,167.57L253.575,167.57L253.575,196.277Z" style="fill:rgb(181,201,208);fill-rule:nonzero;"/>
        <path d="M254.47,196.968C254.394,196.913 254.319,196.858 254.245,196.802L254.245,167.57L254.47,167.57L254.47,196.968Z" style="fill:rgb(181,201,208);fill-rule:nonzero;"/>
        <path d="M255.365,197.583C255.29,197.534 255.214,197.484 255.14,197.435L255.14,167.57L255.365,167.57L255.365,197.583Z" style="fill:rgb(181,201,208);fill-rule:nonzero;"/>
        <path d="M256.26,198.13C256.183,198.086 256.109,198.042 256.035,197.998L256.035,167.57L256.26,167.57L256.26,198.13Z" style="fill:rgb(181,201,208);fill-rule:nonzero;"/>
        <path d="M257.155,198.616C257.079,198.577 257.005,198.539 256.93,198.499L256.93,167.57L257.155,167.57L257.155,198.616Z" style="fill:rgb(181,201,208);fill-rule:nonzero;"/>
        <path d="M258.049,199.048C257.975,199.014 257.9,198.979 257.825,198.944L257.825,167.57L258.049,167.57L258.049,199.048Z" style="fill:rgb(181,201,208);fill-rule:nonzero;"/>
        <path d="M258.946,199.429C258.871,199.4 258.795,199.369 258.721,199.338L258.721,167.57L258.946,167.57L258.946,199.429Z" style="fill:rgb(181,201,208);fill-rule:nonzero;"/>
        <path d="M247.837,188.498L247.308,188.444L247.308,187.07C247.468,187.555 247.644,188.031 247.837,188.498ZM247.083,188.421L246.413,188.353L246.413,183.531L246.461,183.531C246.61,184.493 246.818,185.433 247.083,186.345L247.083,188.421ZM246.188,188.33L245.518,188.262L245.518,183.531L246.188,183.531L246.188,188.33ZM245.293,188.239L244.623,188.171L244.623,183.531L245.293,183.531L245.293,188.239ZM244.398,188.148L243.642,188.071L243.642,183.531L244.398,183.531L244.398,188.148ZM243.417,188.048L243.343,188.041L243.343,186.491L242.698,186.491L242.698,184.065L243.417,184.065L243.417,188.048Z" style="fill:rgb(208,204,189);fill-rule:nonzero;"/>
        <path d="M246.188,181.7L245.518,181.616L245.518,167.57L245.293,167.57L245.293,181.588L244.623,181.504L244.623,167.57L244.398,167.57L249,167.57L248.874,167.57L248.874,167.759C248.629,168.13 248.407,168.509 248.203,168.897L248.203,167.57L247.979,167.57L247.979,169.347C247.721,169.885 247.499,170.438 247.308,171.005L247.308,167.57L247.083,167.57L247.083,171.727C246.763,172.845 246.55,174.012 246.413,175.218L246.413,167.57L246.188,167.57L246.188,181.7ZM244.398,181.476L243.642,181.382L243.642,170.263L244.398,170.263L244.398,167.57L244.398,181.476ZM243.417,181.354L242.661,181.26L242.661,170.263L243.417,170.263L243.417,181.354Z" style="fill:rgb(208,204,189);fill-rule:nonzero;"/>
        <path d="M246.461,183.531L246.413,183.531L246.413,183.202C246.428,183.312 246.445,183.422 246.461,183.531ZM246.188,183.531L245.518,183.531L245.518,181.616L246.188,181.7L246.188,183.531ZM245.293,183.531L244.623,183.531L244.623,181.504L245.293,181.588L245.293,183.531ZM244.398,183.531L243.642,183.531L243.642,181.382L244.398,181.476L244.398,183.531ZM243.417,182.977L242.661,182.977L242.661,181.26L243.417,181.354L243.417,182.977Z" style="fill:rgb(195,194,176);fill-rule:nonzero;"/>
        <path d="M248.539,190.021L248.203,190.021L248.203,189.333C248.311,189.565 248.423,189.794 248.539,190.021ZM247.979,190.021L247.308,190.021L247.308,188.444L247.837,188.498C247.883,188.61 247.93,188.721 247.979,188.832L247.979,190.021ZM247.083,190.021L246.413,190.021L246.413,188.353L247.083,188.421L247.083,190.021ZM246.188,190.021L245.518,190.021L245.518,188.262L246.188,188.33L246.188,190.021ZM245.293,190.021L244.799,190.021L244.799,189.42L244.623,189.42L244.623,188.171L245.293,188.239L245.293,190.021ZM244.398,189.42L243.642,189.42L243.642,188.071L244.398,188.148L244.398,189.42ZM243.417,189.42L243.343,189.42L243.343,188.041L243.417,188.048L243.417,189.42Z" style="fill:rgb(195,194,176);fill-rule:nonzero;"/>
        <path d="M249,167.57L244.398,167.57L244.398,165.501L249.099,165.501L249.099,167.429C249.065,167.476 249.033,167.523 249,167.57Z" style="fill:rgb(117,139,135);fill-rule:nonzero;"/>
        <path d="M248.874,203.042L248.203,202.969L248.203,190.021L248.539,190.021C248.647,190.231 248.759,190.44 248.874,190.647L248.874,203.042ZM247.979,202.945L247.308,202.873L247.308,190.021L247.979,190.021L247.979,202.945ZM247.083,202.848L246.413,202.776L246.413,190.021L247.083,190.021L247.083,202.848ZM246.188,202.752L245.518,202.679L245.518,190.021L246.188,190.021L246.188,202.752ZM245.293,202.655L244.799,202.602L244.799,190.021L245.293,190.021L245.293,202.655Z" style="fill:rgb(208,204,189);fill-rule:nonzero;"/>
        <path d="M244.398,170.263L243.642,170.263L243.642,170.258L243.417,170.258L243.417,170.263L242.661,170.263L242.661,170.261L242.436,170.261L242.436,167.57L244.398,167.57L244.398,170.263Z" style="fill:rgb(117,139,135);fill-rule:nonzero;"/>
        <path d="M249.099,204.649L249.099,203.066L249.099,204.649ZM248.874,204.649L248.203,204.649L248.203,202.969L248.874,203.042L248.874,204.649ZM247.979,204.649L247.308,204.649L247.308,202.873L247.979,202.945L247.979,204.649ZM247.083,204.649L246.413,204.649L246.413,202.776L247.083,202.848L247.083,204.649ZM246.188,204.649L245.518,204.649L245.518,202.679L246.188,202.752L246.188,204.649ZM245.293,204.649L244.799,204.649L244.799,202.602L245.293,202.655L245.293,204.649Z" style="fill:rgb(195,194,176);fill-rule:nonzero;"/>
        <rect x="244.398" y="167.57" width="0.225" height="21.85" style="fill:rgb(163,171,159);fill-rule:nonzero;"/>
        <path d="M243.642,189.42L243.417,189.42L243.417,184.065L243.492,184.065L243.492,182.977L243.417,182.977L243.417,170.258L243.642,170.258L243.642,189.42Z" style="fill:rgb(163,171,159);fill-rule:nonzero;"/>
        <rect x="242.436" y="170.261" width="0.225" height="12.716" style="fill:rgb(163,171,159);fill-rule:nonzero;"/>
        <rect x="245.293" y="167.57" width="0.225" height="37.079" style="fill:rgb(163,171,159);fill-rule:nonzero;"/>
        <path d="M246.413,204.649L246.188,204.649L246.188,167.57L246.413,167.57L246.413,175.218C246.241,176.729 246.188,178.302 246.188,179.919C246.188,181.036 246.264,182.132 246.413,183.202L246.413,204.649Z" style="fill:rgb(163,171,159);fill-rule:nonzero;"/>
        <path d="M247.308,204.649L247.083,204.649L247.083,186.345C247.154,186.589 247.229,186.831 247.308,187.07L247.308,204.649ZM247.083,171.727L247.083,167.57L247.308,167.57L247.308,171.005C247.228,171.243 247.153,171.483 247.083,171.727Z" style="fill:rgb(163,171,159);fill-rule:nonzero;"/>
        <path d="M248.203,204.649L247.979,204.649L247.979,188.832C248.051,189 248.126,189.167 248.203,189.333L248.203,204.649ZM247.979,169.347L247.979,167.57L248.203,167.57L248.203,168.897C248.126,169.046 248.051,169.196 247.979,169.347Z" style="fill:rgb(163,171,159);fill-rule:nonzero;"/>
        <path d="M249.099,204.649L248.874,204.649L248.874,190.647C248.947,190.779 249.022,190.91 249.099,191.04L249.099,204.649ZM248.874,167.759L248.874,167.57L249,167.57C248.958,167.633 248.915,167.696 248.874,167.759Z" style="fill:rgb(163,171,159);fill-rule:nonzero;"/>
        <path d="M249.099,167.57L249,167.57C249.033,167.523 249.065,167.476 249.099,167.429L249.099,167.57Z" style="fill:rgb(137,156,147);fill-rule:nonzero;"/>
        <path d="M248.874,188.603L248.203,188.535L248.203,183.531L248.874,183.531L248.874,188.603Z" style="fill:rgb(215,209,192);fill-rule:nonzero;"/>
        <path d="M248.874,182.034L248.203,181.951L248.203,168.897C248.407,168.509 248.629,168.13 248.874,167.759L248.874,182.034Z" style="fill:rgb(215,209,192);fill-rule:nonzero;"/>
        <path d="M248.874,183.531L248.203,183.531L248.203,181.951L248.874,182.034L248.874,183.531Z" style="fill:rgb(205,201,182);fill-rule:nonzero;"/>
        <path d="M248.874,190.021L248.539,190.021C248.423,189.794 248.311,189.565 248.203,189.333L248.203,188.535L248.874,188.603L248.874,190.021Z" style="fill:rgb(205,201,182);fill-rule:nonzero;"/>
        <path d="M248.874,190.647C248.759,190.44 248.647,190.231 248.539,190.021L248.874,190.021L248.874,190.647Z" style="fill:rgb(215,209,192);fill-rule:nonzero;"/>
        <path d="M247.979,188.512L247.837,188.498C247.644,188.031 247.468,187.555 247.308,187.07L247.308,183.531L247.979,183.531L247.979,188.512Z" style="fill:rgb(215,209,192);fill-rule:nonzero;"/>
        <path d="M247.979,181.923L247.308,181.839L247.308,171.005C247.499,170.438 247.721,169.885 247.979,169.347L247.979,181.923Z" style="fill:rgb(215,209,192);fill-rule:nonzero;"/>
        <path d="M247.979,183.531L247.308,183.531L247.308,181.839L247.979,181.923L247.979,183.531Z" style="fill:rgb(205,201,182);fill-rule:nonzero;"/>
        <path d="M247.979,188.832C247.93,188.721 247.883,188.61 247.837,188.498L247.979,188.512L247.979,188.832Z" style="fill:rgb(205,201,182);fill-rule:nonzero;"/>
        <path d="M247.083,186.345C246.818,185.433 246.61,184.493 246.461,183.531L247.083,183.531L247.083,186.345Z" style="fill:rgb(215,209,192);fill-rule:nonzero;"/>
        <path d="M247.083,181.811L246.413,181.728L246.413,175.218C246.55,174.012 246.763,172.845 247.083,171.727L247.083,181.811Z" style="fill:rgb(215,209,192);fill-rule:nonzero;"/>
        <path d="M247.083,183.531L246.461,183.531C246.445,183.422 246.428,183.312 246.413,183.202L246.413,181.728L247.083,181.811L247.083,183.531Z" style="fill:rgb(205,201,182);fill-rule:nonzero;"/>
        <path d="M246.413,183.202C246.264,182.132 246.188,181.036 246.188,179.919C246.188,178.302 246.241,176.729 246.413,175.218L246.413,183.202Z" style="fill:rgb(177,183,168);fill-rule:nonzero;"/>
        <path d="M247.308,187.07C247.229,186.831 247.154,186.589 247.083,186.345L247.083,171.727C247.153,171.483 247.228,171.243 247.308,171.005L247.308,187.07Z" style="fill:rgb(177,183,168);fill-rule:nonzero;"/>
        <path d="M248.203,189.333C248.126,189.167 248.051,189 247.979,188.832L247.979,169.347C248.051,169.196 248.126,169.046 248.203,168.897L248.203,189.333Z" style="fill:rgb(177,183,168);fill-rule:nonzero;"/>
        <path d="M249.099,191.04C249.022,190.91 248.947,190.779 248.874,190.647L248.874,167.759C248.915,167.696 248.958,167.633 249,167.57L249.099,167.57L249.099,191.04Z" style="fill:rgb(177,183,168);fill-rule:nonzero;"/>
        <path d="M293.847,204.649L297.469,204.649L297.469,167.601L293.847,170.466L293.847,204.649Z" style="fill:rgb(151,177,187);fill-rule:nonzero;"/>
        <path d="M297.469,204.649L304.715,204.649L304.715,170.466L297.469,167.601L297.469,204.649Z" style="fill:rgb(201,216,229);fill-rule:nonzero;"/>
        <path d="M293.847,204.649L297.469,167.601L297.469,204.649L293.847,204.649Z" style="fill:rgb(119,153,167);fill-rule:nonzero;"/>
        <path d="M304.715,204.649L297.469,167.601L304.715,170.466L304.715,204.649Z" style="fill:rgb(207,221,233);fill-rule:nonzero;"/>
        <rect x="230.875" y="146.829" width="10.054" height="7.81" style="fill:rgb(224,159,71);fill-rule:nonzero;"/>
        <rect x="231.5" y="144.375" width="8.804" height="2.615" style="fill:rgb(224,159,71);fill-rule:nonzero;"/>
        <rect x="232.066" y="142.032" width="7.672" height="2.343" style="fill:rgb(224,159,71);fill-rule:nonzero;"/>
        <rect x="232.628" y="139.689" width="6.548" height="2.343" style="fill:rgb(224,159,71);fill-rule:nonzero;"/>
        <rect x="233.223" y="137.346" width="5.358" height="2.343" style="fill:rgb(224,159,71);fill-rule:nonzero;"/>
        <rect x="233.951" y="135.003" width="3.902" height="2.343" style="fill:rgb(224,159,71);fill-rule:nonzero;"/>
        <path d="M232.097,154.639L230.875,154.639L230.875,146.829L231.5,146.829L231.5,146.99L232.209,146.99C232.136,147.271 232.097,147.566 232.097,147.869L232.097,154.639Z" style="fill:rgb(181,127,79);fill-rule:nonzero;"/>
        <path d="M232.209,146.99L231.5,146.99L231.5,146.829L232.256,146.829C232.239,146.882 232.224,146.935 232.209,146.99Z" style="fill:rgb(181,127,79);fill-rule:nonzero;"/>
        <path d="M232.256,146.828L231.5,146.828L231.5,144.375L232.738,144.375C232.65,144.658 232.602,144.959 232.602,145.27L232.602,146.064C232.458,146.302 232.341,146.558 232.256,146.828Z" style="fill:rgb(181,127,79);fill-rule:nonzero;"/>
        <path d="M232.738,144.375L232.066,144.375L232.066,142.032L236.013,142.032L236.013,142.24L235.633,142.24C234.277,142.24 233.122,143.142 232.738,144.375Z" style="fill:rgb(181,127,79);fill-rule:nonzero;"/>
        <path d="M236.013,142.032L232.628,142.032L232.628,139.689L234.542,139.689L234.542,140.741C234.542,141.428 235.104,141.99 235.791,141.99L236.013,141.99L236.013,142.032Z" style="fill:rgb(181,127,79);fill-rule:nonzero;"/>
        <rect x="233.223" y="137.346" width="1.319" height="2.343" style="fill:rgb(181,127,79);fill-rule:nonzero;"/>
        <path d="M234.542,137.346L233.951,137.346L233.951,135.003L235.665,135.003L235.665,135.135C235.037,135.199 234.542,135.733 234.542,136.377L234.542,137.346Z" style="fill:rgb(181,127,79);fill-rule:nonzero;"/>
        <path d="M236.013,141.99L235.791,141.99C235.104,141.99 234.542,141.428 234.542,140.741L234.542,136.377C234.542,135.691 235.104,135.129 235.791,135.129L236.013,135.129C236.7,135.129 237.262,135.691 237.262,136.377L237.262,140.741C237.262,141.428 236.7,141.99 236.013,141.99Z" style="fill:rgb(238,179,91);fill-rule:nonzero;"/>
        <rect x="234.579" y="132.66" width="2.646" height="2.343" style="fill:rgb(224,159,71);fill-rule:nonzero;"/>
        <rect x="235.174" y="130.317" width="1.456" height="2.343" style="fill:rgb(224,159,71);fill-rule:nonzero;"/>
        <path d="M236.081,148.747L235.723,148.747C234.613,148.747 233.705,147.839 233.705,146.729L233.705,139.677C233.705,138.568 234.613,137.66 235.723,137.66L236.081,137.66C237.191,137.66 238.099,138.568 238.099,139.677L238.099,146.729C238.099,147.839 237.191,148.747 236.081,148.747Z" style="fill:rgb(224,159,71);fill-rule:nonzero;"/>
        <path d="M236.081,149.019L235.723,149.019C234.613,149.019 233.705,148.111 233.705,147.001L233.705,139.949C233.705,138.84 234.613,137.932 235.723,137.932L236.081,137.932C237.191,137.932 238.099,138.84 238.099,139.949L238.099,147.001C238.099,148.111 237.191,149.019 236.081,149.019Z" style="fill:rgb(238,179,91);fill-rule:nonzero;"/>
        <path d="M236.128,153.906L235.675,153.906C234.274,153.906 233.127,152.759 233.127,151.358L233.127,142.452C233.127,141.051 234.274,139.904 235.675,139.904L236.128,139.904C237.53,139.904 238.677,141.051 238.677,142.452L238.677,151.358C238.677,152.759 237.53,153.906 236.128,153.906Z" style="fill:rgb(224,159,71);fill-rule:nonzero;"/>
        <path d="M236.128,154.154L235.675,154.154C234.274,154.154 233.127,153.008 233.127,151.606L233.127,142.701C233.127,141.299 234.274,140.153 235.675,140.153L236.128,140.153C237.53,140.153 238.677,141.299 238.677,142.701L238.677,151.606C238.677,153.008 237.53,154.154 236.128,154.154Z" style="fill:rgb(238,179,91);fill-rule:nonzero;"/>
        <path d="M236.171,158.891L235.633,158.891C233.966,158.891 232.602,157.528 232.602,155.861L232.602,145.27C232.602,143.604 233.966,142.24 235.633,142.24L236.171,142.24C237.838,142.24 239.202,143.604 239.202,145.27L239.202,155.861C239.202,157.528 237.838,158.891 236.171,158.891Z" style="fill:rgb(224,159,71);fill-rule:nonzero;"/>
        <path d="M236.171,159.156L235.633,159.156C233.966,159.156 232.602,157.793 232.602,156.126L232.602,145.535C232.602,143.869 233.966,142.505 235.633,142.505L236.171,142.505C237.838,142.505 239.202,143.869 239.202,145.535L239.202,156.126C239.202,157.793 237.838,159.156 236.171,159.156Z" style="fill:rgb(238,179,91);fill-rule:nonzero;"/>
        <path d="M236.213,163.578L235.591,163.578C233.669,163.578 232.097,162.005 232.097,160.083L232.097,147.869C232.097,145.947 233.669,144.375 235.591,144.375L236.213,144.375C238.135,144.375 239.707,145.947 239.707,147.869L239.707,160.083C239.707,162.005 238.135,163.578 236.213,163.578Z" style="fill:rgb(224,159,71);fill-rule:nonzero;"/>
        <path d="M236.213,163.829L235.591,163.829C233.669,163.829 232.097,162.257 232.097,160.334L232.097,148.12C232.097,146.198 233.669,144.626 235.591,144.626L236.213,144.626C238.135,144.626 239.707,146.198 239.707,148.12L239.707,160.334C239.707,162.257 238.135,163.829 236.213,163.829Z" style="fill:rgb(238,179,91);fill-rule:nonzero;"/>
        <path d="M236.088,160.741L235.716,160.741C234.565,160.741 233.624,159.8 233.624,158.649L233.624,148.226C233.624,147.075 234.565,146.134 235.716,146.134L236.088,146.134C237.239,146.134 238.18,147.075 238.18,148.226L238.18,158.649C238.18,159.8 237.239,160.741 236.088,160.741Z" style="fill:rgb(241,194,123);fill-rule:nonzero;"/>
        <path d="M235.936,157.205L235.799,157.205C235.376,157.205 235.031,156.859 235.031,156.437L235.031,148.811C235.031,148.388 235.376,148.043 235.799,148.043L235.936,148.043C236.358,148.043 236.704,148.388 236.704,148.811L236.704,156.437C236.704,156.859 236.358,157.205 235.936,157.205Z" style="fill:rgb(224,159,71);fill-rule:nonzero;"/>
        <rect x="226.987" y="189.42" width="17.812" height="15.229" style="fill:rgb(224,159,71);fill-rule:nonzero;"/>
        <rect x="228.461" y="186.491" width="14.882" height="3.263" style="fill:rgb(224,159,71);fill-rule:nonzero;"/>
        <rect x="229.106" y="183.897" width="13.592" height="3.347" style="fill:rgb(224,159,71);fill-rule:nonzero;"/>
        <rect x="230.346" y="154.639" width="11.112" height="28.784" style="fill:rgb(224,159,71);fill-rule:nonzero;"/>
        <rect x="229.304" y="154.639" width="13.196" height="0.725" style="fill:rgb(241,194,123);fill-rule:nonzero;"/>
        <rect x="230.875" y="155.612" width="2.086" height="27.33" style="fill:rgb(238,179,91);fill-rule:nonzero;"/>
        <rect x="238.843" y="155.612" width="2.086" height="27.33" style="fill:rgb(238,179,91);fill-rule:nonzero;"/>
        <rect x="233.764" y="155.653" width="1.105" height="27.33" style="fill:rgb(211,131,44);fill-rule:nonzero;"/>
        <rect x="234.622" y="156.218" width="0.247" height="26.759" style="fill:rgb(171,105,58);fill-rule:nonzero;"/>
        <rect x="229.418" y="184.462" width="12.807" height="0.82" style="fill:rgb(211,131,44);fill-rule:nonzero;"/>
        <rect x="229.418" y="184.462" width="12.807" height="0.183" style="fill:rgb(171,105,58);fill-rule:nonzero;"/>
        <rect x="229.418" y="185.672" width="12.807" height="0.819" style="fill:rgb(211,131,44);fill-rule:nonzero;"/>
        <rect x="229.418" y="185.672" width="12.807" height="0.183" style="fill:rgb(171,105,58);fill-rule:nonzero;"/>
        <rect x="228.851" y="186.769" width="14.058" height="0.819" style="fill:rgb(211,131,44);fill-rule:nonzero;"/>
        <rect x="228.851" y="186.769" width="14.058" height="0.183" style="fill:rgb(171,105,58);fill-rule:nonzero;"/>
        <rect x="228.851" y="187.836" width="0.971" height="1.584" style="fill:rgb(211,131,44);fill-rule:nonzero;"/>
        <rect x="228.851" y="187.836" width="0.217" height="1.584" style="fill:rgb(171,105,58);fill-rule:nonzero;"/>
        <rect x="230.303" y="187.836" width="0.972" height="1.584" style="fill:rgb(211,131,44);fill-rule:nonzero;"/>
        <rect x="230.303" y="187.836" width="0.218" height="1.584" style="fill:rgb(171,105,58);fill-rule:nonzero;"/>
        <rect x="231.756" y="187.836" width="0.971" height="1.584" style="fill:rgb(211,131,44);fill-rule:nonzero;"/>
        <rect x="231.756" y="187.836" width="0.217" height="1.584" style="fill:rgb(171,105,58);fill-rule:nonzero;"/>
        <rect x="233.208" y="187.836" width="0.972" height="1.584" style="fill:rgb(211,131,44);fill-rule:nonzero;"/>
        <rect x="233.208" y="187.836" width="0.218" height="1.584" style="fill:rgb(171,105,58);fill-rule:nonzero;"/>
        <rect x="234.661" y="187.836" width="0.972" height="1.584" style="fill:rgb(211,131,44);fill-rule:nonzero;"/>
        <rect x="234.661" y="187.836" width="0.217" height="1.584" style="fill:rgb(171,105,58);fill-rule:nonzero;"/>
        <rect x="236.113" y="187.836" width="0.972" height="1.584" style="fill:rgb(211,131,44);fill-rule:nonzero;"/>
        <rect x="236.113" y="187.836" width="0.218" height="1.584" style="fill:rgb(171,105,58);fill-rule:nonzero;"/>
        <rect x="237.566" y="187.836" width="0.972" height="1.584" style="fill:rgb(211,131,44);fill-rule:nonzero;"/>
        <rect x="237.566" y="187.836" width="0.217" height="1.584" style="fill:rgb(171,105,58);fill-rule:nonzero;"/>
        <rect x="239.018" y="187.836" width="0.972" height="1.584" style="fill:rgb(211,131,44);fill-rule:nonzero;"/>
        <rect x="239.018" y="187.836" width="0.218" height="1.584" style="fill:rgb(171,105,58);fill-rule:nonzero;"/>
        <rect x="240.471" y="187.836" width="0.972" height="1.584" style="fill:rgb(211,131,44);fill-rule:nonzero;"/>
        <rect x="240.471" y="187.836" width="0.217" height="1.584" style="fill:rgb(171,105,58);fill-rule:nonzero;"/>
        <rect x="241.923" y="187.836" width="0.972" height="1.584" style="fill:rgb(211,131,44);fill-rule:nonzero;"/>
        <rect x="241.923" y="187.836" width="0.218" height="1.584" style="fill:rgb(171,105,58);fill-rule:nonzero;"/>
        <rect x="227.37" y="191.059" width="0.972" height="1.036" style="fill:rgb(211,131,44);fill-rule:nonzero;"/>
        <rect x="227.37" y="191.059" width="0.217" height="1.036" style="fill:rgb(171,105,58);fill-rule:nonzero;"/>
        <rect x="228.822" y="191.059" width="0.972" height="1.036" style="fill:rgb(211,131,44);fill-rule:nonzero;"/>
        <rect x="228.822" y="191.059" width="0.218" height="1.036" style="fill:rgb(171,105,58);fill-rule:nonzero;"/>
        <rect x="230.275" y="191.059" width="0.972" height="1.036" style="fill:rgb(211,131,44);fill-rule:nonzero;"/>
        <rect x="230.275" y="191.059" width="0.217" height="1.036" style="fill:rgb(171,105,58);fill-rule:nonzero;"/>
        <rect x="231.727" y="191.059" width="0.972" height="1.036" style="fill:rgb(211,131,44);fill-rule:nonzero;"/>
        <rect x="231.727" y="191.059" width="0.218" height="1.036" style="fill:rgb(171,105,58);fill-rule:nonzero;"/>
        <rect x="233.18" y="191.059" width="0.972" height="1.036" style="fill:rgb(211,131,44);fill-rule:nonzero;"/>
        <rect x="233.18" y="191.059" width="0.218" height="1.036" style="fill:rgb(171,105,58);fill-rule:nonzero;"/>
        <rect x="234.633" y="191.059" width="0.971" height="1.036" style="fill:rgb(211,131,44);fill-rule:nonzero;"/>
        <rect x="234.633" y="191.059" width="0.217" height="1.036" style="fill:rgb(171,105,58);fill-rule:nonzero;"/>
        <rect x="236.085" y="191.059" width="0.972" height="1.036" style="fill:rgb(211,131,44);fill-rule:nonzero;"/>
        <rect x="236.085" y="191.059" width="0.218" height="1.036" style="fill:rgb(171,105,58);fill-rule:nonzero;"/>
        <rect x="237.538" y="191.059" width="0.971" height="1.036" style="fill:rgb(211,131,44);fill-rule:nonzero;"/>
        <rect x="237.538" y="191.059" width="0.217" height="1.036" style="fill:rgb(171,105,58);fill-rule:nonzero;"/>
        <rect x="238.99" y="191.059" width="0.972" height="1.036" style="fill:rgb(211,131,44);fill-rule:nonzero;"/>
        <rect x="238.99" y="191.059" width="0.218" height="1.036" style="fill:rgb(171,105,58);fill-rule:nonzero;"/>
        <rect x="240.443" y="191.059" width="0.972" height="1.036" style="fill:rgb(211,131,44);fill-rule:nonzero;"/>
        <rect x="240.443" y="191.059" width="0.217" height="1.036" style="fill:rgb(171,105,58);fill-rule:nonzero;"/>
        <rect x="241.923" y="191.059" width="0.972" height="1.036" style="fill:rgb(211,131,44);fill-rule:nonzero;"/>
        <rect x="241.923" y="191.059" width="0.218" height="1.036" style="fill:rgb(171,105,58);fill-rule:nonzero;"/>
        <rect x="243.376" y="191.059" width="0.972" height="1.036" style="fill:rgb(211,131,44);fill-rule:nonzero;"/>
        <rect x="243.376" y="191.059" width="0.218" height="1.036" style="fill:rgb(171,105,58);fill-rule:nonzero;"/>
        <rect x="227.39" y="192.845" width="0.972" height="9.99" style="fill:rgb(211,131,44);fill-rule:nonzero;"/>
        <rect x="227.39" y="192.845" width="0.218" height="9.99" style="fill:rgb(171,105,58);fill-rule:nonzero;"/>
        <rect x="228.843" y="192.845" width="0.972" height="9.99" style="fill:rgb(211,131,44);fill-rule:nonzero;"/>
        <rect x="228.843" y="192.845" width="0.217" height="9.99" style="fill:rgb(171,105,58);fill-rule:nonzero;"/>
        <rect x="230.295" y="192.845" width="0.972" height="9.99" style="fill:rgb(211,131,44);fill-rule:nonzero;"/>
        <rect x="230.295" y="192.845" width="0.218" height="9.99" style="fill:rgb(171,105,58);fill-rule:nonzero;"/>
        <rect x="231.748" y="192.845" width="0.972" height="9.99" style="fill:rgb(211,131,44);fill-rule:nonzero;"/>
        <rect x="231.748" y="192.845" width="0.217" height="9.99" style="fill:rgb(171,105,58);fill-rule:nonzero;"/>
        <rect x="233.2" y="192.845" width="0.972" height="9.99" style="fill:rgb(211,131,44);fill-rule:nonzero;"/>
        <rect x="233.2" y="192.845" width="0.218" height="9.99" style="fill:rgb(171,105,58);fill-rule:nonzero;"/>
        <rect x="234.653" y="192.845" width="0.972" height="9.99" style="fill:rgb(211,131,44);fill-rule:nonzero;"/>
        <rect x="234.653" y="192.845" width="0.217" height="9.99" style="fill:rgb(171,105,58);fill-rule:nonzero;"/>
        <rect x="236.106" y="192.845" width="0.971" height="9.99" style="fill:rgb(211,131,44);fill-rule:nonzero;"/>
        <rect x="236.106" y="192.845" width="0.217" height="9.99" style="fill:rgb(171,105,58);fill-rule:nonzero;"/>
        <rect x="237.558" y="192.845" width="0.972" height="9.99" style="fill:rgb(211,131,44);fill-rule:nonzero;"/>
        <rect x="237.558" y="192.845" width="0.218" height="9.99" style="fill:rgb(171,105,58);fill-rule:nonzero;"/>
        <rect x="239.011" y="192.845" width="0.971" height="9.99" style="fill:rgb(211,131,44);fill-rule:nonzero;"/>
        <rect x="239.011" y="192.845" width="0.217" height="9.99" style="fill:rgb(171,105,58);fill-rule:nonzero;"/>
        <rect x="240.463" y="192.845" width="0.972" height="9.99" style="fill:rgb(211,131,44);fill-rule:nonzero;"/>
        <rect x="240.463" y="192.845" width="0.218" height="9.99" style="fill:rgb(171,105,58);fill-rule:nonzero;"/>
        <rect x="241.944" y="192.845" width="0.972" height="9.99" style="fill:rgb(211,131,44);fill-rule:nonzero;"/>
        <rect x="241.944" y="192.845" width="0.217" height="9.99" style="fill:rgb(171,105,58);fill-rule:nonzero;"/>
        <rect x="243.397" y="192.845" width="0.971" height="9.99" style="fill:rgb(211,131,44);fill-rule:nonzero;"/>
        <rect x="243.397" y="192.845" width="0.217" height="9.99" style="fill:rgb(171,105,58);fill-rule:nonzero;"/>
        <rect x="235.419" y="155.653" width="0.966" height="27.33" style="fill:rgb(211,131,44);fill-rule:nonzero;"/>
        <rect x="236.169" y="156.218" width="0.216" height="26.759" style="fill:rgb(171,105,58);fill-rule:nonzero;"/>
        <rect x="236.992" y="155.653" width="0.967" height="27.33" style="fill:rgb(211,131,44);fill-rule:nonzero;"/>
        <rect x="237.743" y="156.218" width="0.216" height="26.759" style="fill:rgb(171,105,58);fill-rule:nonzero;"/>
        <rect x="228.312" y="182.977" width="15.18" height="1.088" style="fill:rgb(238,179,91);fill-rule:nonzero;"/>
        <rect x="234.062" y="153.012" width="0.51" height="1.388" style="fill:rgb(211,131,44);fill-rule:nonzero;"/>
        <rect x="234.062" y="151.236" width="0.51" height="1.388" style="fill:rgb(211,131,44);fill-rule:nonzero;"/>
        <rect x="234.062" y="149.46" width="0.51" height="1.388" style="fill:rgb(211,131,44);fill-rule:nonzero;"/>
        <rect x="237.221" y="153.012" width="0.51" height="1.388" style="fill:rgb(211,131,44);fill-rule:nonzero;"/>
        <rect x="237.221" y="151.236" width="0.51" height="1.388" style="fill:rgb(211,131,44);fill-rule:nonzero;"/>
        <rect x="237.221" y="149.46" width="0.51" height="1.388" style="fill:rgb(211,131,44);fill-rule:nonzero;"/>
        <path d="M230.873,182.942L230.346,182.942L230.346,155.364L241.458,155.364L241.458,156.218L240.929,156.218L240.929,155.612L238.843,155.612L238.843,156.218L237.959,156.218L237.959,155.653L236.992,155.653L236.992,156.218L236.385,156.218L236.385,155.653L235.419,155.653L235.419,156.218L234.869,156.218L234.869,155.653L233.764,155.653L233.764,156.218L232.961,156.218L232.961,155.612L230.875,155.612L230.875,156.218L230.873,156.218L230.873,182.942Z" style="fill:rgb(181,127,79);fill-rule:nonzero;"/>
        <rect x="230.875" y="155.612" width="2.086" height="0.606" style="fill:rgb(192,143,95);fill-rule:nonzero;"/>
        <rect x="238.843" y="155.612" width="2.086" height="0.606" style="fill:rgb(192,143,95);fill-rule:nonzero;"/>
        <path d="M234.622,156.218L233.764,156.218L233.764,155.653L234.869,155.653L234.622,155.653L234.622,156.218Z" style="fill:rgb(171,105,58);fill-rule:nonzero;"/>
        <rect x="234.622" y="155.653" width="0.247" height="0.565" style="fill:rgb(139,84,69);fill-rule:nonzero;"/>
        <path d="M236.169,156.218L235.419,156.218L235.419,155.653L236.385,155.653L236.169,155.653L236.169,156.218Z" style="fill:rgb(171,105,58);fill-rule:nonzero;"/>
        <rect x="236.169" y="155.653" width="0.216" height="0.565" style="fill:rgb(139,84,69);fill-rule:nonzero;"/>
        <path d="M237.743,156.218L236.992,156.218L236.992,155.653L237.959,155.653L237.743,155.653L237.743,156.218Z" style="fill:rgb(171,105,58);fill-rule:nonzero;"/>
        <rect x="237.743" y="155.653" width="0.216" height="0.565" style="fill:rgb(139,84,69);fill-rule:nonzero;"/>
        <path d="M235.51,144.155L235.902,143.375L236.294,144.155L235.51,144.155Z" style="fill:rgb(211,131,44);fill-rule:nonzero;"/>
        <path d="M234.49,144.36L234.622,143.52L235.245,144.184L234.49,144.36Z" style="fill:rgb(211,131,44);fill-rule:nonzero;"/>
        <path d="M233.712,144.737L233.568,144.042L234.26,144.438L233.712,144.737Z" style="fill:rgb(211,131,44);fill-rule:nonzero;"/>
        <path d="M233.19,145.099L233.008,144.611L233.55,144.841L233.19,145.099Z" style="fill:rgb(211,131,44);fill-rule:nonzero;"/>
        <path d="M237.31,144.36L237.178,143.52L236.555,144.184L237.31,144.36Z" style="fill:rgb(211,131,44);fill-rule:nonzero;"/>
        <path d="M238.088,144.737L238.232,144.042L237.54,144.438L238.088,144.737Z" style="fill:rgb(211,131,44);fill-rule:nonzero;"/>
        <path d="M238.61,145.099L238.792,144.611L238.25,144.841L238.61,145.099Z" style="fill:rgb(211,131,44);fill-rule:nonzero;"/>
        <path d="M235.557,142.068L235.902,141.381L236.247,142.068L235.557,142.068Z" style="fill:rgb(211,131,44);fill-rule:nonzero;"/>
        <path d="M234.658,142.249L234.774,141.509L235.323,142.094L234.658,142.249Z" style="fill:rgb(211,131,44);fill-rule:nonzero;"/>
        <path d="M233.972,142.581L233.845,141.968L234.456,142.318L233.972,142.581Z" style="fill:rgb(211,131,44);fill-rule:nonzero;"/>
        <path d="M233.513,142.9L233.353,142.47L233.83,142.672L233.513,142.9Z" style="fill:rgb(211,131,44);fill-rule:nonzero;"/>
        <path d="M237.142,142.249L237.026,141.509L236.477,142.094L237.142,142.249Z" style="fill:rgb(211,131,44);fill-rule:nonzero;"/>
        <path d="M237.828,142.581L237.955,141.968L237.344,142.318L237.828,142.581Z" style="fill:rgb(211,131,44);fill-rule:nonzero;"/>
        <path d="M238.287,142.9L238.448,142.47L237.97,142.672L238.287,142.9Z" style="fill:rgb(211,131,44);fill-rule:nonzero;"/>
        <path d="M235.667,139.67L235.936,139.134L236.205,139.67L235.667,139.67Z" style="fill:rgb(211,131,44);fill-rule:nonzero;"/>
        <path d="M234.966,139.811L235.056,139.234L235.485,139.691L234.966,139.811Z" style="fill:rgb(211,131,44);fill-rule:nonzero;"/>
        <path d="M234.431,140.071L234.332,139.592L234.808,139.865L234.431,140.071Z" style="fill:rgb(211,131,44);fill-rule:nonzero;"/>
        <path d="M234.072,140.319L233.947,139.984L234.32,140.142L234.072,140.319Z" style="fill:rgb(211,131,44);fill-rule:nonzero;"/>
        <path d="M236.904,139.811L236.813,139.234L236.385,139.691L236.904,139.811Z" style="fill:rgb(211,131,44);fill-rule:nonzero;"/>
        <path d="M237.439,140.071L237.538,139.592L237.062,139.865L237.439,140.071Z" style="fill:rgb(211,131,44);fill-rule:nonzero;"/>
        <path d="M237.797,140.319L237.922,139.984L237.55,140.142L237.797,140.319Z" style="fill:rgb(211,131,44);fill-rule:nonzero;"/>
        <path d="M235.708,137.498L235.894,137.172L236.081,137.498L235.708,137.498Z" style="fill:rgb(211,131,44);fill-rule:nonzero;"/>
        <path d="M235.222,137.584L235.285,137.233L235.582,137.511L235.222,137.584Z" style="fill:rgb(211,131,44);fill-rule:nonzero;"/>
        <path d="M234.852,137.742L234.783,137.451L235.113,137.617L234.852,137.742Z" style="fill:rgb(211,131,44);fill-rule:nonzero;"/>
        <path d="M236.565,137.584L236.502,137.233L236.205,137.511L236.565,137.584Z" style="fill:rgb(211,131,44);fill-rule:nonzero;"/>
        <path d="M236.935,137.742L237.004,137.451L236.674,137.617L236.935,137.742Z" style="fill:rgb(211,131,44);fill-rule:nonzero;"/>
        <rect x="234.579" y="132.66" width="1.081" height="2.343" style="fill:rgb(181,127,79);fill-rule:nonzero;"/>
        <rect x="235.174" y="130.317" width="0.482" height="2.343" style="fill:rgb(181,127,79);fill-rule:nonzero;"/>
        <rect x="226.799" y="189.42" width="18.167" height="0.334" style="fill:rgb(41,86,90);fill-rule:nonzero;"/>
        <path d="M235.431,130.317L235.894,121.037L236.358,130.317L235.431,130.317Z" style="fill:rgb(41,86,90);fill-rule:nonzero;"/>
    </g>
</svg>
