<?xml version="1.0" encoding="UTF-8" standalone="no"?>
<!DOCTYPE svg PUBLIC "-//W3C//DTD SVG 1.1//EN" "http://www.w3.org/Graphics/SVG/1.1/DTD/svg11.dtd">
<svg width="100%" height="100%" viewBox="0 0 2000 2000" version="1.1" xmlns="http://www.w3.org/2000/svg" xmlns:xlink="http://www.w3.org/1999/xlink" xml:space="preserve" xmlns:serif="http://www.serif.com/" style="fill-rule:evenodd;clip-rule:evenodd;stroke-linejoin:round;stroke-miterlimit:2;">
    <g transform="matrix(8.262517,0,0,8.262517,673.655373,149.839494)">
        <path d="M12.205,61.265C12.205,61.265 8.028,67.151 7.946,71.872C7.863,76.594 8.525,78.002 9.354,77.919C10.182,77.836 21.033,67.311 21.033,67.311L12.205,61.265Z" style="fill:rgb(194,211,226);fill-rule:nonzero;"/>
        <rect x="8.311" y="10.238" width="4.888" height="6.433" style="fill:rgb(70,109,113);fill-rule:nonzero;"/>
        <path d="M71.449,104.767C71.449,104.767 71.76,105.063 71.916,105.468C72.072,105.873 72.716,107.272 72.661,107.438C72.606,107.604 69.44,114.01 68.906,114.497C68.372,114.985 64.672,115.795 64.672,115.795L65.574,112.095L69.982,105.44L71.449,104.767Z" style="fill:rgb(70,109,113);fill-rule:nonzero;"/>
        <path d="M64.856,114.58C64.856,114.58 63.917,127.116 61.653,128.828C59.389,130.539 52.763,133.853 52.763,133.853L53.37,116.513L64.856,114.58Z" style="fill:rgb(70,109,113);fill-rule:nonzero;"/>
        <path d="M23.642,69.04L26.89,64.913L29.532,67.126L28.501,74.894L23.642,69.04Z" style="fill:rgb(70,109,113);fill-rule:nonzero;"/>
        <path d="M42.925,65.453L45.715,80.931L40.65,81.3L39.951,70.955L39.951,66.095L42.925,65.453Z" style="fill:rgb(70,109,113);fill-rule:nonzero;"/>
        <path d="M33.56,51.869L34.515,41.905L35.471,51.869L33.56,51.869Z" style="fill:rgb(70,109,113);fill-rule:nonzero;"/>
        <path d="M42.985,58.904L52.949,59.86L42.985,60.815L42.985,58.904Z" style="fill:rgb(70,109,113);fill-rule:nonzero;"/>
        <path d="M26.109,58.904L16.145,59.86L26.109,60.815L26.109,58.904Z" style="fill:rgb(70,109,113);fill-rule:nonzero;"/>
        <path d="M38.712,52.755L46.185,46.096L40.113,54.054L38.712,52.755Z" style="fill:rgb(70,109,113);fill-rule:nonzero;"/>
        <path d="M42.031,55.524L51.53,52.37L42.803,57.272L42.031,55.524Z" style="fill:rgb(70,109,113);fill-rule:nonzero;"/>
        <path d="M26.677,55.524L17.177,52.37L25.905,57.272L26.677,55.524Z" style="fill:rgb(70,109,113);fill-rule:nonzero;"/>
        <path d="M29.952,52.755L22.479,46.096L28.551,54.054L29.952,52.755Z" style="fill:rgb(70,109,113);fill-rule:nonzero;"/>
        <path d="M11.935,27.992C11.935,27.992 15.358,30.79 15.506,32.925C15.653,35.06 15.543,35.207 15.616,36.312C15.69,37.416 18.377,48.866 18.672,50.522C18.966,52.179 18.93,56.082 19.335,57.296C19.739,58.511 22.979,69.998 22.979,69.998L14.254,73.016C14.254,73.016 13.37,68.267 12.818,65.028C12.266,61.788 11.64,57.554 11.382,56.082C11.125,54.609 10.168,51.958 9.799,48.866C9.431,45.773 9.689,34.802 9.689,34.802L11.935,27.992Z" style="fill:rgb(194,211,226);fill-rule:nonzero;"/>
        <path d="M14.742,39.02C15.349,39.848 17.558,54.592 17.613,57.574C17.668,60.556 15.901,68.729 15.901,68.729L19.945,59.346C19.648,58.322 19.423,57.563 19.335,57.296C18.93,56.082 18.966,52.179 18.672,50.522C18.377,48.866 15.69,37.416 15.616,36.312C15.545,35.249 15.645,35.072 15.521,33.156C16.674,32.365 15.404,26.539 15.101,26.696C14.8,26.852 10.657,32.12 10.451,32.492L9.909,34.134C9.782,34.777 9.706,35.47 9.662,36.117C9.651,36.722 9.639,37.502 9.628,38.381C9.809,39.755 10.926,40.4 12.036,40.4C13.251,40.4 14.134,38.191 14.742,39.02Z" style="fill:rgb(70,109,113);fill-rule:nonzero;"/>
        <path d="M12.872,33.956L8.638,33.956L8.086,21.291L13.424,21.291L12.872,33.956Z" style="fill:rgb(194,211,226);fill-rule:nonzero;"/>
        <rect x="8.426" y="33.808" width="4.621" height="1.233" style="fill:rgb(194,211,226);fill-rule:nonzero;"/>
        <path d="M11.951,37.64L9.559,37.64L8.592,34.937L12.918,34.937L11.951,37.64Z" style="fill:rgb(194,211,226);fill-rule:nonzero;"/>
        <path d="M11.147,38.292L10.326,38.292C10.007,38.292 9.746,38.031 9.746,37.712L9.746,37.567C9.746,37.248 10.007,36.987 10.326,36.987L11.147,36.987C11.466,36.987 11.727,37.248 11.727,37.567L11.727,37.712C11.727,38.031 11.466,38.292 11.147,38.292Z" style="fill:rgb(194,211,226);fill-rule:nonzero;"/>
        <path d="M13.688,21.343L7.822,21.343C7.431,21.343 7.11,21.023 7.11,20.631L7.11,20.227C7.11,19.836 7.431,19.515 7.822,19.515L13.688,19.515C14.079,19.515 14.4,19.836 14.4,20.227L14.4,20.631C14.4,21.023 14.079,21.343 13.688,21.343Z" style="fill:rgb(70,109,113);fill-rule:nonzero;"/>
        <path d="M13.698,20.783L7.765,20.783L4.073,17.831L17.437,17.831L13.698,20.783Z" style="fill:rgb(70,109,113);fill-rule:nonzero;"/>
        <rect x="4.032" y="16.66" width="13.446" height="1.171" style="fill:rgb(194,211,226);fill-rule:nonzero;"/>
        <path d="M17.478,12.971L4.032,12.971L4.584,14.821L4.032,16.671L17.478,16.671L16.926,14.821L17.478,12.971Z" style="fill:rgb(194,211,226);fill-rule:nonzero;"/>
        <path d="M8.315,10.238C8.315,10.238 7.293,8.526 7.293,7.256C7.293,5.986 10.993,4.522 11.297,3.169C11.601,1.816 10.607,1.319 10.759,1.181C10.911,1.043 14.171,1.073 15.135,3.942C16.378,7.642 14.279,10.238 13.202,10.238L8.315,10.238Z" style="fill:rgb(205,108,0);fill-rule:nonzero;"/>
        <path d="M27.102,63.334C27.102,63.334 25.593,61.898 25.593,58.364C25.593,54.83 29.643,51.737 34.318,51.737C39.877,51.737 43.338,55.419 43.338,58.879C43.338,62.266 42.197,63.665 42.197,63.665L27.102,63.334Z" style="fill:rgb(194,211,226);fill-rule:nonzero;"/>
        <path d="M27.38,63.934C27.38,63.934 25.917,62.542 25.917,59.117C25.917,55.692 29.842,52.695 34.373,52.695C39.76,52.695 43.114,56.263 43.114,59.617C43.114,62.899 42.008,64.255 42.008,64.255L27.38,63.934Z" style="fill:rgb(70,109,113);fill-rule:nonzero;"/>
        <path d="M28.833,59.248C28.833,59.248 28.98,67.568 29.753,69.409C30.526,71.249 28.833,74.82 28.833,74.82L35.275,82.404L42.27,80.416C42.27,80.416 40.025,78.539 39.988,77.029C39.951,75.52 40.061,70.955 40.245,70.587C40.43,70.219 41.019,66.058 40.798,63.85C40.577,61.641 39.804,58.29 39.804,58.29C39.804,58.29 37.337,56.339 34.539,56.56C31.741,56.781 28.833,59.248 28.833,59.248Z" style="fill:rgb(194,211,226);fill-rule:nonzero;"/>
        <path d="M21.89,66.149C21.89,66.149 26.748,70.796 27.908,72.369C29.067,73.943 32.96,79.741 35.362,80.818C37.764,81.895 41.078,79.741 42.9,80.072C44.722,80.404 48.863,81.646 50.686,85.456C52.508,89.267 60.46,154.784 59.797,155.613C59.134,156.441 57.312,157.352 57.312,158.429C57.312,159.506 58.223,178.391 57.892,178.722C57.561,179.053 55.821,179.55 55.821,179.882C55.821,180.213 57.643,197.027 56.898,197.027L11.259,197.027C11.259,197.027 14.986,189.159 15.483,186.757C15.98,184.354 14.572,172.841 15.069,166.463C15.566,160.085 17.14,154.784 17.223,152.134C17.254,151.126 17.082,147.053 16.898,142.114C16.743,137.983 14.052,136.312 13.992,132.255C13.936,128.404 16.501,122.101 16.726,120.576C16.967,118.936 12.3,120.539 12.087,116.434C11.756,110.056 17.216,104.05 17.331,101.283C17.602,94.772 13.177,96.457 12.667,93.905C12.203,91.584 14.028,88.706 14.158,84.959C14.329,80.016 10.596,75.931 10.596,75.931L21.89,66.149Z" style="fill:rgb(166,188,197);fill-rule:nonzero;"/>
        <path d="M26.477,63.187C26.56,61.786 27.102,61.272 27.102,61.272C27.102,61.272 27.323,59.284 29.164,57.701C31.348,55.823 33.987,56.376 34.392,56.376C34.797,56.376 38.073,55.308 40.65,58.143C41.935,59.556 42.197,61.677 42.27,61.935C42.344,62.193 43.375,63.629 43.227,64.77C43.08,65.911 40.731,67.311 40.731,67.311L29.298,67.165C29.298,67.165 26.329,65.653 26.477,63.187Z" style="fill:rgb(194,211,226);fill-rule:nonzero;"/>
        <path d="M51.986,91.599L59.941,99.891L53.922,109.721L51.986,91.599Z" style="fill:rgb(70,109,113);fill-rule:nonzero;"/>
        <path d="M73.14,97.959L74.962,99.063L59.836,123.858L55.468,123.084L55.468,121.925L73.14,97.959Z" style="fill:rgb(70,109,113);fill-rule:nonzero;"/>
        <path d="M63.365,92.492L54.143,107.622L55.468,121.925L58.45,122.753L73.14,97.959L63.365,92.492Z" style="fill:rgb(194,211,226);fill-rule:nonzero;"/>
        <path d="M42.723,94.014L39.067,162.845L50.126,156.771L42.723,94.014Z" style="fill:rgb(194,211,226);fill-rule:nonzero;"/>
        <path d="M56.898,197.027C57.643,197.027 55.821,180.213 55.821,179.882C55.821,179.55 57.561,179.053 57.892,178.722C58.223,178.391 57.312,159.506 57.312,158.429C57.312,157.352 59.134,156.441 59.797,155.613C60.46,154.784 52.508,89.267 50.686,85.456C50.521,85.112 50.337,84.789 50.138,84.485L54.64,153.015C54.64,153.015 38.957,161.298 39.067,162.845C39.178,164.391 43.816,165.385 43.816,167.262C43.816,169.14 27.36,175.767 26.256,177.423C25.151,179.08 34.097,175.988 34.539,178.528C34.981,181.068 31.557,196.751 31.557,197.027L56.898,197.027Z" style="fill:rgb(70,109,113);fill-rule:nonzero;"/>
        <path d="M15.98,158.429C15.98,158.429 20.536,158.015 23.021,154.287C25.506,150.56 29.647,144.679 31.386,143.188C32.469,142.26 35.476,137.772 37.653,134.534C38.974,132.569 41.58,107.361 41.674,107.392C41.922,107.475 40.084,143.685 39.172,143.768C38.261,143.851 34.617,141.283 33.374,144.182C32.132,147.081 25.837,164.393 22.607,167.292C19.376,170.191 15.483,165.883 15.98,158.429Z" style="fill:rgb(70,109,113);fill-rule:nonzero;"/>
        <path d="M19.733,58.617C19.733,58.617 15.417,69.565 13.877,70.967C12.336,72.369 8.127,75.979 8.775,77.675C10.612,82.483 19.107,77.018 21.281,67.565C22.412,62.647 22.383,62.924 19.733,58.617Z" style="fill:rgb(194,211,226);fill-rule:nonzero;"/>
        <path d="M13.424,21.291L8.43,21.232C8.43,21.232 8.333,20.647 8.086,20.813C7.839,20.978 7.369,21.795 7.535,22.387C7.702,22.978 7.17,25.107 7.149,25.249C7.115,25.472 7.259,27.127 7.259,27.127C7.259,27.127 8.529,27.439 8.345,27.918C8.161,28.397 7.222,28.894 7.129,29.078C7.035,29.262 8.548,32.465 8.548,32.465C8.548,32.465 8.621,31.71 8.658,31.084C8.695,30.458 9.983,29.501 11.014,29.869C12.045,30.237 13.026,32.61 13.026,32.61L13.424,21.291Z" style="fill:rgb(70,109,113);fill-rule:nonzero;"/>
        <path d="M33.471,67.052C33.149,67.117 33.692,66.427 34.245,66.5C34.797,66.574 35.57,66.463 35.459,66.022C35.349,65.58 35.055,62.487 35.644,62.046C36.233,61.604 39.031,61.96 38.92,61.745C38.81,61.53 35.064,58.843 34.857,58.843C34.65,58.843 30.011,62.119 30.342,62.377C30.674,62.635 33.545,61.862 33.582,62.819C33.619,63.776 33.177,64.218 31.962,64.181C30.747,64.144 29.597,64.292 29.385,65.138C29.173,65.984 29.458,68.261 29.458,68.261L29.132,70.145C29.132,70.145 26.927,66.622 26.89,64.913C26.853,63.203 28.17,61.567 29.422,60.647C30.674,59.726 34.502,58.254 34.797,58.217C35.091,58.18 41.718,60.211 41.976,60.815C42.233,61.42 42.233,61.641 42.27,61.935C42.307,62.23 43.283,63.407 43.237,64.401C43.191,65.396 42.89,65.502 42.89,65.502L40.245,70.587C40.245,70.587 39.756,76.591 40.021,77.324C40.287,78.058 45.762,80.951 45.762,80.951C45.762,80.951 41.884,80.404 41.244,80.273C39.701,79.957 36.678,78.953 34.024,75.778C30.269,71.286 30.011,70.587 30.489,70.55C30.968,70.513 33.979,71.286 35.216,71.102C36.453,70.918 39.951,66.504 39.288,65.453C38.626,64.402 36.343,64.549 36.343,65.396C36.343,66.242 36.932,67.678 36.932,68.304C36.932,68.93 35.312,69.482 35.165,69.261C35.018,69.04 35.283,68.293 35.086,68.229C34.515,68.044 33.03,68.392 33.03,68.392C33.03,68.392 33.876,67.826 34.281,67.752C34.686,67.678 34.024,66.942 33.471,67.052Z" style="fill:rgb(70,109,113);fill-rule:nonzero;"/>
        <path d="M13.711,31.859C13.74,32.836 12.671,29.612 12.855,28.323C13.039,27.035 11.125,24.752 11.235,23.574C11.346,22.396 12.082,22.359 12.34,22.506C12.597,22.654 13.775,23.795 14.107,24.494C14.438,25.194 15.074,26.306 15.147,26.711C15.221,27.116 13.582,27.506 13.711,31.859Z" style="fill:rgb(194,211,226);fill-rule:nonzero;"/>
        <path d="M64.672,109.078C64.797,109.641 65.638,111.14 65.638,111.14L70.424,103.188C70.424,103.188 68.559,102.286 68.317,102.626C67.838,103.298 68.731,104.624 68.547,104.789C68.363,104.955 66.938,104.408 66.724,105.019C66.522,105.599 67.608,106.888 67.442,106.925C67.277,106.961 65.73,105.811 65.312,106.713C65.128,107.11 65.712,107.863 65.62,107.937C65.528,108.011 64.377,107.753 64.672,109.078Z" style="fill:rgb(70,109,113);fill-rule:nonzero;"/>
        <path d="M64.746,108.266C64.479,108.626 65.335,109.757 65.648,110.254C65.961,110.751 66.568,111.745 66.881,111.745C67.194,111.745 67.875,111.248 67.875,111.083C67.875,110.917 66.992,109.702 66.697,109.26C66.402,108.819 65.169,107.696 64.746,108.266Z" style="fill:rgb(194,211,226);fill-rule:nonzero;"/>
        <path d="M65.412,106.63C65.226,107.064 66.379,108.012 66.821,108.444C67.263,108.876 68.128,109.744 68.448,109.667C68.768,109.591 69.343,108.916 69.303,108.746C69.262,108.577 68.061,107.55 67.651,107.17C67.242,106.79 65.705,105.943 65.412,106.63Z" style="fill:rgb(194,211,226);fill-rule:nonzero;"/>
        <path d="M66.758,104.988C66.569,105.431 67.745,106.398 68.195,106.838C68.646,107.279 69.529,108.165 69.855,108.087C70.182,108.009 70.769,107.32 70.727,107.147C70.686,106.974 69.46,105.926 69.043,105.539C68.625,105.151 67.057,104.287 66.758,104.988Z" style="fill:rgb(194,211,226);fill-rule:nonzero;"/>
        <path d="M68.293,102.729C68.043,103.14 69.07,104.265 69.453,104.765C69.837,105.265 70.584,106.267 70.919,106.237C71.253,106.206 71.932,105.607 71.916,105.43C71.899,105.253 70.835,104.042 70.477,103.599C70.118,103.156 68.689,102.077 68.293,102.729Z" style="fill:rgb(194,211,226);fill-rule:nonzero;"/>
        <path d="M7.158,25.204C7.158,25.204 6.56,24.936 6.504,24.402C6.449,23.868 6.817,23.187 7.425,23.022C8.032,22.856 10.665,23.022 10.72,23.574C10.775,24.126 10.456,24.654 9.652,24.605C7.554,24.476 7.377,25.222 7.158,25.204Z" style="fill:rgb(194,211,226);fill-rule:nonzero;"/>
        <path d="M7.038,25.249C7.285,25.043 9.431,25.359 10.02,25.525C10.609,25.691 11.609,25.932 11.769,26.133C11.99,26.409 11.935,27.108 11.622,27.182C11.309,27.255 7.517,27.237 7.259,27.127C7.001,27.016 6.247,25.912 7.038,25.249Z" style="fill:rgb(194,211,226);fill-rule:nonzero;"/>
        <path d="M7.222,27.255C7.408,27.061 9.05,27.43 9.542,27.532C10.033,27.633 10.66,27.816 10.805,27.977C11.005,28.199 11.012,28.803 10.762,28.888C10.513,28.974 7.347,29.155 7.129,29.078C6.911,29.001 6.627,27.88 7.222,27.255Z" style="fill:rgb(194,211,226);fill-rule:nonzero;"/>
        <rect x="7.709" y="197.027" width="51.859" height="7.622" style="fill:rgb(194,211,226);fill-rule:nonzero;"/>
        <path d="M12.667,115.109C12.368,116.038 12.509,117.273 12.784,118.42C14.025,119.867 16.492,119.393 16.718,120.314C16.732,119.651 16.949,117.586 18.631,112.541C19.722,109.268 26.504,103.881 30.839,99.56C35.061,95.352 36.853,92.166 36.853,92.166C36.853,92.166 35.328,94.119 29.033,98.757C22.738,103.395 13.412,112.79 12.667,115.109Z" style="fill:rgb(70,109,113);fill-rule:nonzero;"/>
        <path d="M28.354,109.389C21.838,119.384 14.781,135.797 14.78,135.798C15.462,137.414 16.391,138.821 16.752,140.785L16.891,140.756L36.853,95.396C36.853,95.396 32.259,103.4 28.354,109.389Z" style="fill:rgb(70,109,113);fill-rule:nonzero;"/>
        <path d="M7.204,23.215C7.204,23.215 6.514,22.249 6.624,21.503C6.735,20.758 7.949,18.852 8.226,18.908C8.502,18.963 8.805,19.957 8.695,20.481C8.584,21.006 8.11,21.835 8.123,22.138C8.136,22.441 8.161,22.994 8.161,22.994L7.204,23.215Z" style="fill:rgb(194,211,226);fill-rule:nonzero;"/>
        <path d="M16.012,84.081C16.177,86.842 14.882,88.863 15.711,89.029C16.539,89.194 20.115,84.142 21.557,78.261C22.66,73.767 23.451,69.661 23.764,67.973C22.714,66.937 21.89,66.149 21.89,66.149C21.89,66.149 22.404,63.166 21.658,61.976L21.559,61.749L21.557,61.745C21.556,61.754 19.619,70.859 18.552,73.202C16.885,76.862 13.79,78.084 14.079,78.614C14.588,79.547 15.846,81.32 16.012,84.081Z" style="fill:rgb(70,109,113);fill-rule:nonzero;"/>
    </g>
</svg>
