<?xml version="1.0" encoding="UTF-8" standalone="no"?>
<!DOCTYPE svg PUBLIC "-//W3C//DTD SVG 1.1//EN" "http://www.w3.org/Graphics/SVG/1.1/DTD/svg11.dtd">
<svg width="100%" height="100%" viewBox="0 0 500 500" version="1.1" xmlns="http://www.w3.org/2000/svg" xmlns:xlink="http://www.w3.org/1999/xlink" xml:space="preserve" xmlns:serif="http://www.serif.com/" style="fill-rule:evenodd;clip-rule:evenodd;stroke-linejoin:round;stroke-miterlimit:2;">
    <g>
        <g transform="matrix(1.129139,0,0,1.129139,-32.284649,12.23617)">
            <path d="M395.583,227.603C395.583,147.2 330.403,82.02 250,82.02C169.597,82.02 104.417,147.2 104.417,227.603C104.417,308.007 169.597,373.187 250,373.187C330.403,373.187 395.583,308.007 395.583,227.603Z" style="fill:rgb(1,64,95);fill-rule:nonzero;"/>
            <clipPath id="_clip1">
                <path d="M395.583,227.603C395.583,147.2 330.403,82.02 250,82.02C169.597,82.02 104.417,147.2 104.417,227.603C104.417,308.007 169.597,373.187 250,373.187C330.403,373.187 395.583,308.007 395.583,227.603Z" clip-rule="nonzero"/>
            </clipPath>
            <g clip-path="url(#_clip1)">
                <rect x="184.24" y="276.955" width="131.57" height="45.533" style="fill:rgb(71,143,205);fill-rule:nonzero;"/>
                <rect x="189.376" y="215.045" width="123.531" height="43.52" style="fill:rgb(153,201,236);fill-rule:nonzero;"/>
                <rect x="212.897" y="215.045" width="100.01" height="43.52" style="fill:rgb(215,238,251);fill-rule:nonzero;"/>
                <rect x="189.376" y="215.045" width="123.531" height="9.247" style="fill:rgb(71,143,205);fill-rule:nonzero;"/>
                <path d="M307.629,203.404C307.629,171.577 281.827,145.775 250,145.775C218.172,145.775 192.371,171.577 192.371,203.404L307.629,203.404Z" style="fill:rgb(215,238,251);fill-rule:nonzero;"/>
                <path d="M265.63,147.938C260.657,146.54 255.42,145.775 250,145.775C218.172,145.775 192.371,171.577 192.371,203.404L223.632,203.404C223.632,176.997 241.401,154.753 265.63,147.938Z" style="fill:rgb(153,201,236);fill-rule:nonzero;"/>
                <rect x="236.187" y="138.93" width="27.626" height="9.008" style="fill:rgb(153,201,236);fill-rule:nonzero;"/>
                <rect x="236.187" y="138.93" width="11.081" height="9.008" style="fill:rgb(71,143,205);fill-rule:nonzero;"/>
                <rect x="187.093" y="203.404" width="125.814" height="9.503" style="fill:rgb(71,143,205);fill-rule:nonzero;"/>
                <rect x="219.845" y="203.404" width="93.062" height="9.503" style="fill:rgb(153,201,236);fill-rule:nonzero;"/>
                <path d="M317.001,219.796L182.999,219.796C180.375,219.796 178.248,217.669 178.248,215.045C178.248,212.421 180.375,210.293 182.999,210.293L317.001,210.293C319.625,210.293 321.752,212.421 321.752,215.045C321.752,217.669 319.625,219.796 317.001,219.796Z" style="fill:rgb(215,238,251);fill-rule:nonzero;"/>
                <path d="M317.001,219.796L182.999,219.796C180.375,219.796 178.248,217.669 178.248,215.045C178.248,212.421 180.375,210.293 182.999,210.293L317.001,210.293C319.625,210.293 321.752,212.421 321.752,215.045C321.752,217.669 319.625,219.796 317.001,219.796Z" style="fill:rgb(153,201,236);fill-rule:nonzero;"/>
                <path d="M321.752,215.045C321.752,212.421 319.625,210.293 317.001,210.293L214.317,210.293C211.693,210.293 209.565,212.421 209.565,215.045C209.565,217.669 211.693,219.796 214.317,219.796L317.001,219.796C319.625,219.796 321.752,217.669 321.752,215.045Z" style="fill:rgb(215,238,251);fill-rule:nonzero;"/>
                <rect x="187.093" y="256.326" width="125.814" height="9.502" style="fill:rgb(71,143,205);fill-rule:nonzero;"/>
                <rect x="219.845" y="256.326" width="93.062" height="9.502" style="fill:rgb(153,201,236);fill-rule:nonzero;"/>
                <path d="M326.977,352.675L173.023,352.675L166.325,326.728L333.675,326.728L326.977,352.675Z" style="fill:rgb(71,143,205);fill-rule:nonzero;"/>
                <path d="M326.977,352.675L213.101,352.675L209.89,326.728L333.675,326.728L326.977,352.675Z" style="fill:rgb(153,201,236);fill-rule:nonzero;"/>
                <rect x="176.109" y="270.035" width="147.783" height="9.503" style="fill:rgb(71,143,205);fill-rule:nonzero;"/>
                <rect x="214.58" y="270.035" width="109.312" height="9.503" style="fill:rgb(153,201,236);fill-rule:nonzero;"/>
                <path d="M325.938,272.717L174.062,272.717C171.438,272.717 169.311,270.59 169.311,267.966C169.311,265.342 171.438,263.215 174.062,263.215L325.938,263.215C328.563,263.215 330.689,265.342 330.689,267.966C330.689,270.59 328.563,272.717 325.938,272.717Z" style="fill:rgb(153,201,236);fill-rule:nonzero;"/>
                <path d="M330.689,267.966C330.689,265.342 328.563,263.215 325.938,263.215L205.379,263.215C202.755,263.215 200.628,265.342 200.628,267.966C200.628,270.59 202.755,272.717 205.379,272.717L325.938,272.717C328.563,272.717 330.689,270.59 330.689,267.966Z" style="fill:rgb(215,238,251);fill-rule:nonzero;"/>
                <path d="M207.712,253.746L199.936,253.746L199.936,233.36C199.936,231.213 201.676,229.473 203.824,229.473C205.971,229.473 207.712,231.213 207.712,233.36L207.712,253.746Z" style="fill:rgb(71,143,205);fill-rule:nonzero;"/>
                <path d="M226.182,253.746L218.406,253.746L218.406,233.36C218.406,231.213 220.147,229.473 222.294,229.473C224.441,229.473 226.182,231.213 226.182,233.36L226.182,253.746Z" style="fill:rgb(71,143,205);fill-rule:nonzero;"/>
                <path d="M244.653,253.746L236.876,253.746L236.876,233.36C236.876,231.213 238.617,229.473 240.765,229.473C242.912,229.473 244.653,231.213 244.653,233.36L244.653,253.746Z" style="fill:rgb(71,143,205);fill-rule:nonzero;"/>
                <path d="M263.123,253.746L255.348,253.746L255.348,233.36C255.348,231.213 257.088,229.473 259.234,229.473C261.383,229.473 263.123,231.213 263.123,233.36L263.123,253.746Z" style="fill:rgb(71,143,205);fill-rule:nonzero;"/>
                <path d="M281.594,253.746L273.817,253.746L273.817,233.36C273.817,231.213 275.559,229.473 277.706,229.473C279.854,229.473 281.594,231.213 281.594,233.36L281.594,253.746Z" style="fill:rgb(71,143,205);fill-rule:nonzero;"/>
                <path d="M300.064,253.746L292.288,253.746L292.288,233.36C292.288,231.213 294.029,229.473 296.177,229.473C298.323,229.473 300.064,231.213 300.064,233.36L300.064,253.746Z" style="fill:rgb(71,143,205);fill-rule:nonzero;"/>
                <rect x="181.55" y="282.753" width="5.543" height="35.381" style="fill:rgb(153,201,236);fill-rule:nonzero;"/>
                <path d="M189.396,285.93L179.084,285.93L176.158,279.577L192.322,279.577L189.396,285.93Z" style="fill:rgb(215,238,251);fill-rule:nonzero;"/>
                <path d="M179.084,316.136L189.396,316.136L192.322,322.488L176.158,322.488L179.084,316.136Z" style="fill:rgb(215,238,251);fill-rule:nonzero;"/>
                <rect x="203.479" y="282.753" width="5.542" height="35.381" style="fill:rgb(153,201,236);fill-rule:nonzero;"/>
                <path d="M211.324,285.93L201.012,285.93L198.086,279.577L214.25,279.577L211.324,285.93Z" style="fill:rgb(215,238,251);fill-rule:nonzero;"/>
                <path d="M201.012,316.136L211.324,316.136L214.25,322.488L198.086,322.488L201.012,316.136Z" style="fill:rgb(215,238,251);fill-rule:nonzero;"/>
                <rect x="225.407" y="282.753" width="5.542" height="35.381" style="fill:rgb(153,201,236);fill-rule:nonzero;"/>
                <path d="M233.252,285.93L222.94,285.93L220.014,279.577L236.178,279.577L233.252,285.93Z" style="fill:rgb(215,238,251);fill-rule:nonzero;"/>
                <path d="M222.94,316.136L233.252,316.136L236.178,322.488L220.014,322.488L222.94,316.136Z" style="fill:rgb(215,238,251);fill-rule:nonzero;"/>
                <rect x="247.335" y="282.753" width="5.543" height="35.381" style="fill:rgb(153,201,236);fill-rule:nonzero;"/>
                <path d="M255.181,285.93L244.869,285.93L241.942,279.577L258.105,279.577L255.181,285.93Z" style="fill:rgb(215,238,251);fill-rule:nonzero;"/>
                <path d="M244.869,316.136L255.181,316.136L258.105,322.488L241.942,322.488L244.869,316.136Z" style="fill:rgb(215,238,251);fill-rule:nonzero;"/>
                <rect x="269.263" y="282.753" width="5.543" height="35.381" style="fill:rgb(153,201,236);fill-rule:nonzero;"/>
                <path d="M277.108,285.93L266.797,285.93L263.871,279.577L280.035,279.577L277.108,285.93Z" style="fill:rgb(215,238,251);fill-rule:nonzero;"/>
                <path d="M266.797,316.136L277.108,316.136L280.035,322.488L263.871,322.488L266.797,316.136Z" style="fill:rgb(215,238,251);fill-rule:nonzero;"/>
                <rect x="291.191" y="282.753" width="5.543" height="35.381" style="fill:rgb(153,201,236);fill-rule:nonzero;"/>
                <path d="M299.036,285.93L288.726,285.93L285.799,279.577L301.963,279.577L299.036,285.93Z" style="fill:rgb(215,238,251);fill-rule:nonzero;"/>
                <path d="M288.726,316.136L299.036,316.136L301.963,322.488L285.799,322.488L288.726,316.136Z" style="fill:rgb(215,238,251);fill-rule:nonzero;"/>
                <rect x="313.119" y="282.753" width="5.543" height="35.381" style="fill:rgb(153,201,236);fill-rule:nonzero;"/>
                <path d="M320.965,285.93L310.653,285.93L307.727,279.577L323.892,279.577L320.965,285.93Z" style="fill:rgb(215,238,251);fill-rule:nonzero;"/>
                <path d="M310.653,316.136L320.965,316.136L323.892,322.488L307.727,322.488L310.653,316.136Z" style="fill:rgb(215,238,251);fill-rule:nonzero;"/>
                <path d="M198.742,312.725L191.128,312.725L191.128,294.815C191.128,292.713 192.833,291.009 194.935,291.009C197.037,291.009 198.742,292.713 198.742,294.815L198.742,312.725Z" style="fill:rgb(215,238,251);fill-rule:nonzero;"/>
                <path d="M220.757,312.725L213.143,312.725L213.143,294.815C213.143,292.713 214.848,291.009 216.95,291.009C219.052,291.009 220.757,292.713 220.757,294.815L220.757,312.725Z" style="fill:rgb(215,238,251);fill-rule:nonzero;"/>
                <path d="M242.772,312.725L235.159,312.725L235.159,294.815C235.159,292.713 236.863,291.009 238.965,291.009C241.068,291.009 242.772,292.713 242.772,294.815L242.772,312.725Z" style="fill:rgb(215,238,251);fill-rule:nonzero;"/>
                <path d="M264.787,312.725L257.174,312.725L257.174,294.815C257.174,292.713 258.877,291.009 260.98,291.009C263.083,291.009 264.787,292.713 264.787,294.815L264.787,312.725Z" style="fill:rgb(215,238,251);fill-rule:nonzero;"/>
                <path d="M286.803,312.725L279.189,312.725L279.189,294.815C279.189,292.713 280.894,291.009 282.996,291.009C285.099,291.009 286.803,292.713 286.803,294.815L286.803,312.725Z" style="fill:rgb(215,238,251);fill-rule:nonzero;"/>
                <path d="M308.817,312.725L301.204,312.725L301.204,294.815C301.204,292.713 302.908,291.009 305.011,291.009C307.113,291.009 308.817,292.713 308.817,294.815L308.817,312.725Z" style="fill:rgb(215,238,251);fill-rule:nonzero;"/>
                <path d="M335.914,328.814L164.086,328.814C161.462,328.814 159.334,326.688 159.334,324.063C159.334,321.439 161.462,319.313 164.086,319.313L335.914,319.313C338.538,319.313 340.665,321.439 340.665,324.063C340.665,326.688 338.538,328.814 335.914,328.814Z" style="fill:rgb(153,201,236);fill-rule:nonzero;"/>
                <path d="M340.665,324.063C340.665,321.439 338.538,319.313 335.914,319.313L195.403,319.313C192.779,319.313 190.652,321.439 190.652,324.063C190.652,326.688 192.779,328.814 195.403,328.814L335.914,328.814C338.538,328.814 340.665,326.688 340.665,324.063Z" style="fill:rgb(215,238,251);fill-rule:nonzero;"/>
                <rect x="155.511" y="345.698" width="185.154" height="45.254" style="fill:rgb(215,238,251);fill-rule:nonzero;"/>
            </g>
            <rect x="280.072" y="56.48" width="38.281" height="40.854" style="fill:rgb(244,245,246);fill-rule:nonzero;"/>
            <rect x="280.072" y="56.48" width="38.281" height="5.836" style="fill:rgb(179,25,66);fill-rule:nonzero;"/>
            <rect x="280.072" y="68.153" width="38.281" height="5.836" style="fill:rgb(179,25,66);fill-rule:nonzero;"/>
            <rect x="280.072" y="79.825" width="38.281" height="5.837" style="fill:rgb(179,25,66);fill-rule:nonzero;"/>
            <rect x="280.072" y="91.498" width="38.281" height="5.836" style="fill:rgb(179,25,66);fill-rule:nonzero;"/>
            <path d="M289.508,91.498L280.072,91.498L280.072,85.662L291.136,85.662L291.136,88.809L289.508,91.498ZM291.136,79.825L280.072,79.825L280.072,73.989L291.136,73.989L291.136,79.825ZM291.136,68.153L280.072,68.153L280.072,62.316L291.136,62.316L291.136,68.153Z" style="fill:rgb(196,195,195);fill-rule:nonzero;"/>
            <rect x="280.072" y="56.48" width="11.064" height="5.836" style="fill:rgb(139,22,53);fill-rule:nonzero;"/>
            <rect x="280.072" y="68.153" width="11.064" height="5.836" style="fill:rgb(139,22,53);fill-rule:nonzero;"/>
            <rect x="280.072" y="79.825" width="11.064" height="5.837" style="fill:rgb(139,22,53);fill-rule:nonzero;"/>
            <path d="M285.975,97.334L280.072,97.334L280.072,91.498L289.508,91.498L285.975,97.334Z" style="fill:rgb(139,22,53);fill-rule:nonzero;"/>
            <rect x="247.468" y="47.955" width="5.922" height="92.997" style="fill:rgb(71,143,205);fill-rule:nonzero;"/>
            <rect x="247.468" y="47.955" width="38.28" height="40.854" style="fill:rgb(244,245,246);fill-rule:nonzero;"/>
            <rect x="247.468" y="47.955" width="38.28" height="5.836" style="fill:rgb(179,25,66);fill-rule:nonzero;"/>
            <rect x="247.468" y="59.627" width="38.28" height="5.837" style="fill:rgb(179,25,66);fill-rule:nonzero;"/>
            <rect x="247.468" y="71.3" width="38.28" height="5.836" style="fill:rgb(179,25,66);fill-rule:nonzero;"/>
            <rect x="247.468" y="82.973" width="38.28" height="5.836" style="fill:rgb(179,25,66);fill-rule:nonzero;"/>
            <rect x="247.468" y="47.955" width="32.604" height="23.345" style="fill:rgb(10,49,97);fill-rule:nonzero;"/>
            <path d="M285.748,88.809L280.072,97.334L280.072,88.809L285.748,88.809Z" style="fill:rgb(83,30,44);fill-rule:nonzero;"/>
            <path d="M251.814,49.503L252.375,50.639L253.629,50.821L252.722,51.706L252.936,52.954L251.814,52.365L250.693,52.954L250.907,51.706L250,50.821L251.254,50.639L251.814,49.503Z" style="fill:white;fill-rule:nonzero;"/>
            <path d="M257.953,49.503L258.514,50.639L259.768,50.821L258.859,51.706L259.075,52.954L257.953,52.365L256.832,52.954L257.045,51.706L256.139,50.821L257.393,50.639L257.953,49.503Z" style="fill:white;fill-rule:nonzero;"/>
            <path d="M264.093,49.503L264.653,50.639L265.906,50.821L265,51.706L265.214,52.954L264.093,52.365L262.971,52.954L263.186,51.706L262.278,50.821L263.531,50.639L264.093,49.503Z" style="fill:white;fill-rule:nonzero;"/>
            <path d="M270.231,49.503L270.792,50.639L272.046,50.821L271.139,51.706L271.353,52.954L270.231,52.365L269.109,52.954L269.324,51.706L268.417,50.821L269.671,50.639L270.231,49.503Z" style="fill:white;fill-rule:nonzero;"/>
            <path d="M276.37,49.503L276.931,50.639L278.185,50.821L277.277,51.706L277.491,52.954L276.37,52.365L275.249,52.954L275.463,51.706L274.556,50.821L275.81,50.639L276.37,49.503Z" style="fill:white;fill-rule:nonzero;"/>
            <path d="M255.02,52.75L255.58,53.886L256.834,54.068L255.927,54.953L256.142,56.201L255.02,55.611L253.898,56.201L254.112,54.953L253.205,54.068L254.459,53.886L255.02,52.75Z" style="fill:white;fill-rule:nonzero;"/>
            <path d="M261.159,52.75L261.72,53.886L262.974,54.068L262.066,54.953L262.28,56.201L261.159,55.611L260.036,56.201L260.252,54.953L259.345,54.068L260.597,53.886L261.159,52.75Z" style="fill:white;fill-rule:nonzero;"/>
            <path d="M267.298,52.75L267.858,53.886L269.112,54.068L268.205,54.953L268.419,56.201L267.298,55.611L266.177,56.201L266.391,54.953L265.483,54.068L266.737,53.886L267.298,52.75Z" style="fill:white;fill-rule:nonzero;"/>
            <path d="M273.437,52.75L273.997,53.886L275.251,54.068L274.344,54.953L274.558,56.201L273.437,55.611L272.315,56.201L272.529,54.953L271.622,54.068L272.876,53.886L273.437,52.75Z" style="fill:white;fill-rule:nonzero;"/>
            <path d="M251.814,56.201L252.375,57.337L253.629,57.519L252.722,58.404L252.936,59.652L251.814,59.063L250.693,59.652L250.907,58.404L250,57.519L251.254,57.337L251.814,56.201Z" style="fill:white;fill-rule:nonzero;"/>
            <path d="M257.953,56.201L258.514,57.337L259.768,57.519L258.859,58.404L259.075,59.652L257.953,59.063L256.832,59.652L257.045,58.404L256.139,57.519L257.393,57.337L257.953,56.201Z" style="fill:white;fill-rule:nonzero;"/>
            <path d="M264.093,56.201L264.653,57.337L265.906,57.519L265,58.404L265.214,59.652L264.093,59.063L262.971,59.652L263.186,58.404L262.278,57.519L263.531,57.337L264.093,56.201Z" style="fill:white;fill-rule:nonzero;"/>
            <path d="M270.231,56.201L270.792,57.337L272.046,57.519L271.139,58.404L271.353,59.652L270.231,59.063L269.109,59.652L269.324,58.404L268.417,57.519L269.671,57.337L270.231,56.201Z" style="fill:white;fill-rule:nonzero;"/>
            <path d="M276.37,56.201L276.931,57.337L278.185,57.519L277.277,58.404L277.491,59.652L276.37,59.063L275.249,59.652L275.463,58.404L274.556,57.519L275.81,57.337L276.37,56.201Z" style="fill:white;fill-rule:nonzero;"/>
            <path d="M255.02,59.448L255.58,60.584L256.834,60.766L255.927,61.65L256.142,62.899L255.02,62.31L253.898,62.899L254.112,61.65L253.205,60.766L254.459,60.584L255.02,59.448Z" style="fill:white;fill-rule:nonzero;"/>
            <path d="M261.159,59.448L261.72,60.584L262.974,60.766L262.066,61.65L262.28,62.899L261.159,62.31L260.036,62.899L260.252,61.65L259.345,60.766L260.597,60.584L261.159,59.448Z" style="fill:white;fill-rule:nonzero;"/>
            <path d="M267.298,59.448L267.858,60.584L269.112,60.766L268.205,61.65L268.419,62.899L267.298,62.31L266.177,62.899L266.391,61.65L265.483,60.766L266.737,60.584L267.298,59.448Z" style="fill:white;fill-rule:nonzero;"/>
            <path d="M273.437,59.448L273.997,60.584L275.251,60.766L274.344,61.65L274.558,62.899L273.437,62.31L272.315,62.899L272.529,61.65L271.622,60.766L272.876,60.584L273.437,59.448Z" style="fill:white;fill-rule:nonzero;"/>
            <path d="M251.814,62.899L252.375,64.035L253.629,64.218L252.722,65.102L252.936,66.351L251.814,65.761L250.693,66.351L250.907,65.102L250,64.218L251.254,64.035L251.814,62.899Z" style="fill:white;fill-rule:nonzero;"/>
            <path d="M257.953,62.899L258.514,64.035L259.768,64.218L258.859,65.102L259.075,66.351L257.953,65.761L256.832,66.351L257.045,65.102L256.139,64.218L257.393,64.035L257.953,62.899Z" style="fill:white;fill-rule:nonzero;"/>
            <path d="M264.093,62.899L264.653,64.035L265.906,64.218L265,65.102L265.214,66.351L264.093,65.761L262.971,66.351L263.186,65.102L262.278,64.218L263.531,64.035L264.093,62.899Z" style="fill:white;fill-rule:nonzero;"/>
            <path d="M270.231,62.899L270.792,64.035L272.046,64.218L271.139,65.102L271.353,66.351L270.231,65.761L269.109,66.351L269.324,65.102L268.417,64.218L269.671,64.035L270.231,62.899Z" style="fill:white;fill-rule:nonzero;"/>
            <path d="M276.37,62.899L276.931,64.035L278.185,64.218L277.277,65.102L277.491,66.351L276.37,65.761L275.249,66.351L275.463,65.102L274.556,64.218L275.81,64.035L276.37,62.899Z" style="fill:white;fill-rule:nonzero;"/>
            <path d="M255.02,66.146L255.58,67.282L256.834,67.464L255.927,68.349L256.142,69.598L255.02,69.008L253.898,69.598L254.112,68.349L253.205,67.464L254.459,67.282L255.02,66.146Z" style="fill:white;fill-rule:nonzero;"/>
            <path d="M261.159,66.146L261.72,67.282L262.974,67.464L262.066,68.349L262.28,69.598L261.159,69.008L260.036,69.598L260.252,68.349L259.345,67.464L260.597,67.282L261.159,66.146Z" style="fill:white;fill-rule:nonzero;"/>
            <path d="M267.298,66.146L267.858,67.282L269.112,67.464L268.205,68.349L268.419,69.598L267.298,69.008L266.177,69.598L266.391,68.349L265.483,67.464L266.737,67.282L267.298,66.146Z" style="fill:white;fill-rule:nonzero;"/>
            <path d="M273.437,66.146L273.997,67.282L275.251,67.464L274.344,68.349L274.558,69.598L273.437,69.008L272.315,69.598L272.529,68.349L271.622,67.464L272.876,67.282L273.437,66.146Z" style="fill:white;fill-rule:nonzero;"/>
            <path d="M151.032,156.26L155.143,164.588L164.333,165.924L157.683,172.407L159.253,181.561L151.032,177.239L142.812,181.561L144.381,172.407L137.73,165.924L146.922,164.588L151.032,156.26Z" style="fill:white;fill-rule:nonzero;"/>
            <path d="M357.896,264.68L362.007,273.009L371.198,274.344L364.547,280.827L366.117,289.98L357.896,285.659L349.676,289.98L351.246,280.827L344.595,274.344L353.786,273.009L357.896,264.68Z" style="fill:white;fill-rule:nonzero;"/>
            <path d="M351.393,178.438L353.402,182.51L357.896,183.163L354.645,186.333L355.412,190.809L351.393,188.696L347.373,190.809L348.141,186.333L344.889,183.163L349.383,182.51L351.393,178.438Z" style="fill:white;fill-rule:nonzero;"/>
            <path d="M169.003,224.053L171.013,228.125L175.507,228.778L172.255,231.948L173.023,236.424L169.003,234.311L164.984,236.424L165.751,231.948L162.5,228.778L166.994,228.125L169.003,224.053Z" style="fill:white;fill-rule:nonzero;"/>
            <path d="M309.628,113.569L314.222,122.876L324.492,124.369L317.061,131.613L318.814,141.843L309.628,137.013L300.441,141.843L302.196,131.613L294.764,124.369L305.035,122.876L309.628,113.569Z" style="fill:white;fill-rule:nonzero;"/>
            <path d="M141.33,261.492L144.328,267.567L151.032,268.541L146.181,273.271L147.326,279.947L141.33,276.795L135.333,279.947L136.478,273.271L131.626,268.541L138.331,267.567L141.33,261.492Z" style="fill:white;fill-rule:nonzero;"/>
        </g>
    </g>
</svg>
