<?xml version="1.0" encoding="UTF-8" standalone="no"?>
<!DOCTYPE svg PUBLIC "-//W3C//DTD SVG 1.1//EN" "http://www.w3.org/Graphics/SVG/1.1/DTD/svg11.dtd">
<svg width="100%" height="100%" viewBox="0 0 2000 2000" version="1.1" xmlns="http://www.w3.org/2000/svg" xmlns:xlink="http://www.w3.org/1999/xlink" xml:space="preserve" xmlns:serif="http://www.serif.com/" style="fill-rule:evenodd;clip-rule:evenodd;stroke-miterlimit:2;">
    <g transform="matrix(8.114466,0,0,8.114466,-207.042228,-188.460787)">
        <g transform="matrix(1,0,0,1,-0.496547,-10.836746)">
            <g transform="matrix(1,0,0,1,-0.993093,1.840485)">
                <rect x="77.615" y="180.147" width="144.26" height="6.458" style="fill:rgb(238,38,37);fill-rule:nonzero;"/>
                <rect x="77.615" y="173.688" width="144.26" height="6.459" style="fill:white;fill-rule:nonzero;"/>
                <rect x="77.615" y="167.228" width="144.26" height="6.46" style="fill:rgb(238,38,37);fill-rule:nonzero;"/>
                <rect x="77.615" y="160.769" width="144.26" height="6.459" style="fill:white;fill-rule:nonzero;"/>
                <rect x="77.615" y="154.31" width="144.26" height="6.459" style="fill:rgb(238,38,37);fill-rule:nonzero;"/>
                <rect x="77.615" y="147.851" width="144.26" height="6.459" style="fill:white;fill-rule:nonzero;"/>
                <rect x="77.615" y="141.391" width="144.26" height="6.46" style="fill:rgb(238,38,37);fill-rule:nonzero;"/>
                <rect x="77.615" y="134.933" width="144.26" height="6.458" style="fill:white;fill-rule:nonzero;"/>
                <rect x="77.615" y="128.474" width="144.26" height="6.459" style="fill:rgb(238,38,37);fill-rule:nonzero;"/>
                <rect x="77.615" y="122.014" width="144.26" height="6.46" style="fill:white;fill-rule:nonzero;"/>
                <rect x="77.615" y="115.555" width="144.26" height="6.459" style="fill:rgb(238,38,37);fill-rule:nonzero;"/>
                <rect x="77.615" y="109.096" width="144.26" height="6.459" style="fill:white;fill-rule:nonzero;"/>
                <rect x="77.615" y="102.638" width="144.26" height="6.458" style="fill:rgb(238,38,37);fill-rule:nonzero;"/>
                <rect x="77.615" y="102.638" width="63.242" height="45.212" style="fill:rgb(16,82,165);fill-rule:nonzero;"/>
                <path d="M83.278,105.827L83.981,107.249L85.548,107.476L84.414,108.581L84.682,110.142L83.278,109.405L81.877,110.142L82.145,108.581L81.011,107.476L82.579,107.249L83.278,105.827Z" style="fill:white;fill-rule:nonzero;"/>
                <path d="M93.663,105.827L94.362,107.249L95.931,107.476L94.795,108.581L95.064,110.142L93.663,109.405L92.26,110.142L92.528,108.581L91.394,107.476L92.962,107.249L93.663,105.827Z" style="fill:white;fill-rule:nonzero;"/>
                <path d="M88.471,110.142L89.17,111.563L90.74,111.79L89.604,112.896L89.873,114.456L88.471,113.72L87.068,114.456L87.337,112.896L86.203,111.79L87.771,111.563L88.471,110.142Z" style="fill:white;fill-rule:nonzero;"/>
                <path d="M104.045,105.827L104.746,107.249L106.314,107.476L105.179,108.581L105.449,110.142L104.045,109.405L102.644,110.142L102.912,108.581L101.777,107.476L103.344,107.249L104.045,105.827Z" style="fill:white;fill-rule:nonzero;"/>
                <path d="M98.854,110.142L99.555,111.563L101.123,111.79L99.987,112.896L100.256,114.456L98.854,113.72L97.451,114.456L97.721,112.896L96.586,111.79L98.153,111.563L98.854,110.142Z" style="fill:white;fill-rule:nonzero;"/>
                <path d="M114.428,105.827L115.129,107.249L116.697,107.476L115.562,108.581L115.831,110.142L114.428,109.405L113.027,110.142L113.293,108.581L112.16,107.476L113.728,107.249L114.428,105.827Z" style="fill:white;fill-rule:nonzero;"/>
                <path d="M109.236,110.142L109.938,111.563L111.505,111.79L110.371,112.896L110.639,114.456L109.236,113.72L107.835,114.456L108.102,112.896L106.969,111.79L108.537,111.563L109.236,110.142Z" style="fill:white;fill-rule:nonzero;"/>
                <path d="M124.811,105.827L125.514,107.249L127.081,107.476L125.946,108.581L126.213,110.142L124.811,109.405L123.41,110.142L123.677,108.581L122.542,107.476L124.109,107.249L124.811,105.827Z" style="fill:white;fill-rule:nonzero;"/>
                <path d="M119.621,110.142L120.32,111.563L121.888,111.79L120.754,112.896L121.021,114.456L119.621,113.72L118.218,114.456L118.485,112.896L117.352,111.79L118.92,111.563L119.621,110.142Z" style="fill:white;fill-rule:nonzero;"/>
                <path d="M135.194,105.827L135.895,107.249L137.461,107.476L136.329,108.581L136.594,110.142L135.194,109.405L133.793,110.142L134.059,108.581L132.926,107.476L134.491,107.249L135.194,105.827Z" style="fill:white;fill-rule:nonzero;"/>
                <path d="M130.002,110.142L130.703,111.563L132.271,111.79L131.136,112.896L131.405,114.456L130.002,113.72L128.602,114.456L128.869,112.896L127.735,111.79L129.3,111.563L130.002,110.142Z" style="fill:white;fill-rule:nonzero;"/>
                <path d="M83.278,114.456L83.981,115.878L85.548,116.104L84.414,117.21L84.682,118.771L83.278,118.035L81.877,118.771L82.145,117.21L81.011,116.104L82.579,115.878L83.278,114.456Z" style="fill:white;fill-rule:nonzero;"/>
                <path d="M93.663,114.456L94.362,115.878L95.931,116.104L94.795,117.21L95.064,118.771L93.663,118.035L92.26,118.771L92.528,117.21L91.394,116.104L92.962,115.878L93.663,114.456Z" style="fill:white;fill-rule:nonzero;"/>
                <path d="M88.471,118.771L89.17,120.19L90.74,120.419L89.604,121.524L89.873,123.086L88.471,122.349L87.068,123.086L87.337,121.524L86.203,120.419L87.771,120.19L88.471,118.771Z" style="fill:white;fill-rule:nonzero;"/>
                <path d="M104.045,114.456L104.746,115.878L106.314,116.104L105.179,117.21L105.449,118.771L104.045,118.035L102.644,118.771L102.912,117.21L101.777,116.104L103.344,115.878L104.045,114.456Z" style="fill:white;fill-rule:nonzero;"/>
                <path d="M98.854,118.771L99.555,120.19L101.123,120.419L99.987,121.524L100.256,123.086L98.854,122.349L97.451,123.086L97.721,121.524L96.586,120.419L98.153,120.19L98.854,118.771Z" style="fill:white;fill-rule:nonzero;"/>
                <path d="M114.428,114.456L115.129,115.878L116.697,116.104L115.562,117.21L115.831,118.771L114.428,118.035L113.027,118.771L113.293,117.21L112.16,116.104L113.728,115.878L114.428,114.456Z" style="fill:white;fill-rule:nonzero;"/>
                <path d="M109.236,118.771L109.938,120.19L111.505,120.419L110.371,121.524L110.639,123.086L109.236,122.349L107.835,123.086L108.102,121.524L106.969,120.419L108.537,120.19L109.236,118.771Z" style="fill:white;fill-rule:nonzero;"/>
                <path d="M124.811,114.456L125.514,115.878L127.081,116.104L125.946,117.21L126.213,118.771L124.811,118.035L123.41,118.771L123.677,117.21L122.542,116.104L124.109,115.878L124.811,114.456Z" style="fill:white;fill-rule:nonzero;"/>
                <path d="M119.621,118.771L120.32,120.19L121.888,120.419L120.754,121.524L121.021,123.086L119.621,122.349L118.218,123.086L118.485,121.524L117.352,120.419L118.92,120.19L119.621,118.771Z" style="fill:white;fill-rule:nonzero;"/>
                <path d="M135.194,114.456L135.895,115.878L137.461,116.104L136.329,117.21L136.594,118.771L135.194,118.035L133.793,118.771L134.059,117.21L132.926,116.104L134.491,115.878L135.194,114.456Z" style="fill:white;fill-rule:nonzero;"/>
                <path d="M130.002,118.771L130.703,120.19L132.271,120.419L131.136,121.524L131.405,123.086L130.002,122.349L128.602,123.086L128.869,121.524L127.735,120.419L129.3,120.19L130.002,118.771Z" style="fill:white;fill-rule:nonzero;"/>
                <path d="M83.278,123.086L83.981,124.506L85.548,124.734L84.414,125.839L84.682,127.4L83.278,126.663L81.877,127.4L82.145,125.839L81.011,124.734L82.579,124.506L83.278,123.086Z" style="fill:white;fill-rule:nonzero;"/>
                <path d="M93.663,123.086L94.362,124.506L95.931,124.734L94.795,125.839L95.064,127.4L93.663,126.663L92.26,127.4L92.528,125.839L91.394,124.734L92.962,124.506L93.663,123.086Z" style="fill:white;fill-rule:nonzero;"/>
                <path d="M88.471,127.4L89.17,128.82L90.74,129.048L89.604,130.155L89.873,131.715L88.471,130.978L87.068,131.715L87.337,130.155L86.203,129.048L87.771,128.82L88.471,127.4Z" style="fill:white;fill-rule:nonzero;"/>
                <path d="M104.045,123.086L104.746,124.506L106.314,124.734L105.179,125.839L105.449,127.4L104.045,126.663L102.644,127.4L102.912,125.839L101.777,124.734L103.344,124.506L104.045,123.086Z" style="fill:white;fill-rule:nonzero;"/>
                <path d="M98.854,127.4L99.555,128.82L101.123,129.048L99.987,130.155L100.256,131.715L98.854,130.978L97.451,131.715L97.721,130.155L96.586,129.048L98.153,128.82L98.854,127.4Z" style="fill:white;fill-rule:nonzero;"/>
                <path d="M114.428,123.086L115.129,124.506L116.697,124.734L115.562,125.839L115.831,127.4L114.428,126.663L113.027,127.4L113.293,125.839L112.16,124.734L113.728,124.506L114.428,123.086Z" style="fill:white;fill-rule:nonzero;"/>
                <path d="M109.236,127.4L109.938,128.82L111.505,129.048L110.371,130.155L110.639,131.715L109.236,130.978L107.835,131.715L108.102,130.155L106.969,129.048L108.537,128.82L109.236,127.4Z" style="fill:white;fill-rule:nonzero;"/>
                <path d="M124.811,123.086L125.514,124.506L127.081,124.734L125.946,125.839L126.213,127.4L124.811,126.663L123.41,127.4L123.677,125.839L122.542,124.734L124.109,124.506L124.811,123.086Z" style="fill:white;fill-rule:nonzero;"/>
                <path d="M119.621,127.4L120.32,128.82L121.888,129.048L120.754,130.155L121.021,131.715L119.621,130.978L118.218,131.715L118.485,130.155L117.352,129.048L118.92,128.82L119.621,127.4Z" style="fill:white;fill-rule:nonzero;"/>
                <path d="M135.194,123.086L135.895,124.506L137.461,124.734L136.329,125.839L136.594,127.4L135.194,126.663L133.793,127.4L134.059,125.839L132.926,124.734L134.491,124.506L135.194,123.086Z" style="fill:white;fill-rule:nonzero;"/>
                <path d="M130.002,127.4L130.703,128.82L132.271,129.048L131.136,130.155L131.405,131.715L130.002,130.978L128.602,131.715L128.869,130.155L127.735,129.048L129.3,128.82L130.002,127.4Z" style="fill:white;fill-rule:nonzero;"/>
                <path d="M83.278,131.715L83.981,133.135L85.548,133.362L84.414,134.468L84.682,136.03L83.278,135.293L81.877,136.03L82.145,134.468L81.011,133.362L82.579,133.135L83.278,131.715Z" style="fill:white;fill-rule:nonzero;"/>
                <path d="M93.663,131.715L94.362,133.135L95.931,133.362L94.795,134.468L95.064,136.03L93.663,135.293L92.26,136.03L92.528,134.468L91.394,133.362L92.962,133.135L93.663,131.715Z" style="fill:white;fill-rule:nonzero;"/>
                <path d="M88.471,136.03L89.17,137.449L90.74,137.677L89.604,138.782L89.873,140.343L88.471,139.607L87.068,140.343L87.337,138.782L86.203,137.677L87.771,137.449L88.471,136.03Z" style="fill:white;fill-rule:nonzero;"/>
                <path d="M104.045,131.715L104.746,133.135L106.314,133.362L105.179,134.468L105.449,136.03L104.045,135.293L102.644,136.03L102.912,134.468L101.777,133.362L103.344,133.135L104.045,131.715Z" style="fill:white;fill-rule:nonzero;"/>
                <path d="M98.854,136.03L99.555,137.449L101.123,137.677L99.987,138.782L100.256,140.343L98.854,139.607L97.451,140.343L97.721,138.782L96.586,137.677L98.153,137.449L98.854,136.03Z" style="fill:white;fill-rule:nonzero;"/>
                <path d="M114.428,131.715L115.129,133.135L116.697,133.362L115.562,134.468L115.831,136.03L114.428,135.293L113.027,136.03L113.293,134.468L112.16,133.362L113.728,133.135L114.428,131.715Z" style="fill:white;fill-rule:nonzero;"/>
                <path d="M109.236,136.03L109.938,137.449L111.505,137.677L110.371,138.782L110.639,140.343L109.236,139.607L107.835,140.343L108.102,138.782L106.969,137.677L108.537,137.449L109.236,136.03Z" style="fill:white;fill-rule:nonzero;"/>
                <path d="M124.811,131.715L125.514,133.135L127.081,133.362L125.946,134.468L126.213,136.03L124.811,135.293L123.41,136.03L123.677,134.468L122.542,133.362L124.109,133.135L124.811,131.715Z" style="fill:white;fill-rule:nonzero;"/>
                <path d="M119.621,136.03L120.32,137.449L121.888,137.677L120.754,138.782L121.021,140.343L119.621,139.607L118.218,140.343L118.485,138.782L117.352,137.677L118.92,137.449L119.621,136.03Z" style="fill:white;fill-rule:nonzero;"/>
                <path d="M135.194,131.715L135.895,133.135L137.461,133.362L136.329,134.468L136.594,136.03L135.194,135.293L133.793,136.03L134.059,134.468L132.926,133.362L134.491,133.135L135.194,131.715Z" style="fill:white;fill-rule:nonzero;"/>
                <path d="M130.002,136.03L130.703,137.449L132.271,137.677L131.136,138.782L131.405,140.343L130.002,139.607L128.602,140.343L128.869,138.782L127.735,137.677L129.3,137.449L130.002,136.03Z" style="fill:white;fill-rule:nonzero;"/>
                <path d="M83.278,140.343L83.981,141.765L85.548,141.992L84.414,143.097L84.682,144.659L83.278,143.922L81.877,144.659L82.145,143.097L81.011,141.992L82.579,141.765L83.278,140.343Z" style="fill:white;fill-rule:nonzero;"/>
                <path d="M93.663,140.343L94.362,141.765L95.931,141.992L94.795,143.097L95.064,144.659L93.663,143.922L92.26,144.659L92.528,143.097L91.394,141.992L92.962,141.765L93.663,140.343Z" style="fill:white;fill-rule:nonzero;"/>
                <path d="M104.045,140.343L104.746,141.765L106.314,141.992L105.179,143.097L105.449,144.659L104.045,143.922L102.644,144.659L102.912,143.097L101.777,141.992L103.344,141.765L104.045,140.343Z" style="fill:white;fill-rule:nonzero;"/>
                <path d="M114.428,140.343L115.129,141.765L116.697,141.992L115.562,143.097L115.831,144.659L114.428,143.922L113.027,144.659L113.293,143.097L112.16,141.992L113.728,141.765L114.428,140.343Z" style="fill:white;fill-rule:nonzero;"/>
                <path d="M124.811,140.343L125.514,141.765L127.081,141.992L125.946,143.097L126.213,144.659L124.811,143.922L123.41,144.659L123.677,143.097L122.542,141.992L124.109,141.765L124.811,140.343Z" style="fill:white;fill-rule:nonzero;"/>
                <path d="M135.194,140.343L135.895,141.765L137.461,141.992L136.329,143.097L136.594,144.659L135.194,143.922L133.793,144.659L134.059,143.097L132.926,141.992L134.491,141.765L135.194,140.343Z" style="fill:white;fill-rule:nonzero;"/>
            </g>
            <g>
                <path d="M77.257,197.721L100.156,197.721" style="fill:none;stroke:rgb(16,82,165);stroke-width:0.12px;"/>
                <path d="M77.257,202.896L100.156,202.896" style="fill:none;stroke:rgb(16,82,165);stroke-width:0.12px;"/>
                <path d="M77.257,208.07L100.156,208.07" style="fill:none;stroke:rgb(16,82,165);stroke-width:0.12px;"/>
                <path d="M198.978,197.721L221.875,197.721" style="fill:none;stroke:rgb(16,82,165);stroke-width:0.12px;"/>
                <path d="M198.978,202.896L221.875,202.896" style="fill:none;stroke:rgb(16,82,165);stroke-width:0.12px;"/>
                <path d="M198.978,208.07L221.875,208.07" style="fill:none;stroke:rgb(16,82,165);stroke-width:0.12px;"/>
                <path d="M113.23,196.773L111.607,197.057C108.888,197.472 105.34,198.057 105.34,200.926C105.34,202.304 106.283,203.418 107.605,203.418C107.812,203.437 108.001,203.248 108.02,203.04C108.02,202.814 107.85,202.625 107.624,202.625C106.793,202.625 106.095,201.927 106.132,200.926C106.132,198.68 109.36,198.208 111.739,197.83C112.135,197.774 112.513,197.717 112.89,197.642C111.531,201.455 110.21,206.004 110.21,207.193C110.21,208.666 110.87,209.666 112.267,209.704L112.305,209.704C114.004,209.704 115.193,208.496 116.231,206.816C116.213,207.024 116.213,207.212 116.213,207.401C116.213,208.439 116.534,209.175 117.515,209.175C119.157,209.175 120.063,207.288 120.743,205.853C120.856,205.646 120.951,205.438 121.026,205.268C121.045,205.211 121.064,205.136 121.064,205.079C121.064,204.928 120.951,204.683 120.668,204.683C120.535,204.683 120.384,204.758 120.309,204.909C120.215,205.079 120.139,205.306 120.026,205.513C119.441,206.759 118.648,208.383 117.515,208.383C117.138,208.383 117.005,207.967 117.005,207.401C117.005,206.117 117.609,204.286 117.855,203.55L118.874,200.7L120.724,195.622C120.743,195.565 120.743,195.527 120.743,195.471C120.743,195.282 120.611,195.093 120.366,195.093C120.196,195.093 120.045,195.188 119.988,195.358C119.327,197.113 118.685,198.906 118.119,200.435C116.326,205.381 114.872,208.892 112.305,208.892L112.286,208.892C111.342,208.892 111.003,208.213 111.003,207.193C111.003,206.08 112.758,200.077 113.815,197.472C115.155,197.113 116.515,196.396 116.515,195.509C116.515,194.905 116.062,194.489 115.401,194.489C114.438,194.489 113.645,195.678 113.23,196.773ZM114.193,196.528C114.495,195.886 114.986,195.244 115.401,195.244C115.552,195.244 115.665,195.358 115.665,195.509C115.665,195.811 114.986,196.358 114.193,196.528Z" style="fill:rgb(238,38,37);fill-rule:nonzero;"/>
                <path d="M128.369,204.683C128.313,204.664 128.256,204.645 128.199,204.645C128.048,204.645 127.916,204.739 127.841,204.89C126.689,207.382 126.01,208.383 125.122,208.383C124.726,208.383 124.556,208.137 124.556,207.59C124.556,206.136 126.029,203.663 126.029,201.983C126.029,200.983 125.613,200.209 124.254,200.209C123.631,200.209 123.046,200.568 122.499,201.134L122.65,200.756C122.744,200.511 122.555,200.228 122.272,200.228C122.102,200.228 121.951,200.322 121.894,200.492C121.158,202.512 119.969,205.929 118.987,208.647C118.912,208.873 119.025,209.081 119.233,209.157C119.44,209.213 119.667,209.119 119.743,208.892L121.064,205.155C121.668,203.55 123.103,201.002 124.254,201.002C124.99,201.002 125.236,201.436 125.236,201.983C125.236,203.626 123.763,205.815 123.763,207.59C123.763,208.515 124.216,209.175 125.122,209.175C126.406,209.175 127.293,208.062 128.577,205.211C128.596,205.155 128.615,205.098 128.615,205.041C128.615,204.89 128.52,204.758 128.369,204.683Z" style="fill:rgb(238,38,37);fill-rule:nonzero;"/>
                <path d="M130.597,199.284C130.955,199.284 131.238,199.001 131.238,198.642C131.238,198.284 130.955,198 130.597,198C130.238,198 129.936,198.284 129.936,198.642C129.936,199.001 130.238,199.284 130.597,199.284ZM131.842,204.683C131.786,204.664 131.748,204.645 131.691,204.645C131.54,204.645 131.389,204.739 131.314,204.89C130.615,206.438 129.747,208.383 128.577,208.383C128.18,208.383 128.01,208.137 128.01,207.59C128.01,206.778 128.35,205.91 130.181,200.756C130.295,200.435 130.049,200.247 129.804,200.247C129.653,200.247 129.502,200.341 129.445,200.511C128.615,202.663 127.274,206.117 127.218,207.59C127.18,208.458 127.671,209.175 128.577,209.175C130.162,209.175 131.144,207.25 132.05,205.211C132.069,205.155 132.088,205.098 132.088,205.041C132.088,204.89 131.993,204.739 131.842,204.683Z" style="fill:rgb(238,38,37);fill-rule:nonzero;"/>
                <path d="M135.788,204.683C135.731,204.664 135.674,204.645 135.618,204.645C135.467,204.645 135.316,204.739 135.24,204.872C134.353,206.816 133.447,208.383 132.088,208.383C131.71,208.383 131.484,208.1 131.484,207.59C131.484,207.042 131.729,206.174 132.503,203.984C133.126,202.229 133.447,201.36 133.56,201.002L135.108,201.002C135.335,201.002 135.504,200.832 135.504,200.605C135.504,200.398 135.335,200.209 135.108,200.209L133.843,200.209C133.975,199.85 134.787,197.547 134.73,197.661C134.825,197.415 134.636,197.132 134.353,197.132C134.183,197.132 134.032,197.226 133.975,197.396C133.956,197.472 133.032,200.133 132.994,200.209L131.54,200.209C131.314,200.209 131.144,200.398 131.144,200.605C131.144,200.832 131.314,201.002 131.54,201.002L132.729,201.002L131.767,203.701C131.163,205.249 130.691,206.891 130.691,207.59C130.691,208.496 131.182,209.175 132.088,209.175C133.824,209.175 134.881,207.571 135.976,205.211C135.995,205.155 136.014,205.098 136.014,205.041C136.014,204.89 135.92,204.758 135.788,204.683Z" style="fill:rgb(238,38,37);fill-rule:nonzero;"/>
                <path d="M141.753,204.683C141.545,204.607 141.318,204.702 141.224,204.89C140.167,207.326 138.959,208.42 137.411,208.383C136.278,208.345 135.674,207.684 135.712,206.608C135.731,206.212 135.787,205.853 135.92,205.362C138.015,204.853 140.828,203.645 140.828,201.644C140.828,200.738 140.167,200.247 139.223,200.247C136.996,200.247 135.032,204.173 134.919,206.589C134.881,208.137 135.825,209.175 137.392,209.175C139.299,209.175 140.733,207.93 141.96,205.211C141.979,205.155 141.998,205.117 141.998,205.06C141.998,204.909 141.904,204.758 141.753,204.683ZM136.222,204.456C136.826,203.003 137.921,201.04 139.223,201.04C139.638,201.04 140.035,201.134 140.035,201.644C140.035,203.04 137.788,203.965 136.222,204.456Z" style="fill:rgb(238,38,37);fill-rule:nonzero;"/>
                <path d="M149.87,204.683C149.813,204.664 149.756,204.645 149.719,204.645C149.567,204.645 149.416,204.739 149.341,204.872C148.454,206.816 147.548,208.383 146.189,208.383C145.754,208.383 145.584,208.043 145.584,207.59C145.584,207.099 145.924,205.985 146.207,205.117C146.377,204.588 148.624,198.17 148.812,197.623C148.888,197.415 148.756,197.094 148.435,197.094C148.284,197.094 148.133,197.189 148.076,197.34L147.076,200.228L146.717,201.209C146.415,200.624 145.868,200.247 145.018,200.247C142.734,200.247 140.846,204.664 140.846,207.137C140.846,208.269 141.337,209.175 142.394,209.175C143.357,209.175 144.131,208.458 144.792,207.514C144.792,208.571 145.301,209.175 146.189,209.175C147.925,209.175 148.982,207.571 150.077,205.211C150.096,205.155 150.115,205.098 150.115,205.041C150.115,204.89 150.021,204.758 149.87,204.683ZM142.375,208.383C141.809,208.383 141.639,207.835 141.639,207.005C141.677,205.136 143.281,201.096 145.018,201.04C145.754,201.04 146.189,201.549 146.226,202.418C146.226,202.455 146.226,202.493 146.207,202.55C146.075,202.852 145.943,203.229 145.773,203.626C145.018,205.551 143.904,208.383 142.375,208.383Z" style="fill:rgb(238,38,37);fill-rule:nonzero;"/>
                <path d="M164.272,196.452C164.31,195.678 163.895,195.056 163.102,195.056C161.818,195.056 161.044,196.471 161.044,197.793C161.044,197.963 161.063,198.114 161.082,198.284C160.837,198.302 160.572,198.321 160.27,198.321C158.118,198.321 156.552,197.396 155.627,195.471C155.551,195.32 155.419,195.244 155.268,195.244C155.117,195.244 154.872,195.358 154.872,195.622C154.872,195.697 154.89,195.754 154.909,195.811C155.985,198.019 157.816,199.114 160.308,199.114C160.648,199.114 160.95,199.095 161.233,199.076C161.441,199.831 161.78,200.605 162.139,201.398C162.687,202.606 163.253,203.852 163.253,205.155C163.253,207.514 161.535,209.326 159.043,209.326C157.024,209.326 155.476,208.005 155.476,206.117C155.476,204.324 156.835,202.738 158.496,202.738C159.666,202.738 160.44,203.758 160.327,204.853C160.308,205.098 160.497,205.287 160.742,205.287C160.931,205.287 161.063,205.136 161.101,205.004C161.139,204.853 161.139,204.739 161.139,204.664C161.139,203.21 160.063,201.946 158.496,201.946C156.457,201.946 154.683,203.814 154.683,206.061C154.683,208.364 156.476,210.119 158.987,210.119C161.837,210.119 164.046,208.118 164.046,205.155C164.046,203.701 163.442,202.361 162.856,201.077C162.517,200.341 162.196,199.624 162.007,198.925C163.404,198.491 164.216,197.566 164.272,196.452ZM163.479,196.452C163.479,196.754 163.442,197.547 161.875,198.132C161.856,198.019 161.856,197.887 161.856,197.774C161.856,196.924 162.252,195.848 163.026,195.848C163.328,195.848 163.479,196.056 163.479,196.452Z" style="fill:rgb(238,38,37);fill-rule:nonzero;"/>
                <path d="M169.897,204.683C169.841,204.664 169.784,204.645 169.728,204.645C169.577,204.645 169.426,204.739 169.35,204.872C168.463,206.816 167.557,208.383 166.198,208.383C165.82,208.383 165.593,208.1 165.593,207.59C165.593,207.042 165.839,206.174 166.613,203.984C167.236,202.229 167.557,201.36 167.67,201.002L169.218,201.002C169.444,201.002 169.614,200.832 169.614,200.605C169.614,200.398 169.444,200.209 169.218,200.209L167.953,200.209C168.085,199.85 168.897,197.547 168.84,197.661C168.935,197.415 168.746,197.132 168.463,197.132C168.293,197.132 168.142,197.226 168.085,197.396C168.066,197.472 167.141,200.133 167.104,200.209L165.65,200.209C165.424,200.209 165.254,200.398 165.254,200.605C165.254,200.832 165.424,201.002 165.65,201.002L166.839,201.002L165.877,203.701C165.273,205.249 164.801,206.891 164.801,207.59C164.801,208.496 165.291,209.175 166.198,209.175C167.934,209.175 168.991,207.571 170.086,205.211C170.105,205.155 170.124,205.098 170.124,205.041C170.124,204.89 170.03,204.758 169.897,204.683Z" style="fill:rgb(238,38,37);fill-rule:nonzero;"/>
                <path d="M177.486,204.683C177.429,204.664 177.373,204.645 177.316,204.645C177.165,204.645 177.033,204.739 176.957,204.89L176.938,204.947C176.315,206.344 175.409,208.383 174.239,208.383C173.843,208.383 173.673,208.156 173.673,207.59C173.673,206.759 174.296,205.117 174.975,203.21L175.919,200.681C176.013,200.454 175.862,200.152 175.56,200.152C175.39,200.152 175.239,200.247 175.183,200.398C175.088,200.643 174.975,200.926 174.862,201.247C174.522,200.568 173.937,200.247 173.144,200.247C170.879,200.247 168.972,204.664 168.972,207.137C168.972,208.269 169.463,209.175 170.52,209.175C171.332,209.175 172.125,208.647 172.88,207.59C172.88,208.515 173.333,209.175 174.239,209.175C175.938,209.175 176.957,206.854 177.675,205.268L177.693,205.211C177.712,205.155 177.731,205.098 177.731,205.041C177.731,204.89 177.637,204.758 177.486,204.683ZM170.501,208.383C169.935,208.383 169.765,207.835 169.765,207.005C169.803,205.136 171.407,201.077 173.144,201.04C173.824,201.04 174.315,201.549 174.352,202.418L173.899,203.626C173.144,205.551 172.03,208.383 170.501,208.383Z" style="fill:rgb(238,38,37);fill-rule:nonzero;"/>
                <path d="M181.431,204.683C181.375,204.664 181.318,204.645 181.261,204.645C181.11,204.645 180.959,204.739 180.884,204.872C179.997,206.816 179.09,208.383 177.731,208.383C177.354,208.383 177.127,208.1 177.127,207.59C177.127,207.042 177.373,206.174 178.147,203.984C178.77,202.229 179.09,201.36 179.204,201.002L180.752,201.002C180.978,201.002 181.148,200.832 181.148,200.605C181.148,200.398 180.978,200.209 180.752,200.209L179.487,200.209C179.619,199.85 180.431,197.547 180.374,197.661C180.468,197.415 180.28,197.132 179.997,197.132C179.827,197.132 179.676,197.226 179.619,197.396C179.6,197.472 178.675,200.133 178.637,200.209L177.184,200.209C176.957,200.209 176.787,200.398 176.787,200.605C176.787,200.832 176.957,201.002 177.184,201.002L178.373,201.002L177.41,203.701C176.806,205.249 176.334,206.891 176.334,207.59C176.334,208.496 176.825,209.175 177.731,209.175C179.468,209.175 180.525,207.571 181.62,205.211C181.639,205.155 181.658,205.098 181.658,205.041C181.658,204.89 181.563,204.758 181.431,204.683Z" style="fill:rgb(238,38,37);fill-rule:nonzero;"/>
                <path d="M187.396,204.683C187.188,204.607 186.962,204.702 186.868,204.89C185.81,207.326 184.602,208.42 183.054,208.383C181.922,208.345 181.318,207.684 181.356,206.608C181.374,206.212 181.431,205.853 181.563,205.362C183.659,204.853 186.471,203.645 186.471,201.644C186.471,200.738 185.81,200.247 184.867,200.247C182.639,200.247 180.676,204.173 180.563,206.589C180.525,208.137 181.469,209.175 183.036,209.175C184.942,209.175 186.377,207.93 187.604,205.211C187.623,205.155 187.642,205.117 187.642,205.06C187.642,204.909 187.547,204.758 187.396,204.683ZM181.865,204.456C182.469,203.003 183.564,201.04 184.867,201.04C185.282,201.04 185.678,201.134 185.678,201.644C185.678,203.04 183.432,203.965 181.865,204.456Z" style="fill:rgb(238,38,37);fill-rule:nonzero;"/>
                <path d="M192.776,205.834C192.757,204.551 192.247,203.89 191.266,202.078C191.851,201.417 192.323,200.586 192.323,199.831C192.285,199.284 191.964,198.85 191.417,198.85C190.643,198.85 190.039,199.68 190.039,200.662C190.039,201.096 190.152,201.511 190.322,201.908C190.095,202.134 189.907,202.342 189.68,202.606C189.624,202.682 189.586,202.776 189.586,202.852C189.586,202.965 189.624,203.097 189.718,203.173C189.793,203.248 189.907,203.267 190.001,203.267C190.114,203.267 190.228,203.21 190.303,203.116C190.416,202.965 190.549,202.814 190.681,202.682C191.681,204.437 191.964,204.985 191.983,205.815C191.945,207.382 190.851,208.383 189.322,208.383C188.227,208.383 187.264,207.571 187.264,206.419C187.339,205.268 188.019,204.4 189.057,204.4C189.548,204.4 190.02,204.872 190.058,205.513C190.058,205.74 190.228,205.91 190.454,205.91C190.681,205.91 190.851,205.74 190.851,205.513C190.813,204.475 190.02,203.607 189.038,203.607C187.528,203.607 186.584,204.721 186.471,206.419C186.471,207.948 187.755,209.175 189.322,209.175C191.228,209.175 192.738,207.873 192.776,205.834ZM190.926,201.247C190.869,201.04 190.832,200.851 190.832,200.643C190.832,200.379 190.888,200.039 191.115,199.813C191.304,199.624 191.511,199.567 191.511,199.831C191.511,200.247 191.228,200.832 190.926,201.247Z" style="fill:rgb(238,38,37);fill-rule:nonzero;"/>
            </g>
        </g>
        <path d="M234.059,96.587C233.911,97.463 233.88,98.442 234.065,99.401C234.296,100.363 234.68,101.296 235.205,102.089C236.223,103.674 237.687,104.252 238.775,103.978C238.731,103.187 238.721,102.325 238.462,101.469C238.243,100.611 237.808,99.749 237.357,98.961C236.454,97.388 235.197,96.479 234.059,96.587Z" style="fill:rgb(16,82,165);fill-rule:nonzero;"/>
        <path d="M240.173,99.117C239.583,99.795 239.254,100.618 239.004,101.466C238.795,102.314 238.637,103.193 238.827,103.975C239.975,104.1 241.186,103.325 242.266,101.96C242.789,101.278 243.17,100.536 243.396,99.789C243.671,99.043 243.854,98.299 243.839,97.601C242.741,97.304 241.356,97.753 240.173,99.117Z" style="fill:rgb(16,82,165);fill-rule:nonzero;"/>
        <path d="M234.059,103.416C233.911,104.292 233.88,105.271 234.065,106.229C234.296,107.192 234.68,108.125 235.205,108.918C236.223,110.503 237.687,111.082 238.775,110.806C238.731,110.016 238.721,109.154 238.462,108.298C238.243,107.44 237.808,106.578 237.357,105.79C236.454,104.216 235.197,103.308 234.059,103.416Z" style="fill:rgb(16,82,165);fill-rule:nonzero;"/>
        <path d="M240.173,105.946C239.583,106.624 239.254,107.447 239.004,108.295C238.795,109.143 238.637,110.022 238.827,110.804C239.975,110.929 241.186,110.154 242.266,108.789C242.789,108.107 243.17,107.365 243.396,106.618C243.671,105.872 243.854,105.128 243.839,104.429C242.741,104.132 241.356,104.582 240.173,105.946Z" style="fill:rgb(16,82,165);fill-rule:nonzero;"/>
        <path d="M234.059,110.245C233.911,111.121 233.88,112.1 234.065,113.059C234.296,114.021 234.68,114.954 235.205,115.747C236.223,117.332 237.687,117.91 238.775,117.635C238.731,116.844 238.721,115.983 238.462,115.127C238.243,114.269 237.808,113.407 237.357,112.619C236.454,111.045 235.197,110.136 234.059,110.245Z" style="fill:rgb(16,82,165);fill-rule:nonzero;"/>
        <path d="M240.173,112.775C239.583,113.453 239.254,114.276 239.004,115.124C238.795,115.972 238.637,116.851 238.827,117.633C239.975,117.758 241.186,116.983 242.266,115.618C242.789,114.937 243.17,114.194 243.396,113.446C243.671,112.701 243.854,111.957 243.839,111.258C242.741,110.961 241.356,111.411 240.173,112.775Z" style="fill:rgb(16,82,165);fill-rule:nonzero;"/>
        <path d="M234.059,117.074C233.911,117.95 233.88,118.929 234.065,119.887C234.296,120.85 234.68,121.783 235.205,122.576C236.223,124.161 237.687,124.739 238.775,124.464C238.731,123.673 238.721,122.812 238.462,121.957C238.243,121.098 237.808,120.236 237.357,119.447C236.454,117.875 235.197,116.965 234.059,117.074Z" style="fill:rgb(16,82,165);fill-rule:nonzero;"/>
        <path d="M240.173,119.604C239.583,120.282 239.254,121.104 239.004,121.953C238.795,122.801 238.637,123.68 238.827,124.462C239.975,124.587 241.186,123.812 242.266,122.447C242.789,121.766 243.17,121.022 243.396,120.275C243.671,119.53 243.854,118.786 243.839,118.087C242.741,117.79 241.356,118.24 240.173,119.604Z" style="fill:rgb(16,82,165);fill-rule:nonzero;"/>
        <path d="M234.059,123.903C233.911,124.779 233.88,125.758 234.065,126.716C234.296,127.679 234.68,128.612 235.205,129.405C236.223,130.99 237.687,131.568 238.775,131.293C238.731,130.502 238.721,129.641 238.462,128.785C238.243,127.927 237.808,127.065 237.357,126.276C236.454,124.704 235.197,123.794 234.059,123.903Z" style="fill:rgb(16,82,165);fill-rule:nonzero;"/>
        <path d="M240.173,126.433C239.583,127.111 239.254,127.934 239.004,128.782C238.795,129.63 238.637,130.509 238.827,131.291C239.975,131.416 241.186,130.641 242.266,129.276C242.789,128.595 243.17,127.852 243.396,127.104C243.671,126.359 243.854,125.615 243.839,124.916C242.741,124.619 241.356,125.068 240.173,126.433Z" style="fill:rgb(16,82,165);fill-rule:nonzero;"/>
        <path d="M234.059,130.732C233.911,131.608 233.88,132.587 234.065,133.545C234.296,134.508 234.68,135.441 235.205,136.234C236.223,137.819 237.687,138.397 238.775,138.123C238.731,137.332 238.721,136.47 238.462,135.614C238.243,134.756 237.808,133.894 237.357,133.105C236.454,131.532 235.197,130.624 234.059,130.732Z" style="fill:rgb(16,82,165);fill-rule:nonzero;"/>
        <path d="M240.173,133.262C239.583,133.94 239.254,134.763 239.004,135.611C238.795,136.459 238.637,137.338 238.827,138.12C239.975,138.245 241.186,137.47 242.266,136.105C242.789,135.423 243.17,134.681 243.396,133.934C243.671,133.188 243.854,132.444 243.839,131.745C242.741,131.448 241.356,131.897 240.173,133.262Z" style="fill:rgb(16,82,165);fill-rule:nonzero;"/>
        <path d="M238.879,99.643C239.086,99.384 239.27,99.082 239.428,98.742C239.58,98.401 239.719,98.024 239.879,97.618C240.167,96.8 240.347,95.868 240.376,94.867C240.375,94.616 240.375,94.368 240.377,94.123C240.39,93.883 240.394,93.645 240.389,93.414C240.38,92.946 240.335,92.501 240.259,92.08C240.104,91.237 239.823,90.496 239.446,89.931C238.941,90.334 238.478,90.977 238.106,91.793C237.92,92.2 237.756,92.652 237.622,93.135C237.554,93.376 237.494,93.628 237.442,93.883C237.401,94.141 237.395,94.406 237.382,94.677C237.348,95.757 237.469,96.775 237.707,97.63C237.812,98.06 237.992,98.447 238.206,98.786C238.411,99.124 238.638,99.411 238.879,99.643Z" style="fill:rgb(16,82,165);fill-rule:nonzero;"/>
        <path d="M234.059,199.112C233.911,198.236 233.88,197.257 234.065,196.299C234.296,195.336 234.68,194.403 235.205,193.61C236.223,192.025 237.687,191.447 238.775,191.722C238.731,192.513 238.721,193.375 238.462,194.229C238.243,195.088 237.808,195.95 237.357,196.739C236.454,198.312 235.197,199.221 234.059,199.112Z" style="fill:rgb(16,82,165);fill-rule:nonzero;"/>
        <path d="M240.173,196.583C239.583,195.904 239.254,195.082 239.004,194.233C238.795,193.385 238.637,192.506 238.827,191.724C239.975,191.599 241.186,192.374 242.266,193.739C242.789,194.42 243.17,195.164 243.396,195.911C243.671,196.656 243.854,197.4 243.839,198.099C242.741,198.396 241.356,197.946 240.173,196.583Z" style="fill:rgb(16,82,165);fill-rule:nonzero;"/>
        <path d="M234.059,192.283C233.911,191.407 233.88,190.428 234.065,189.47C234.296,188.507 234.68,187.574 235.205,186.781C236.223,185.196 237.687,184.618 238.775,184.893C238.731,185.684 238.721,186.545 238.462,187.401C238.243,188.259 237.808,189.121 237.357,189.91C236.454,191.482 235.197,192.392 234.059,192.283Z" style="fill:rgb(16,82,165);fill-rule:nonzero;"/>
        <path d="M240.173,189.753C239.583,189.075 239.254,188.252 239.004,187.404C238.795,186.556 238.637,185.677 238.827,184.895C239.975,184.77 241.186,185.545 242.266,186.91C242.789,187.591 243.17,188.334 243.396,189.082C243.671,189.827 243.854,190.571 243.839,191.27C242.741,191.567 241.356,191.117 240.173,189.753Z" style="fill:rgb(16,82,165);fill-rule:nonzero;"/>
        <path d="M234.059,185.454C233.911,184.578 233.88,183.599 234.065,182.641C234.296,181.678 234.68,180.745 235.205,179.952C236.223,178.367 237.687,177.789 238.775,178.063C238.731,178.854 238.721,179.716 238.462,180.572C238.243,181.43 237.808,182.292 237.357,183.081C236.454,184.653 235.197,185.563 234.059,185.454Z" style="fill:rgb(16,82,165);fill-rule:nonzero;"/>
        <path d="M240.173,182.924C239.583,182.246 239.254,181.423 239.004,180.575C238.795,179.727 238.637,178.848 238.827,178.066C239.975,177.941 241.186,178.716 242.266,180.081C242.789,180.763 243.17,181.505 243.396,182.252C243.671,182.998 243.854,183.742 243.839,184.441C242.741,184.738 241.356,184.289 240.173,182.924Z" style="fill:rgb(16,82,165);fill-rule:nonzero;"/>
        <path d="M234.059,178.625C233.911,177.75 233.88,176.77 234.065,175.812C234.296,174.85 234.68,173.916 235.205,173.123C236.223,171.539 237.687,170.959 238.775,171.235C238.731,172.025 238.721,172.887 238.462,173.743C238.243,174.601 237.808,175.463 237.357,176.251C236.454,177.825 235.197,178.734 234.059,178.625Z" style="fill:rgb(16,82,165);fill-rule:nonzero;"/>
        <path d="M240.173,176.095C239.583,175.417 239.254,174.594 239.004,173.746C238.795,172.898 238.637,172.019 238.827,171.237C239.975,171.112 241.186,171.887 242.266,173.252C242.789,173.934 243.17,174.676 243.396,175.424C243.671,176.169 243.854,176.913 243.839,177.612C242.741,177.909 241.356,177.459 240.173,176.095Z" style="fill:rgb(16,82,165);fill-rule:nonzero;"/>
        <path d="M234.059,171.796C233.911,170.92 233.88,169.941 234.065,168.983C234.296,168.021 234.68,167.087 235.205,166.294C236.223,164.709 237.687,164.131 238.775,164.406C238.731,165.197 238.721,166.058 238.462,166.914C238.243,167.772 237.808,168.634 237.357,169.423C236.454,170.996 235.197,171.905 234.059,171.796Z" style="fill:rgb(16,82,165);fill-rule:nonzero;"/>
        <path d="M240.173,169.266C239.583,168.588 239.254,167.765 239.004,166.917C238.795,166.069 238.637,165.19 238.827,164.408C239.975,164.283 241.186,165.058 242.266,166.423C242.789,167.104 243.17,167.848 243.396,168.595C243.671,169.34 243.854,170.084 243.839,170.783C242.741,171.08 241.356,170.63 240.173,169.266Z" style="fill:rgb(16,82,165);fill-rule:nonzero;"/>
        <path d="M234.059,164.967C233.911,164.091 233.88,163.112 234.065,162.154C234.296,161.191 234.68,160.258 235.205,159.465C236.223,157.88 237.687,157.302 238.775,157.577C238.731,158.368 238.721,159.229 238.462,160.085C238.243,160.943 237.808,161.805 237.357,162.594C236.454,164.167 235.197,165.076 234.059,164.967Z" style="fill:rgb(16,82,165);fill-rule:nonzero;"/>
        <path d="M240.173,162.438C239.583,161.759 239.254,160.937 239.004,160.088C238.795,159.24 238.637,158.361 238.827,157.579C239.975,157.454 241.186,158.229 242.266,159.594C242.789,160.275 243.17,161.019 243.396,161.766C243.671,162.511 243.854,163.255 243.839,163.954C242.741,164.251 241.356,163.801 240.173,162.438Z" style="fill:rgb(16,82,165);fill-rule:nonzero;"/>
        <path d="M238.879,196.057C239.086,196.315 239.27,196.617 239.428,196.957C239.58,197.298 239.719,197.676 239.879,198.082C240.167,198.899 240.347,199.831 240.376,200.832C240.375,201.084 240.375,201.332 240.377,201.576C240.39,201.816 240.394,202.055 240.389,202.286C240.38,202.753 240.335,203.199 240.259,203.62C240.104,204.462 239.823,205.203 239.446,205.769C238.941,205.365 238.478,204.723 238.106,203.907C237.92,203.5 237.756,203.048 237.622,202.565C237.554,202.323 237.494,202.072 237.442,201.816C237.401,201.558 237.395,201.293 237.382,201.022C237.348,199.942 237.469,198.925 237.707,198.07C237.812,197.64 237.992,197.252 238.206,196.914C238.411,196.576 238.638,196.289 238.879,196.057Z" style="fill:rgb(16,82,165);fill-rule:nonzero;"/>
        <path d="M238.742,144.863L239.412,146.927L241.582,146.927L239.826,148.202L240.497,150.265L238.742,148.99L236.986,150.265L237.657,148.202L235.902,146.927L238.071,146.927L238.742,144.863Z" style="fill:rgb(238,38,37);fill-rule:nonzero;"/>
        <path d="M53.786,96.587C53.638,97.463 53.607,98.442 53.792,99.401C54.023,100.363 54.407,101.296 54.932,102.089C55.95,103.674 57.414,104.252 58.502,103.978C58.459,103.187 58.448,102.325 58.189,101.469C57.97,100.611 57.535,99.749 57.085,98.961C56.181,97.388 54.924,96.479 53.786,96.587Z" style="fill:rgb(16,82,165);fill-rule:nonzero;"/>
        <path d="M59.9,99.117C59.31,99.795 58.981,100.618 58.731,101.466C58.522,102.314 58.364,103.193 58.554,103.975C59.702,104.1 60.913,103.325 61.993,101.96C62.516,101.278 62.897,100.536 63.123,99.789C63.398,99.043 63.582,98.299 63.566,97.601C62.468,97.304 61.083,97.753 59.9,99.117Z" style="fill:rgb(16,82,165);fill-rule:nonzero;"/>
        <path d="M53.786,103.416C53.638,104.292 53.607,105.271 53.792,106.229C54.023,107.192 54.407,108.125 54.932,108.918C55.95,110.503 57.414,111.082 58.502,110.806C58.459,110.016 58.448,109.154 58.189,108.298C57.97,107.44 57.535,106.578 57.085,105.79C56.181,104.216 54.924,103.308 53.786,103.416Z" style="fill:rgb(16,82,165);fill-rule:nonzero;"/>
        <path d="M59.9,105.946C59.31,106.624 58.981,107.447 58.731,108.295C58.522,109.143 58.364,110.022 58.554,110.804C59.702,110.929 60.913,110.154 61.993,108.789C62.516,108.107 62.897,107.365 63.123,106.618C63.398,105.872 63.582,105.128 63.566,104.429C62.468,104.132 61.083,104.582 59.9,105.946Z" style="fill:rgb(16,82,165);fill-rule:nonzero;"/>
        <path d="M53.786,110.245C53.638,111.121 53.607,112.1 53.792,113.059C54.023,114.021 54.407,114.954 54.932,115.747C55.95,117.332 57.414,117.91 58.502,117.635C58.459,116.844 58.448,115.983 58.189,115.127C57.97,114.269 57.535,113.407 57.085,112.619C56.181,111.045 54.924,110.136 53.786,110.245Z" style="fill:rgb(16,82,165);fill-rule:nonzero;"/>
        <path d="M59.9,112.775C59.31,113.453 58.981,114.276 58.731,115.124C58.522,115.972 58.364,116.851 58.554,117.633C59.702,117.758 60.913,116.983 61.993,115.618C62.516,114.937 62.897,114.194 63.123,113.446C63.398,112.701 63.582,111.957 63.566,111.258C62.468,110.961 61.083,111.411 59.9,112.775Z" style="fill:rgb(16,82,165);fill-rule:nonzero;"/>
        <path d="M53.786,117.074C53.638,117.95 53.607,118.929 53.792,119.887C54.023,120.85 54.407,121.783 54.932,122.576C55.95,124.161 57.414,124.739 58.502,124.464C58.459,123.673 58.448,122.812 58.189,121.957C57.97,121.098 57.535,120.236 57.085,119.447C56.181,117.875 54.924,116.965 53.786,117.074Z" style="fill:rgb(16,82,165);fill-rule:nonzero;"/>
        <path d="M59.9,119.604C59.31,120.282 58.981,121.104 58.731,121.953C58.522,122.801 58.364,123.68 58.554,124.462C59.702,124.587 60.913,123.812 61.993,122.447C62.516,121.766 62.897,121.022 63.123,120.275C63.398,119.53 63.582,118.786 63.566,118.087C62.468,117.79 61.083,118.24 59.9,119.604Z" style="fill:rgb(16,82,165);fill-rule:nonzero;"/>
        <path d="M53.786,123.903C53.638,124.779 53.607,125.758 53.792,126.716C54.023,127.679 54.407,128.612 54.932,129.405C55.95,130.99 57.414,131.568 58.502,131.293C58.459,130.502 58.448,129.641 58.189,128.785C57.97,127.927 57.535,127.065 57.085,126.276C56.181,124.704 54.924,123.794 53.786,123.903Z" style="fill:rgb(16,82,165);fill-rule:nonzero;"/>
        <path d="M59.9,126.433C59.31,127.111 58.981,127.934 58.731,128.782C58.522,129.63 58.364,130.509 58.554,131.291C59.702,131.416 60.913,130.641 61.993,129.276C62.516,128.595 62.897,127.852 63.123,127.104C63.398,126.359 63.582,125.615 63.566,124.916C62.468,124.619 61.083,125.068 59.9,126.433Z" style="fill:rgb(16,82,165);fill-rule:nonzero;"/>
        <path d="M53.786,130.732C53.638,131.608 53.607,132.587 53.792,133.545C54.023,134.508 54.407,135.441 54.932,136.234C55.95,137.819 57.414,138.397 58.502,138.123C58.459,137.332 58.448,136.47 58.189,135.614C57.97,134.756 57.535,133.894 57.085,133.105C56.181,131.532 54.924,130.624 53.786,130.732Z" style="fill:rgb(16,82,165);fill-rule:nonzero;"/>
        <path d="M59.9,133.262C59.31,133.94 58.981,134.763 58.731,135.611C58.522,136.459 58.364,137.338 58.554,138.12C59.702,138.245 60.913,137.47 61.993,136.105C62.516,135.423 62.897,134.681 63.123,133.934C63.398,133.188 63.582,132.444 63.566,131.745C62.468,131.448 61.083,131.897 59.9,133.262Z" style="fill:rgb(16,82,165);fill-rule:nonzero;"/>
        <path d="M58.606,99.643C58.813,99.384 58.997,99.082 59.156,98.742C59.307,98.401 59.446,98.024 59.606,97.618C59.894,96.8 60.074,95.868 60.104,94.867C60.102,94.616 60.102,94.368 60.104,94.123C60.117,93.883 60.121,93.645 60.116,93.414C60.107,92.946 60.062,92.501 59.986,92.08C59.831,91.237 59.55,90.496 59.173,89.931C58.669,90.334 58.206,90.977 57.833,91.793C57.647,92.2 57.484,92.652 57.349,93.135C57.281,93.376 57.221,93.628 57.169,93.883C57.128,94.141 57.122,94.406 57.109,94.677C57.075,95.757 57.196,96.775 57.434,97.63C57.539,98.06 57.719,98.447 57.933,98.786C58.138,99.124 58.365,99.411 58.606,99.643Z" style="fill:rgb(16,82,165);fill-rule:nonzero;"/>
        <path d="M53.786,199.112C53.638,198.236 53.607,197.257 53.792,196.299C54.023,195.336 54.407,194.403 54.932,193.61C55.95,192.025 57.414,191.447 58.502,191.722C58.459,192.513 58.448,193.375 58.189,194.229C57.97,195.088 57.535,195.95 57.085,196.739C56.181,198.312 54.924,199.221 53.786,199.112Z" style="fill:rgb(16,82,165);fill-rule:nonzero;"/>
        <path d="M59.9,196.583C59.31,195.904 58.981,195.082 58.731,194.233C58.522,193.385 58.364,192.506 58.554,191.724C59.702,191.599 60.913,192.374 61.993,193.739C62.516,194.42 62.897,195.164 63.123,195.911C63.398,196.656 63.582,197.4 63.566,198.099C62.468,198.396 61.083,197.946 59.9,196.583Z" style="fill:rgb(16,82,165);fill-rule:nonzero;"/>
        <path d="M53.786,192.283C53.638,191.407 53.607,190.428 53.792,189.47C54.023,188.507 54.407,187.574 54.932,186.781C55.95,185.196 57.414,184.618 58.502,184.893C58.459,185.684 58.448,186.545 58.189,187.401C57.97,188.259 57.535,189.121 57.085,189.91C56.181,191.482 54.924,192.392 53.786,192.283Z" style="fill:rgb(16,82,165);fill-rule:nonzero;"/>
        <path d="M59.9,189.753C59.31,189.075 58.981,188.252 58.731,187.404C58.522,186.556 58.364,185.677 58.554,184.895C59.702,184.77 60.913,185.545 61.993,186.91C62.516,187.591 62.897,188.334 63.123,189.082C63.398,189.827 63.582,190.571 63.566,191.27C62.468,191.567 61.083,191.117 59.9,189.753Z" style="fill:rgb(16,82,165);fill-rule:nonzero;"/>
        <path d="M53.786,185.454C53.638,184.578 53.607,183.599 53.792,182.641C54.023,181.678 54.407,180.745 54.932,179.952C55.95,178.367 57.414,177.789 58.502,178.063C58.459,178.854 58.448,179.716 58.189,180.572C57.97,181.43 57.535,182.292 57.085,183.081C56.181,184.653 54.924,185.563 53.786,185.454Z" style="fill:rgb(16,82,165);fill-rule:nonzero;"/>
        <path d="M59.9,182.924C59.31,182.246 58.981,181.423 58.731,180.575C58.522,179.727 58.364,178.848 58.554,178.066C59.702,177.941 60.913,178.716 61.993,180.081C62.516,180.763 62.897,181.505 63.123,182.252C63.398,182.998 63.582,183.742 63.566,184.441C62.468,184.738 61.083,184.289 59.9,182.924Z" style="fill:rgb(16,82,165);fill-rule:nonzero;"/>
        <path d="M53.786,178.625C53.638,177.75 53.607,176.77 53.792,175.812C54.023,174.85 54.407,173.916 54.932,173.123C55.95,171.539 57.414,170.959 58.502,171.235C58.459,172.025 58.448,172.887 58.189,173.743C57.97,174.601 57.535,175.463 57.085,176.251C56.181,177.825 54.924,178.734 53.786,178.625Z" style="fill:rgb(16,82,165);fill-rule:nonzero;"/>
        <path d="M59.9,176.095C59.31,175.417 58.981,174.594 58.731,173.746C58.522,172.898 58.364,172.019 58.554,171.237C59.702,171.112 60.913,171.887 61.993,173.252C62.516,173.934 62.897,174.676 63.123,175.424C63.398,176.169 63.582,176.913 63.566,177.612C62.468,177.909 61.083,177.459 59.9,176.095Z" style="fill:rgb(16,82,165);fill-rule:nonzero;"/>
        <path d="M53.786,171.796C53.638,170.92 53.607,169.941 53.792,168.983C54.023,168.021 54.407,167.087 54.932,166.294C55.95,164.709 57.414,164.131 58.502,164.406C58.459,165.197 58.448,166.058 58.189,166.914C57.97,167.772 57.535,168.634 57.085,169.423C56.181,170.996 54.924,171.905 53.786,171.796Z" style="fill:rgb(16,82,165);fill-rule:nonzero;"/>
        <path d="M59.9,169.266C59.31,168.588 58.981,167.765 58.731,166.917C58.522,166.069 58.364,165.19 58.554,164.408C59.702,164.283 60.913,165.058 61.993,166.423C62.516,167.104 62.897,167.848 63.123,168.595C63.398,169.34 63.582,170.084 63.566,170.783C62.468,171.08 61.083,170.63 59.9,169.266Z" style="fill:rgb(16,82,165);fill-rule:nonzero;"/>
        <path d="M53.786,164.967C53.638,164.091 53.607,163.112 53.792,162.154C54.023,161.191 54.407,160.258 54.932,159.465C55.95,157.88 57.414,157.302 58.502,157.577C58.459,158.368 58.448,159.229 58.189,160.085C57.97,160.943 57.535,161.805 57.085,162.594C56.181,164.167 54.924,165.076 53.786,164.967Z" style="fill:rgb(16,82,165);fill-rule:nonzero;"/>
        <path d="M59.9,162.438C59.31,161.759 58.981,160.937 58.731,160.088C58.522,159.24 58.364,158.361 58.554,157.579C59.702,157.454 60.913,158.229 61.993,159.594C62.516,160.275 62.897,161.019 63.123,161.766C63.398,162.511 63.582,163.255 63.566,163.954C62.468,164.251 61.083,163.801 59.9,162.438Z" style="fill:rgb(16,82,165);fill-rule:nonzero;"/>
        <path d="M58.606,196.057C58.813,196.315 58.997,196.617 59.156,196.957C59.307,197.298 59.446,197.676 59.606,198.082C59.894,198.899 60.074,199.831 60.104,200.832C60.102,201.084 60.102,201.332 60.104,201.576C60.117,201.816 60.121,202.055 60.116,202.286C60.107,202.753 60.062,203.199 59.986,203.62C59.831,204.462 59.55,205.203 59.173,205.769C58.669,205.365 58.206,204.723 57.833,203.907C57.647,203.5 57.484,203.048 57.349,202.565C57.281,202.323 57.221,202.072 57.169,201.816C57.128,201.558 57.122,201.293 57.109,201.022C57.075,199.942 57.196,198.925 57.434,198.07C57.539,197.64 57.719,197.252 57.933,196.914C58.138,196.576 58.365,196.289 58.606,196.057Z" style="fill:rgb(16,82,165);fill-rule:nonzero;"/>
        <path d="M58.469,144.863L59.139,146.927L61.309,146.927L59.554,148.202L60.224,150.265L58.469,148.99L56.713,150.265L57.384,148.202L55.629,146.927L57.798,146.927L58.469,144.863Z" style="fill:rgb(238,38,37);fill-rule:nonzero;"/>
    </g>
</svg>
