<?xml version="1.0" encoding="UTF-8" standalone="no"?>
<!DOCTYPE svg PUBLIC "-//W3C//DTD SVG 1.1//EN" "http://www.w3.org/Graphics/SVG/1.1/DTD/svg11.dtd">
<svg width="100%" height="100%" viewBox="0 0 1339 1388" version="1.1" xmlns="http://www.w3.org/2000/svg" xmlns:xlink="http://www.w3.org/1999/xlink" xml:space="preserve" xmlns:serif="http://www.serif.com/" style="fill-rule:evenodd;clip-rule:evenodd;stroke-linejoin:round;stroke-miterlimit:2;">
    <g transform="matrix(1,0,0,1,-330.656417,-306.456993)">
        <g transform="matrix(21.311583,0,0,21.311583,-6821.681515,-2456.483008)">
            <path d="M367.015,179.608C349.669,179.608 335.608,171.418 335.608,175.331C335.608,179.244 338.48,193.78 367.015,193.78C394.975,193.78 398.423,179.244 398.423,175.331C398.423,171.418 384.361,179.608 367.015,179.608Z" style="fill:rgb(39,0,86);fill-rule:nonzero;"/>
            <path d="M367.015,180.56C349.669,180.56 335.608,172.369 335.608,176.283C335.608,180.196 338.48,194.731 367.015,194.731C394.975,194.731 398.423,180.196 398.423,176.283C398.423,172.369 384.361,180.56 367.015,180.56Z" style="fill:rgb(109,0,0);fill-rule:nonzero;"/>
            <path d="M367.015,179.608C349.669,179.608 335.608,171.418 335.608,175.331C335.608,179.244 338.48,193.78 367.015,193.78C394.975,193.78 398.423,179.244 398.423,175.331C398.423,171.418 384.361,179.608 367.015,179.608Z" style="fill:rgb(214,0,0);fill-rule:nonzero;"/>
            <path d="M367.04,180.143C351.688,180.143 338.917,173.091 336.181,174.453C337.856,180.756 344.288,190.918 367.04,190.918C389.365,190.918 396.056,180.727 397.849,174.426C395.007,173.176 382.296,180.143 367.04,180.143Z" style="fill:rgb(147,0,0);fill-rule:nonzero;"/>
            <path d="M367.015,135.688C367.015,135.688 341.772,135.42 341.772,135.688C341.772,135.688 347.794,162.287 347.794,168.139C347.794,173.475 347.771,182.107 347.771,182.179C347.771,184.635 356.373,186.627 366.985,186.627C377.463,186.627 385.975,184.685 386.189,182.271C386.189,182.041 386.236,173.992 386.236,168.139C386.236,162.287 392.258,135.688 392.258,135.688C392.258,135.42 367.015,135.688 367.015,135.688Z" style="fill:rgb(169,0,0);fill-rule:nonzero;"/>
            <path d="M347.086,139.441L358.595,141.401C358.595,141.401 361.055,161.673 361.444,167.778C361.654,171.064 361.444,174.862 361.444,174.862L352.095,173.874C352.095,173.874 351.959,170.49 351.959,167.778C351.959,165.066 347.086,139.441 347.086,139.441Z" style="fill:rgb(186,199,206);fill-rule:nonzero;"/>
            <path d="M386.235,139.441L374.726,141.401C374.773,140.843 372.428,161.8 372.194,167.912C372.068,171.201 371.877,174.862 371.877,174.862L381.227,173.874C381.227,173.874 381.362,170.491 381.362,167.778C381.362,165.066 386.235,139.441 386.235,139.441Z" style="fill:rgb(229,235,234);fill-rule:nonzero;"/>
            <path d="M367.015,171.197C359.144,171.197 352.347,170.389 347.794,169.114C347.792,174.462 347.771,182.111 347.771,182.179C347.771,184.635 356.373,186.627 366.985,186.627C377.463,186.627 385.975,184.685 386.189,182.271C386.189,182.054 386.231,174.847 386.235,169.114C381.682,170.389 374.886,171.197 367.015,171.197Z" style="fill:rgb(1,0,111);fill-rule:nonzero;"/>
            <path d="M367.003,172.559L368.804,176.209L372.831,176.794L369.917,179.634L370.605,183.645L367.003,181.751L363.401,183.645L364.089,179.634L361.175,176.794L365.202,176.209L367.003,172.559Z" style="fill:rgb(229,235,234);fill-rule:nonzero;"/>
            <path d="M353.928,171.849L354.906,175.561L358.25,176.669L355.331,178.966L355.304,182.868L352.523,180.575L349.162,181.878L350.362,178.165L348.311,175.069L351.834,175.066L353.928,171.849Z" style="fill:rgb(229,235,234);fill-rule:nonzero;"/>
            <path d="M379.665,171.849L378.688,175.561L375.343,176.669L378.263,178.966L378.289,182.868L381.071,180.575L384.432,181.878L383.232,178.165L385.283,175.069L381.759,175.066L379.665,171.849Z" style="fill:rgb(229,235,234);fill-rule:nonzero;"/>
            <path d="M363.973,186.567C362.191,185.783 360.606,184.802 359.457,183.343C360.606,184.802 362.191,185.783 363.973,186.567Z" style="fill:rgb(1,0,98);fill-rule:nonzero;"/>
            <path d="M347.776,182.276C347.776,182.276 347.775,182.276 347.775,182.275C347.775,182.276 347.776,182.276 347.776,182.276ZM347.775,182.27L347.775,182.269L347.775,182.27ZM347.774,182.263L347.774,182.262L347.774,182.263ZM347.773,182.239L347.773,182.237L347.773,182.239ZM347.772,182.233L347.772,182.23L347.772,182.233ZM347.772,182.226L347.772,182.223L347.772,182.226ZM347.772,182.219L347.772,182.216L347.772,182.219ZM347.772,182.213C347.772,182.211 347.771,182.21 347.771,182.209C347.771,182.21 347.772,182.211 347.772,182.213ZM347.771,182.206L347.771,182.202L347.771,182.206ZM347.771,182.199L347.771,182.195L347.771,182.199ZM347.771,182.192L347.771,182.188L347.771,182.192ZM347.771,182.185L347.771,182.179L347.771,182.185Z" style="fill:rgb(129,0,0);fill-rule:nonzero;"/>
            <path d="M362.708,186.51C354.29,186.067 347.969,184.348 347.776,182.276C347.776,182.276 347.775,182.276 347.775,182.275L347.775,182.269C347.775,182.267 347.775,182.265 347.774,182.263L347.774,182.262C347.774,182.254 347.773,182.246 347.773,182.239L347.773,182.237C347.773,182.235 347.772,182.234 347.772,182.233L347.772,182.213C347.772,182.211 347.771,182.21 347.771,182.209L347.771,182.179C347.771,182.325 347.806,182.47 347.866,182.612L347.952,182.757C348.004,182.85 348.058,182.943 348.134,183.034L348.306,183.205C348.387,183.284 348.468,183.362 348.566,183.439C348.645,183.501 348.736,183.562 348.826,183.622C348.928,183.691 349.034,183.76 349.15,183.827C349.261,183.891 349.38,183.954 349.503,184.017C349.621,184.077 349.744,184.136 349.873,184.194C350.018,184.26 350.169,184.326 350.329,184.39C350.453,184.44 350.583,184.488 350.715,184.537C350.902,184.606 351.091,184.674 351.293,184.74C351.408,184.778 351.53,184.814 351.65,184.85C351.889,184.924 352.13,184.997 352.388,185.066L352.609,185.123C355.226,185.805 358.731,186.301 362.708,186.51Z" style="fill:rgb(1,0,98);fill-rule:nonzero;"/>
            <path d="M347.771,182.178L347.771,182.177L347.771,182.178ZM347.771,182.177L347.771,182.175L347.771,182.177ZM347.771,182.172L347.771,182.171L347.771,182.172ZM347.771,182.15L347.771,182.149L347.771,182.15ZM347.771,182.126L347.771,182.124L347.771,182.126ZM347.771,182.121L347.771,182.12L347.771,182.121Z" style="fill:rgb(129,0,0);fill-rule:nonzero;"/>
            <path d="M347.771,182.179L347.771,182.12C347.772,181.928 347.773,181.279 347.776,180.335C347.775,180.562 347.775,180.77 347.774,180.96C347.773,181.221 347.773,181.437 347.772,181.619C347.772,181.958 347.771,182.168 347.771,182.179Z" style="fill:rgb(1,0,98);fill-rule:nonzero;"/>
            <path d="M347.794,169.114L347.794,168.536L347.794,169.114ZM341.772,135.688C341.772,135.598 342.732,135.569 344.676,135.569C345.112,135.569 345.597,135.57 346.131,135.573C343.535,135.584 341.772,135.617 341.772,135.688Z" style="fill:rgb(224,224,225);fill-rule:nonzero;"/>
            <path d="M351.983,170.039C350.585,169.796 349.302,169.519 348.155,169.213C348.034,169.18 347.913,169.147 347.794,169.114L347.794,168.139C347.794,162.441 342.086,137.076 341.785,135.742C341.776,135.706 341.772,135.688 341.772,135.688C341.772,135.617 343.535,135.584 346.131,135.573C347.857,135.581 350.101,135.602 352.873,135.623C353.045,136.696 353.294,138.41 353.589,140.549L347.086,139.441C347.086,139.441 351.959,165.066 351.959,167.778C351.959,168.51 351.969,169.289 351.983,170.039Z" style="fill:rgb(148,0,0);fill-rule:nonzero;"/>
            <path d="M357.166,170.739L357.165,170.739L357.165,170.73C355.308,170.546 353.571,170.314 351.983,170.039C351.969,169.289 351.959,168.51 351.959,167.778C351.959,165.066 347.086,139.441 347.086,139.441L353.589,140.549C354.68,148.453 356.398,162.162 357.166,170.739Z" style="fill:rgb(163,175,182);fill-rule:nonzero;"/>
            <path d="M357.547,176.269C357.506,174.921 357.368,173.006 357.165,170.739L357.166,170.739C357.37,173.01 357.506,174.921 357.547,176.269ZM348.155,169.213C348.033,169.18 347.913,169.147 347.794,169.114C347.913,169.147 348.034,169.18 348.155,169.213Z" style="fill:rgb(1,0,98);fill-rule:nonzero;"/>
            <path d="M392.258,135.688C392.258,139.025 381.43,141.73 367.015,141.73C352.601,141.73 341.772,139.025 341.772,135.688C341.772,132.35 352.601,129.645 367.015,129.645C381.43,129.645 392.258,132.35 392.258,135.688Z" style="fill:rgb(216,225,224);fill-rule:nonzero;"/>
            <path d="M363.973,186.567L363.971,186.567C363.545,186.551 363.124,186.532 362.708,186.51C363.125,186.532 363.547,186.551 363.973,186.567ZM359.457,183.343C358.303,181.877 357.59,179.928 357.561,177.212C357.59,179.928 358.303,181.877 359.457,183.343ZM357.552,176.438C357.55,176.383 357.549,176.327 357.547,176.269C357.549,176.327 357.55,176.383 357.552,176.438Z" style="fill:rgb(1,0,76);fill-rule:nonzero;"/>
            <path d="M357.561,177.212C357.56,177.153 357.56,177.095 357.56,177.035C357.56,176.852 357.557,176.653 357.552,176.438C357.557,176.653 357.56,176.852 357.56,177.035C357.56,177.094 357.56,177.153 357.561,177.212Z" style="fill:rgb(154,159,160);fill-rule:nonzero;"/>
            <path d="M347.776,180.143C347.776,179.915 347.777,179.673 347.778,179.413L347.778,179.192C347.777,179.531 347.777,179.85 347.776,180.143Z" style="fill:rgb(99,0,0);fill-rule:nonzero;"/>
            <path d="M347.776,180.335L347.776,180.143C347.777,179.85 347.777,179.531 347.778,179.192C347.784,176.46 347.793,172.367 347.794,169.114C347.792,172.856 347.782,177.726 347.776,180.335Z" style="fill:rgb(1,0,76);fill-rule:nonzero;"/>
            <path d="M351.984,170.044C350.585,169.799 349.304,169.52 348.155,169.213C349.302,169.519 350.585,169.796 351.983,170.039C351.983,170.04 351.984,170.042 351.984,170.044Z" style="fill:rgb(100,0,0);fill-rule:nonzero;"/>
            <path d="M357.165,170.739C355.305,170.556 353.57,170.322 351.984,170.044C351.984,170.042 351.983,170.04 351.983,170.039C353.571,170.314 355.308,170.546 357.165,170.73L357.165,170.739Z" style="fill:rgb(110,118,124);fill-rule:nonzero;"/>
            <path d="M363.973,186.567C363.547,186.551 363.125,186.532 362.708,186.51C358.731,186.301 355.226,185.805 352.609,185.123L352.388,185.066C352.13,184.997 351.889,184.924 351.65,184.85C351.53,184.814 351.408,184.778 351.293,184.74C351.091,184.674 350.902,184.606 350.715,184.537C350.583,184.488 350.453,184.44 350.329,184.39C350.169,184.326 350.018,184.26 349.873,184.194C349.744,184.136 349.621,184.077 349.503,184.017C349.38,183.954 349.261,183.891 349.15,183.827C349.034,183.76 348.928,183.691 348.826,183.622C348.736,183.562 348.645,183.501 348.566,183.439C348.468,183.362 348.387,183.284 348.306,183.205L348.134,183.034C348.058,182.943 348.004,182.85 347.952,182.757L347.866,182.612C347.806,182.47 347.771,182.325 347.771,182.179C347.771,182.168 347.772,181.958 347.772,181.619C347.773,181.437 347.773,181.221 347.774,180.96C347.775,180.77 347.775,180.562 347.776,180.335C347.782,177.726 347.792,172.856 347.794,169.114C347.913,169.147 348.033,169.18 348.155,169.213C349.304,169.52 350.585,169.799 351.984,170.044C353.57,170.322 355.305,170.556 357.165,170.739C357.368,173.006 357.506,174.921 357.547,176.269C357.549,176.327 357.55,176.383 357.552,176.438L354.906,175.561L353.928,171.849L351.834,175.066L348.311,175.069L350.362,178.165L349.162,181.878L352.523,180.575L355.304,182.868L355.331,178.966L357.561,177.212C357.59,179.928 358.303,181.877 359.457,183.343C360.606,184.802 362.191,185.783 363.973,186.567Z" style="fill:rgb(1,0,67);fill-rule:nonzero;"/>
            <path d="M355.304,182.868L352.523,180.575L349.162,181.878L350.362,178.165L348.311,175.069L351.834,175.066L353.928,171.849L354.906,175.561L357.552,176.438C357.557,176.653 357.56,176.852 357.56,177.035C357.56,177.095 357.56,177.153 357.561,177.212L355.331,178.966L355.304,182.868Z" style="fill:rgb(136,139,141);fill-rule:nonzero;"/>
            <path d="M390.17,136.001C390.17,138.583 381.859,140.676 371.607,140.676C361.354,140.676 353.043,138.583 353.043,136.001C353.043,133.419 361.354,131.326 371.607,131.326C381.859,131.326 390.17,133.419 390.17,136.001Z" style="fill:rgb(235,240,240);fill-rule:nonzero;"/>
        </g>
    </g>
</svg>
