<?xml version="1.0" encoding="UTF-8" standalone="no"?>
<!DOCTYPE svg PUBLIC "-//W3C//DTD SVG 1.1//EN" "http://www.w3.org/Graphics/SVG/1.1/DTD/svg11.dtd">
<svg width="100%" height="100%" viewBox="0 0 2000 2000" version="1.1" xmlns="http://www.w3.org/2000/svg" xmlns:xlink="http://www.w3.org/1999/xlink" xml:space="preserve" xmlns:serif="http://www.serif.com/" style="fill-rule:evenodd;clip-rule:evenodd;stroke-linejoin:round;stroke-miterlimit:2;">
    <g transform="matrix(11.301432,0,0,11.301432,-2041.480859,-2340.121143)">
        <path d="M191.61,271.394L191.61,280.391L195.485,280.391L195.485,297.486C195.485,313.196 202.96,320.531 216.94,320.948C229.951,320.948 236.802,313.543 236.802,297.14L236.802,280.322L240.54,280.322L240.54,271.394L220.054,271.394L220.054,280.53L223.791,280.53L223.791,295.203C223.791,307.106 221.024,308.767 216.801,308.767C212.373,308.767 209.882,306.414 209.882,295.272L209.882,280.322L213.618,280.322L213.618,271.394L191.61,271.394Z" style="fill:white;"/>
        <path d="M243.308,319.771L255.42,319.771L256.181,314.441C258.811,317.556 263.655,320.809 270.646,320.809C278.881,320.809 288.986,316.933 288.986,306.137C288.986,289.873 261.579,291.533 261.579,284.405C261.579,281.983 264.348,280.737 266.355,280.737C271.199,280.737 275.213,283.644 275.213,288.766L287.74,288.766L287.74,271.394L275.837,271.394L275.144,277.208C272.375,272.017 266.493,270.149 260.68,270.149C253.897,270.149 244.208,274.786 244.208,285.029C244.208,302.677 270.784,300.391 270.784,305.791C270.784,308.698 267.323,309.25 264.901,309.25C261.995,309.112 256.181,308.144 256.181,302.33L243.308,302.33L243.308,319.771Z" style="fill:white;"/>
        <path d="M312.378,297.694L316.876,282.745L321.445,297.694L312.378,297.694ZM346.637,319.771L346.637,310.704L341.792,310.704L329.542,271.394L302.966,271.394L302.966,280.322L305.802,280.322L296.461,310.704L291.754,310.704L291.754,319.771L313.764,319.771L313.764,310.704L308.365,310.704L309.817,305.999L324.005,305.999L325.458,310.704L318.884,310.704L318.884,319.771L346.637,319.771Z" style="fill:white;"/>
        <path d="M209.882,295.272L209.882,280.322L213.618,280.322L213.618,271.394L191.61,271.394L191.61,280.391L195.485,280.391L195.485,297.486C195.485,297.556 195.485,297.625 195.486,297.694L209.924,297.694C209.896,296.936 209.882,296.13 209.882,295.272Z" style="fill:rgb(42,66,141);"/>
        <path d="M223.791,280.53L223.791,295.203C223.791,296.089 223.776,296.917 223.746,297.694L236.801,297.694C236.802,297.51 236.802,297.325 236.802,297.14L236.802,280.322L240.54,280.322L240.54,271.394L220.054,271.394L220.054,280.53L223.791,280.53Z" style="fill:rgb(42,66,141);"/>
        <path d="M244.208,285.029C244.208,291.438 247.714,295.219 252.179,297.694L285.563,297.694C278.213,290.177 261.579,289.958 261.579,284.405C261.579,281.983 264.348,280.737 266.355,280.737C271.199,280.737 275.213,283.644 275.213,288.766L287.74,288.766L287.74,271.394L275.837,271.394L275.144,277.208C272.375,272.017 266.493,270.149 260.68,270.149C253.897,270.149 244.208,274.786 244.208,285.029Z" style="fill:rgb(42,66,141);"/>
        <path d="M305.802,280.322L300.462,297.694L312.378,297.694L316.876,282.745L321.445,297.694L337.737,297.694L329.542,271.394L302.966,271.394L302.966,280.322L305.802,280.322Z" style="fill:rgb(42,66,141);"/>
        <path d="M191.61,276.75L192.671,279.85L196.499,279.912L195.485,280.672L195.485,280.391L191.61,280.391L191.61,276.75Z" style="fill:white;"/>
        <path d="M202.005,285.466L203.244,289.085L207.072,289.147L204.011,291.446L205.135,295.103L202.005,292.903L198.873,295.103L199.997,291.446L196.938,289.147L200.764,289.085L202.005,285.466Z" style="fill:white;"/>
        <path d="M206.116,271.394L204.011,272.975L205.135,276.632L202.005,274.432L198.873,276.632L199.997,272.975L197.894,271.394L206.116,271.394Z" style="fill:white;"/>
        <path d="M209.882,285.564L209.446,285.868L209.882,284.452L209.882,285.564ZM212.579,276.23L213.618,279.268L213.618,280.322L209.882,280.322L209.882,281.692L207.511,279.912L211.337,279.85L212.579,276.23Z" style="fill:white;"/>
        <path d="M302.857,289.903L303.97,293.523L302.14,292.238L302.857,289.903ZM303.587,287.529L305.905,287.566L302.876,289.842L303.587,287.529Z" style="fill:white;"/>
        <path d="M311.412,293.12L312.651,296.741L312.666,296.741L312.378,297.694L307.531,297.694L306.343,296.802L310.17,296.741L311.412,293.12Z" style="fill:white;"/>
        <path d="M302.966,271.787L303.97,275.053L302.966,274.348L302.966,271.787Z" style="fill:white;"/>
        <path d="M311.412,274.65L312.651,278.269L316.477,278.33L313.418,280.63L314.542,284.287L311.412,282.088L308.278,284.287L309.404,280.63L306.343,278.33L310.17,278.269L311.412,274.65Z" style="fill:white;"/>
        <path d="M321.984,283.885L323.224,287.504L327.051,287.566L323.992,289.865L325.116,293.523L321.984,291.324L319.938,292.762L319.513,291.373L319.976,289.865L318.777,288.964L318.343,287.543L320.743,287.504L321.984,283.885Z" style="fill:white;"/>
        <path d="M332.557,293.12L333.798,296.741L337.458,296.799L337.491,296.902L336.438,297.694L328.678,297.694L327.49,296.802L331.316,296.741L332.557,293.12Z" style="fill:white;"/>
        <path d="M323.992,271.394L325.116,275.053L321.984,272.853L318.853,275.053L319.976,271.394L323.992,271.394Z" style="fill:white;"/>
        <path d="M332.962,282.372L332.557,282.088L329.424,284.287L330.55,280.63L327.49,278.33L331.316,278.269L331.51,277.707L332.962,282.372Z" style="fill:white;"/>
        <path d="M244.7,285.585L245.941,289.206L249.768,289.267L246.708,291.566L247.467,294.038C245.789,292.145 244.62,289.776 244.298,286.758L244.7,285.585Z" style="fill:white;"/>
        <path d="M255.274,294.821L256.256,297.694L254.289,297.694L255.274,294.821Z" style="fill:white;"/>
        <path d="M247.568,275.892L247.833,276.752L247.21,276.315C247.328,276.172 247.446,276.03 247.568,275.892Z" style="fill:white;"/>
        <path d="M255.274,276.35L256.513,279.97L260.341,280.032L257.282,282.33L258.406,285.988L255.274,283.788L252.141,285.988L253.268,282.33L250.207,280.032L254.033,279.97L255.274,276.35Z" style="fill:white;"/>
        <path d="M267.011,288.985L267.086,289.206L267.622,289.215C268.35,289.483 269.121,289.747 269.918,290.015L267.853,291.566L268.979,295.223L265.847,293.024L262.715,295.223L263.839,291.565L260.778,289.267L264.606,289.206L264.979,288.12C265.595,288.418 266.278,288.703 267.011,288.985Z" style="fill:white;"/>
        <path d="M276.42,294.821L277.403,297.694L275.436,297.694L276.42,294.821Z" style="fill:white;"/>
        <path d="M269.435,271.907L267.853,273.095L268.979,276.752L265.847,274.553L262.715,276.752L263.839,273.095L260.778,270.795L264.606,270.734L264.697,270.469C266.36,270.746 267.967,271.214 269.435,271.907Z" style="fill:white;"/>
        <path d="M276.42,276.35L277.66,279.97L281.486,280.032L278.426,282.33L279.55,285.988L276.42,283.788L274.432,285.185C274.26,284.834 274.063,284.499 273.842,284.187L274.412,282.33L271.353,280.032L275.179,279.97L276.42,276.35Z" style="fill:white;"/>
        <path d="M286.993,285.585L287.74,287.765L287.74,288.766L285.903,288.766L286.993,285.585Z" style="fill:white;"/>
        <path d="M287.74,275.077L286.993,274.553L283.861,276.752L284.985,273.095L282.722,271.394L287.74,271.394L287.74,275.077Z" style="fill:white;"/>
        <path d="M223.791,281.626L227.151,281.68L224.09,283.978L225.216,287.638L223.791,286.637L223.791,281.626ZM222.084,277.999L222.951,280.53L221.217,280.53L222.084,277.999Z" style="fill:white;"/>
        <path d="M232.657,287.234L233.897,290.855L236.802,290.901L236.802,291.608L234.664,293.214L235.788,296.871L232.657,294.673L229.525,296.871L230.649,293.213L227.589,290.914L231.417,290.855L232.657,287.234Z" style="fill:white;"/>
        <path d="M233.559,271.394L233.897,272.383L237.724,272.443L234.664,274.744L235.788,278.4L232.657,276.202L229.525,278.4L230.649,274.744L227.589,272.443L231.417,272.383L231.755,271.394L233.559,271.394Z" style="fill:white;"/>
        <path d="M201.441,315.43L231.542,315.43C229.76,317.429 227.534,318.865 224.875,319.771L209.055,319.771C206.021,318.861 203.477,317.424 201.441,315.43Z" style="fill:rgb(191,31,51);"/>
        <path d="M196.537,306.561L211.914,306.561C213.081,308.251 214.729,308.767 216.801,308.767C218.87,308.767 220.589,308.369 221.804,306.561L235.842,306.561C235.471,308.144 234.994,309.591 234.413,310.902L198.16,310.902C197.497,309.59 196.955,308.144 196.537,306.561Z" style="fill:rgb(191,31,51);"/>
        <path d="M223.745,297.694L236.799,297.694C236.784,299.22 236.709,300.666 236.574,302.034L223.345,302.034C223.544,300.814 223.68,299.38 223.745,297.694ZM195.488,297.694L209.924,297.694C209.99,299.371 210.127,300.808 210.332,302.034L195.719,302.034C195.571,300.666 195.494,299.22 195.488,297.694Z" style="fill:rgb(191,31,51);"/>
        <path d="M257.09,315.43L285.443,315.43C283.446,317.514 280.787,318.921 277.942,319.771L264.132,319.771C261.133,318.76 258.782,317.126 257.09,315.43ZM243.308,315.43L256.04,315.43L255.42,319.771L243.308,319.771L243.308,315.43Z" style="fill:rgb(191,31,51);"/>
        <path d="M243.308,306.561L257.687,306.561C259.613,308.68 262.928,309.158 264.901,309.25C267.092,309.25 270.132,308.798 270.692,306.561L288.979,306.561C288.94,308.162 288.673,309.604 288.223,310.902L243.308,310.902L243.308,306.561Z" style="fill:rgb(191,31,51);"/>
        <path d="M252.183,297.694L285.561,297.694C286.767,298.925 287.722,300.354 288.314,302.034L264.258,302.034C260.612,300.994 256.04,299.83 252.183,297.694Z" style="fill:rgb(191,31,51);"/>
        <path d="M318.884,315.43L346.637,315.43L346.637,319.771L318.884,319.771L318.884,315.43ZM291.754,315.43L313.764,315.43L313.764,319.771L291.754,319.771L291.754,315.43Z" style="fill:rgb(191,31,51);"/>
        <path d="M324.18,306.561L340.5,306.561L341.845,310.902L325.536,310.902L324.18,306.561ZM297.734,306.561L309.643,306.561L308.298,310.894L296.422,310.894L297.734,306.561Z" style="fill:rgb(191,31,51);"/>
        <path d="M300.462,297.694L337.737,297.694L339.09,302.034L299.125,302.034L300.462,297.694Z" style="fill:rgb(191,31,51);"/>
    </g>
</svg>
