<?xml version="1.0" encoding="UTF-8" standalone="no"?>
<!DOCTYPE svg PUBLIC "-//W3C//DTD SVG 1.1//EN" "http://www.w3.org/Graphics/SVG/1.1/DTD/svg11.dtd">
<svg width="100%" height="100%" viewBox="0 0 1516 1322" version="1.1" xmlns="http://www.w3.org/2000/svg" xmlns:xlink="http://www.w3.org/1999/xlink" xml:space="preserve" xmlns:serif="http://www.serif.com/" style="fill-rule:evenodd;clip-rule:evenodd;stroke-linejoin:round;stroke-miterlimit:2;">
    <g transform="matrix(1,0,0,1,-242.2715,-339.340501)">
        <g transform="matrix(19.565139,0,0,19.565139,-1083.188463,51.407097)">
            <path d="M102.305,19.998C102.384,21.172 102.462,22.346 102.54,23.52C115.142,26.977 132.528,27.596 144.964,20.27C145.044,19.089 145.124,17.909 145.203,16.728C132.612,24.123 115.062,23.5 102.305,19.998Z" style="fill:rgb(169,0,0);fill-rule:nonzero;"/>
            <path d="M102.54,23.52C102.617,24.693 102.694,25.867 102.768,27.04C115.217,30.455 132.442,31.069 144.725,23.811C144.805,22.631 144.885,21.45 144.964,20.27C132.528,27.596 115.142,26.977 102.54,23.52Z" style="fill:rgb(201,216,229);fill-rule:nonzero;"/>
            <path d="M102.768,27.04C102.843,28.213 102.915,29.385 102.985,30.557C115.285,33.932 132.352,34.545 144.486,27.352C144.566,26.172 144.646,24.992 144.725,23.811C132.441,31.069 115.217,30.455 102.768,27.04Z" style="fill:rgb(169,0,0);fill-rule:nonzero;"/>
            <path d="M102.985,30.557C103.055,31.728 103.122,32.899 103.185,34.069C115.341,37.408 132.256,38.025 144.247,30.893C144.327,29.713 144.406,28.532 144.486,27.352C132.351,34.545 115.285,33.932 102.985,30.557Z" style="fill:rgb(201,216,229);fill-rule:nonzero;"/>
            <path d="M103.185,34.069C103.249,35.239 103.309,36.408 103.364,37.576C115.382,40.884 132.153,41.508 144.008,34.433C144.088,33.253 144.167,32.073 144.247,30.893C132.256,38.025 115.341,37.408 103.185,34.069Z" style="fill:rgb(169,0,0);fill-rule:nonzero;"/>
            <path d="M103.364,37.576C103.419,38.743 103.47,39.91 103.515,41.076C115.405,44.357 132.042,44.997 143.768,37.973C143.848,36.793 143.928,35.613 144.008,34.433C132.153,41.508 115.382,40.884 103.364,37.576Z" style="fill:rgb(201,216,229);fill-rule:nonzero;"/>
            <path d="M103.515,41.076C103.561,42.24 103.602,43.404 103.635,44.567C115.407,47.829 131.92,48.492 143.529,41.512C143.609,40.332 143.689,39.153 143.768,37.973C132.042,44.997 115.405,44.357 103.515,41.076Z" style="fill:rgb(169,0,0);fill-rule:nonzero;"/>
            <path d="M103.635,44.567C103.669,45.728 103.697,46.888 103.717,48.048C115.382,51.299 131.785,51.995 143.29,45.051C143.37,43.871 143.449,42.692 143.529,41.512C131.92,48.492 115.407,47.829 103.635,44.567Z" style="fill:rgb(201,216,229);fill-rule:nonzero;"/>
            <path d="M103.717,48.048C103.738,49.205 103.75,50.362 103.756,51.517C115.328,54.765 131.637,55.506 143.05,48.59C143.13,47.41 143.21,46.231 143.29,45.051C131.785,51.995 115.382,51.299 103.717,48.048Z" style="fill:rgb(169,0,0);fill-rule:nonzero;"/>
            <path d="M103.756,51.517C103.762,52.67 103.759,53.822 103.749,54.974C115.243,58.228 131.473,59.027 142.811,52.128C142.891,50.948 142.97,49.769 143.05,48.59C131.637,55.506 115.328,54.765 103.756,51.517Z" style="fill:rgb(201,216,229);fill-rule:nonzero;"/>
            <path d="M103.749,54.974C103.738,56.122 103.718,57.269 103.69,58.416C115.122,61.687 131.292,62.558 142.571,55.665C142.651,54.486 142.731,53.307 142.811,52.128C131.473,59.027 115.243,58.228 103.749,54.974Z" style="fill:rgb(169,0,0);fill-rule:nonzero;"/>
            <path d="M103.69,58.416C103.662,59.559 103.624,60.701 103.576,61.842C114.964,65.14 131.094,66.102 142.332,59.202C142.412,58.023 142.491,56.844 142.571,55.665C131.292,62.558 115.122,61.687 103.69,58.416Z" style="fill:rgb(201,216,229);fill-rule:nonzero;"/>
            <path d="M103.576,61.842C103.529,62.979 103.471,64.115 103.403,65.25C103.516,66.478 114.978,68.06 121.82,67.817C128.992,67.759 136.346,66.199 142.092,62.739C142.172,61.56 142.252,60.381 142.332,59.202C131.094,66.102 114.964,65.14 103.576,61.842Z" style="fill:rgb(169,0,0);fill-rule:nonzero;"/>
            <path d="M103.41,65.081C103.41,65.081 103.862,63.952 104.824,63.745C107.102,63.255 112.179,63.509 112.128,61.198C112.102,60.05 103.066,60.063 103.066,60.063L103.41,65.081Z" style="fill:rgb(109,0,0);fill-rule:nonzero;"/>
            <path d="M69.038,18.652C69.249,19.801 69.459,20.95 69.668,22.099C83.99,16.41 98.754,18.199 113.561,19.6C113.546,18.683 113.531,17.766 113.515,16.849C113.508,16.426 113.175,16.085 112.728,16.043C111.596,15.937 110.464,15.83 109.332,15.725C95.733,14.462 82.19,13.492 69.038,18.652Z" style="fill:rgb(169,0,0);fill-rule:nonzero;"/>
            <path d="M69.668,22.099C69.876,23.248 70.084,24.397 70.291,25.546C84.426,19.857 98.997,21.672 113.61,23.085C113.595,21.923 113.579,20.762 113.561,19.6C98.754,18.199 83.99,16.41 69.668,22.099Z" style="fill:rgb(229,235,234);fill-rule:nonzero;"/>
            <path d="M70.291,25.546C70.498,26.695 70.704,27.843 70.91,28.992C84.854,23.306 99.229,25.145 113.644,26.568C113.636,25.407 113.624,24.246 113.61,23.085C98.997,21.672 84.426,19.857 70.291,25.546Z" style="fill:rgb(169,0,0);fill-rule:nonzero;"/>
            <path d="M70.91,28.992C71.114,30.141 71.319,31.29 71.522,32.439C85.273,26.756 99.446,28.616 113.66,30.05C113.658,28.889 113.653,27.729 113.644,26.568C99.229,25.145 84.854,23.306 70.91,28.992Z" style="fill:rgb(229,235,234);fill-rule:nonzero;"/>
            <path d="M71.522,32.439C71.725,33.588 71.928,34.737 72.13,35.886C85.68,30.21 99.645,32.085 113.65,33.53C113.658,32.37 113.661,31.21 113.66,30.05C99.446,28.616 85.273,26.756 71.522,32.439Z" style="fill:rgb(169,0,0);fill-rule:nonzero;"/>
            <path d="M72.13,35.886C72.331,37.035 72.532,38.184 72.732,39.333C86.073,33.667 99.822,35.552 113.612,37.007C113.63,35.848 113.642,34.689 113.65,33.53C99.645,32.085 85.68,30.21 72.13,35.886Z" style="fill:rgb(229,235,234);fill-rule:nonzero;"/>
            <path d="M72.732,39.333C72.931,40.482 73.13,41.631 73.328,42.78C86.452,37.129 99.975,39.016 113.539,40.48C113.57,39.322 113.593,38.164 113.612,37.007C99.822,35.552 86.073,33.667 72.732,39.333Z" style="fill:rgb(169,0,0);fill-rule:nonzero;"/>
            <path d="M73.328,42.78C73.526,43.929 73.723,45.078 73.919,46.227C86.814,40.596 100.1,42.476 113.427,43.949C113.471,42.792 113.508,41.636 113.539,40.48C99.975,39.016 86.452,37.129 73.328,42.78Z" style="fill:rgb(229,235,234);fill-rule:nonzero;"/>
            <path d="M73.919,46.227C74.115,47.376 74.31,48.525 74.505,49.674C87.159,44.07 100.193,45.932 113.269,47.413C113.329,46.258 113.382,45.103 113.427,43.949C100.1,42.476 86.814,40.596 73.919,46.227Z" style="fill:rgb(169,0,0);fill-rule:nonzero;"/>
            <path d="M74.505,49.674C74.699,50.823 74.893,51.972 75.085,53.121C87.484,47.551 100.253,49.382 113.064,50.87C113.141,49.717 113.21,48.565 113.269,47.413C100.193,45.932 87.159,44.07 74.505,49.674Z" style="fill:rgb(229,235,234);fill-rule:nonzero;"/>
            <path d="M75.085,53.121C75.278,54.27 75.469,55.419 75.66,56.568C87.788,51.041 100.277,52.828 112.808,54.321C112.902,53.17 112.988,52.02 113.064,50.87C100.253,49.382 87.484,47.551 75.085,53.121Z" style="fill:rgb(169,0,0);fill-rule:nonzero;"/>
            <path d="M75.66,56.568C75.851,57.717 76.041,58.866 76.23,60.014C88.071,54.539 100.263,56.268 112.497,57.764C112.61,56.616 112.714,55.468 112.808,54.321C100.277,52.828 87.788,51.041 75.66,56.568Z" style="fill:rgb(229,235,234);fill-rule:nonzero;"/>
            <path d="M76.23,60.014C76.419,61.163 76.607,62.312 76.794,63.461C85.202,59.508 93.821,59.324 102.503,60.095C105.707,60.38 111.822,60.334 112.128,61.198C112.261,60.053 112.385,58.908 112.497,57.764C100.263,56.268 88.071,54.539 76.23,60.014Z" style="fill:rgb(169,0,0);fill-rule:nonzero;"/>
            <path d="M109.096,39.947C96.99,38.67 84.73,37.798 73.328,42.78C71.928,34.737 70.498,26.695 69.039,18.652C81.734,13.607 95.347,14.416 108.804,15.632C108.912,23.737 109.009,31.842 109.096,39.947Z" style="fill:rgb(1,0,111);fill-rule:nonzero;"/>
            <path d="M72.638,18.615C72.832,18.859 73.026,19.104 73.219,19.349C73.552,19.296 73.885,19.246 74.218,19.199C74.019,19.492 73.82,19.787 73.623,20.084C73.73,20.386 73.838,20.689 73.945,20.991C73.632,20.927 73.318,20.866 73.006,20.808C72.743,21.05 72.482,21.296 72.222,21.544C72.222,21.207 72.222,20.869 72.223,20.532C71.952,20.384 71.681,20.239 71.41,20.095C71.722,19.935 72.036,19.779 72.351,19.626C72.446,19.288 72.542,18.951 72.638,18.615Z" style="fill:rgb(216,225,224);fill-rule:nonzero;"/>
            <path d="M79.131,17.012C79.322,17.275 79.512,17.539 79.701,17.804C80.042,17.792 80.383,17.783 80.725,17.776C80.513,18.041 80.301,18.307 80.09,18.574C80.191,18.884 80.291,19.194 80.391,19.503C80.073,19.403 79.755,19.304 79.437,19.208C79.162,19.413 78.887,19.621 78.613,19.831C78.624,19.5 78.635,19.17 78.646,18.839C78.373,18.66 78.101,18.483 77.828,18.308C78.153,18.191 78.479,18.078 78.806,17.968C78.914,17.649 79.022,17.33 79.131,17.012Z" style="fill:rgb(216,225,224);fill-rule:nonzero;"/>
            <path d="M85.781,16.16C85.966,16.438 86.15,16.718 86.334,16.998C86.68,17.02 87.025,17.044 87.37,17.07C87.148,17.311 86.926,17.554 86.705,17.797C86.797,18.113 86.889,18.429 86.981,18.745C86.663,18.614 86.344,18.485 86.026,18.358C85.74,18.533 85.456,18.71 85.172,18.888C85.193,18.563 85.214,18.238 85.235,17.913C84.964,17.709 84.693,17.506 84.422,17.304C84.755,17.223 85.089,17.145 85.423,17.07C85.542,16.766 85.661,16.463 85.781,16.16Z" style="fill:rgb(216,225,224);fill-rule:nonzero;"/>
            <path d="M92.512,15.904C92.69,16.196 92.867,16.487 93.044,16.779C93.389,16.827 93.735,16.876 94.081,16.928C93.851,17.151 93.622,17.376 93.392,17.601C93.476,17.921 93.559,18.242 93.643,18.563C93.327,18.409 93.01,18.257 92.694,18.106C92.402,18.257 92.111,18.41 91.82,18.564C91.851,18.243 91.881,17.923 91.912,17.602C91.646,17.377 91.379,17.154 91.112,16.931C91.449,16.879 91.787,16.828 92.125,16.78C92.254,16.488 92.383,16.196 92.512,15.904Z" style="fill:rgb(216,225,224);fill-rule:nonzero;"/>
            <path d="M99.264,16.093C99.433,16.393 99.602,16.693 99.77,16.994C100.115,17.06 100.459,17.127 100.803,17.195C100.567,17.407 100.331,17.619 100.096,17.832C100.17,18.156 100.245,18.48 100.319,18.804C100.007,18.634 99.695,18.465 99.383,18.298C99.087,18.432 98.792,18.568 98.496,18.705C98.536,18.387 98.576,18.069 98.616,17.752C98.356,17.513 98.095,17.274 97.834,17.036C98.174,17.005 98.513,16.974 98.852,16.945C98.989,16.661 99.126,16.377 99.264,16.093Z" style="fill:rgb(216,225,224);fill-rule:nonzero;"/>
            <path d="M105.996,16.573C106.156,16.878 106.315,17.183 106.474,17.488C106.815,17.565 107.156,17.642 107.497,17.719C107.256,17.925 107.015,18.13 106.775,18.336C106.84,18.662 106.904,18.988 106.969,19.314C106.664,19.136 106.358,18.958 106.052,18.78C105.753,18.905 105.455,19.031 105.157,19.157C105.205,18.841 105.254,18.525 105.303,18.209C105.05,17.961 104.798,17.713 104.544,17.466C104.883,17.447 105.222,17.428 105.561,17.41C105.706,17.131 105.851,16.852 105.996,16.573Z" style="fill:rgb(216,225,224);fill-rule:nonzero;"/>
            <path d="M76.113,20.065C76.304,20.319 76.494,20.573 76.684,20.829C77.018,20.796 77.352,20.767 77.687,20.741C77.483,21.02 77.28,21.3 77.078,21.582C77.181,21.888 77.284,22.194 77.387,22.5C77.074,22.417 76.762,22.337 76.449,22.259C76.182,22.483 75.917,22.709 75.652,22.938C75.657,22.604 75.663,22.27 75.668,21.936C75.398,21.773 75.129,21.611 74.859,21.451C75.175,21.313 75.492,21.179 75.81,21.048C75.911,20.72 76.012,20.392 76.113,20.065Z" style="fill:rgb(216,225,224);fill-rule:nonzero;"/>
            <path d="M82.627,18.847C82.814,19.119 82.999,19.391 83.185,19.663C83.525,19.668 83.865,19.677 84.205,19.687C83.99,19.94 83.776,20.193 83.562,20.448C83.657,20.761 83.753,21.074 83.848,21.387C83.533,21.271 83.217,21.156 82.902,21.044C82.624,21.234 82.347,21.426 82.07,21.619C82.086,21.292 82.102,20.964 82.117,20.637C81.848,20.445 81.578,20.254 81.308,20.065C81.635,19.967 81.961,19.872 82.289,19.779C82.401,19.468 82.514,19.158 82.627,18.847Z" style="fill:rgb(216,225,224);fill-rule:nonzero;"/>
            <path d="M89.259,18.306C89.439,18.591 89.618,18.877 89.797,19.163C90.14,19.199 90.482,19.236 90.824,19.276C90.6,19.508 90.377,19.741 90.154,19.974C90.241,20.293 90.329,20.611 90.415,20.929C90.101,20.787 89.786,20.645 89.472,20.506C89.186,20.668 88.9,20.832 88.616,20.998C88.641,20.675 88.666,20.353 88.692,20.03C88.426,19.815 88.159,19.601 87.892,19.388C88.224,19.323 88.557,19.259 88.89,19.198C89.013,18.9 89.136,18.603 89.259,18.306Z" style="fill:rgb(216,225,224);fill-rule:nonzero;"/>
            <path d="M95.94,18.288C96.112,18.584 96.283,18.88 96.454,19.176C96.796,19.234 97.138,19.294 97.48,19.354C97.249,19.571 97.019,19.789 96.789,20.007C96.867,20.329 96.946,20.652 97.024,20.974C96.713,20.812 96.402,20.651 96.09,20.491C95.799,20.633 95.508,20.776 95.218,20.921C95.253,20.602 95.287,20.283 95.322,19.964C95.061,19.732 94.8,19.5 94.538,19.269C94.874,19.228 95.209,19.188 95.545,19.15C95.676,18.862 95.808,18.575 95.94,18.288Z" style="fill:rgb(216,225,224);fill-rule:nonzero;"/>
            <path d="M102.62,18.64C102.783,18.943 102.946,19.246 103.108,19.549C103.447,19.621 103.787,19.694 104.126,19.768C103.889,19.976 103.654,20.184 103.418,20.392C103.487,20.718 103.556,21.043 103.625,21.368C103.32,21.193 103.014,21.019 102.707,20.845C102.413,20.974 102.119,21.104 101.825,21.235C101.869,20.918 101.912,20.601 101.956,20.285C101.702,20.041 101.448,19.797 101.193,19.554C101.529,19.529 101.865,19.505 102.201,19.483C102.34,19.201 102.48,18.921 102.62,18.64Z" style="fill:rgb(216,225,224);fill-rule:nonzero;"/>
            <path d="M73.324,23.361C73.514,23.605 73.704,23.849 73.894,24.094C74.22,24.041 74.546,23.99 74.872,23.943C74.678,24.237 74.484,24.532 74.291,24.829C74.397,25.131 74.503,25.434 74.608,25.736C74.301,25.672 73.994,25.611 73.688,25.553C73.431,25.797 73.175,26.043 72.921,26.291C72.921,25.954 72.92,25.616 72.92,25.279C72.654,25.132 72.389,24.986 72.123,24.843C72.429,24.682 72.736,24.526 73.044,24.372C73.137,24.035 73.23,23.697 73.324,23.361Z" style="fill:rgb(216,225,224);fill-rule:nonzero;"/>
            <path d="M79.683,21.751C79.87,22.014 80.056,22.278 80.242,22.542C80.576,22.53 80.911,22.52 81.245,22.514C81.038,22.778 80.831,23.044 80.625,23.312C80.723,23.622 80.822,23.931 80.92,24.241C80.609,24.141 80.297,24.042 79.986,23.946C79.716,24.152 79.447,24.36 79.179,24.57C79.189,24.24 79.199,23.909 79.21,23.579C78.943,23.4 78.675,23.223 78.408,23.048C78.726,22.931 79.045,22.817 79.365,22.707C79.47,22.388 79.576,22.069 79.683,21.751Z" style="fill:rgb(216,225,224);fill-rule:nonzero;"/>
            <path d="M86.198,20.893C86.379,21.172 86.561,21.452 86.741,21.731C87.079,21.753 87.418,21.777 87.756,21.803C87.538,22.045 87.322,22.287 87.105,22.531C87.196,22.846 87.286,23.162 87.377,23.478C87.065,23.347 86.752,23.219 86.44,23.092C86.161,23.267 85.882,23.444 85.604,23.623C85.624,23.298 85.644,22.973 85.665,22.648C85.399,22.443 85.133,22.24 84.867,22.038C85.194,21.958 85.521,21.88 85.848,21.804C85.964,21.5 86.081,21.196 86.198,20.893Z" style="fill:rgb(216,225,224);fill-rule:nonzero;"/>
            <path d="M92.794,20.636C92.968,20.927 93.142,21.219 93.316,21.51C93.655,21.558 93.994,21.608 94.333,21.659C94.107,21.883 93.883,22.107 93.658,22.332C93.74,22.653 93.822,22.973 93.904,23.294C93.594,23.14 93.284,22.988 92.974,22.837C92.688,22.989 92.403,23.141 92.118,23.296C92.148,22.975 92.178,22.654 92.207,22.334C91.946,22.109 91.685,21.885 91.423,21.663C91.753,21.61 92.085,21.56 92.416,21.511C92.542,21.219 92.668,20.927 92.794,20.636Z" style="fill:rgb(216,225,224);fill-rule:nonzero;"/>
            <path d="M99.412,20.825C99.577,21.125 99.743,21.425 99.908,21.726C100.246,21.792 100.583,21.859 100.92,21.928C100.689,22.139 100.458,22.351 100.228,22.564C100.301,22.888 100.374,23.212 100.446,23.536C100.141,23.366 99.835,23.197 99.529,23.029C99.239,23.164 98.95,23.3 98.661,23.436C98.699,23.119 98.738,22.801 98.777,22.483C98.522,22.244 98.267,22.006 98.011,21.768C98.343,21.736 98.676,21.706 99.009,21.676C99.143,21.392 99.277,21.109 99.412,20.825Z" style="fill:rgb(216,225,224);fill-rule:nonzero;"/>
            <path d="M106.009,21.307C106.166,21.612 106.323,21.918 106.479,22.223C106.813,22.3 107.147,22.377 107.48,22.455C107.244,22.66 107.008,22.865 106.773,23.071C106.837,23.397 106.9,23.723 106.963,24.049C106.664,23.87 106.365,23.692 106.065,23.514C105.772,23.639 105.48,23.765 105.188,23.891C105.235,23.575 105.283,23.259 105.33,22.943C105.083,22.695 104.835,22.447 104.587,22.2C104.919,22.181 105.252,22.162 105.584,22.144C105.725,21.865 105.867,21.586 106.009,21.307Z" style="fill:rgb(216,225,224);fill-rule:nonzero;"/>
            <path d="M76.73,24.807C76.918,25.061 77.105,25.315 77.291,25.57C77.618,25.537 77.945,25.508 78.273,25.482C78.074,25.76 77.876,26.041 77.678,26.323C77.78,26.629 77.881,26.935 77.983,27.241C77.676,27.159 77.369,27.079 77.063,27.001C76.802,27.225 76.542,27.452 76.283,27.681C76.288,27.347 76.293,27.013 76.298,26.679C76.033,26.516 75.769,26.354 75.504,26.195C75.814,26.057 76.124,25.922 76.435,25.79C76.533,25.462 76.632,25.134 76.73,24.807Z" style="fill:rgb(216,225,224);fill-rule:nonzero;"/>
            <path d="M83.111,23.583C83.294,23.855 83.476,24.126 83.658,24.399C83.991,24.404 84.325,24.412 84.658,24.422C84.448,24.675 84.238,24.929 84.028,25.184C84.123,25.497 84.217,25.809 84.31,26.122C84.001,26.006 83.692,25.892 83.383,25.78C83.111,25.97 82.839,26.162 82.569,26.356C82.584,26.028 82.598,25.701 82.613,25.373C82.349,25.181 82.085,24.991 81.82,24.802C82.14,24.704 82.46,24.608 82.78,24.516C82.89,24.204 83,23.894 83.111,23.583Z" style="fill:rgb(216,225,224);fill-rule:nonzero;"/>
            <path d="M89.608,23.038C89.785,23.324 89.961,23.609 90.136,23.895C90.472,23.931 90.808,23.968 91.143,24.008C90.924,24.24 90.705,24.473 90.487,24.706C90.573,25.025 90.659,25.343 90.744,25.661C90.436,25.519 90.127,25.378 89.819,25.238C89.539,25.401 89.259,25.565 88.981,25.731C89.005,25.408 89.03,25.085 89.054,24.763C88.793,24.548 88.532,24.334 88.27,24.121C88.596,24.055 88.921,23.992 89.248,23.93C89.368,23.633 89.488,23.335 89.608,23.038Z" style="fill:rgb(216,225,224);fill-rule:nonzero;"/>
            <path d="M96.155,23.019C96.324,23.315 96.492,23.611 96.66,23.908C96.995,23.966 97.33,24.025 97.665,24.086C97.439,24.302 97.213,24.52 96.988,24.738C97.065,25.061 97.142,25.383 97.219,25.706C96.914,25.543 96.609,25.382 96.304,25.222C96.019,25.364 95.734,25.508 95.45,25.652C95.483,25.333 95.517,25.014 95.551,24.695C95.295,24.463 95.039,24.231 94.782,24C95.111,23.959 95.44,23.919 95.769,23.881C95.897,23.594 96.026,23.306 96.155,23.019Z" style="fill:rgb(216,225,224);fill-rule:nonzero;"/>
            <path d="M102.701,23.372C102.861,23.675 103.021,23.978 103.18,24.282C103.513,24.354 103.845,24.427 104.177,24.501C103.946,24.709 103.715,24.917 103.484,25.125C103.552,25.451 103.62,25.776 103.687,26.101C103.388,25.926 103.088,25.752 102.788,25.578C102.499,25.707 102.211,25.837 101.924,25.967C101.966,25.65 102.009,25.334 102.051,25.017C101.803,24.773 101.553,24.529 101.304,24.286C101.633,24.261 101.962,24.238 102.291,24.215C102.428,23.934 102.564,23.653 102.701,23.372Z" style="fill:rgb(216,225,224);fill-rule:nonzero;"/>
            <path d="M74.004,28.107C74.191,28.35 74.378,28.595 74.564,28.84C74.883,28.785 75.202,28.735 75.522,28.687C75.332,28.981 75.142,29.277 74.954,29.574C75.058,29.876 75.162,30.178 75.266,30.481C74.965,30.417 74.665,30.357 74.364,30.299C74.113,30.543 73.864,30.789 73.615,31.038C73.614,30.701 73.613,30.363 73.612,30.026C73.352,29.879 73.091,29.734 72.831,29.591C73.13,29.43 73.43,29.273 73.732,29.119C73.822,28.781 73.913,28.443 74.004,28.107Z" style="fill:rgb(216,225,224);fill-rule:nonzero;"/>
            <path d="M80.23,26.49C80.413,26.752 80.597,27.016 80.779,27.28C81.106,27.268 81.434,27.258 81.762,27.251C81.559,27.516 81.356,27.782 81.155,28.05C81.252,28.36 81.349,28.669 81.446,28.979C81.141,28.879 80.835,28.781 80.53,28.685C80.266,28.891 80.003,29.099 79.741,29.31C79.75,28.979 79.76,28.648 79.769,28.318C79.507,28.14 79.245,27.963 78.983,27.788C79.295,27.671 79.607,27.557 79.92,27.446C80.023,27.126 80.126,26.808 80.23,26.49Z" style="fill:rgb(216,225,224);fill-rule:nonzero;"/>
            <path d="M86.612,25.627C86.79,25.906 86.968,26.185 87.145,26.465C87.476,26.486 87.808,26.51 88.139,26.536C87.926,26.778 87.714,27.02 87.502,27.264C87.592,27.58 87.681,27.896 87.77,28.211C87.464,28.081 87.158,27.952 86.851,27.826C86.578,28.001 86.305,28.178 86.033,28.357C86.052,28.032 86.072,27.707 86.091,27.382C85.831,27.178 85.57,26.975 85.309,26.773C85.629,26.692 85.949,26.614 86.27,26.538C86.383,26.234 86.497,25.93 86.612,25.627Z" style="fill:rgb(216,225,224);fill-rule:nonzero;"/>
            <path d="M93.074,25.367C93.245,25.659 93.416,25.95 93.586,26.242C93.918,26.29 94.251,26.339 94.583,26.39C94.362,26.614 94.142,26.838 93.922,27.063C94.003,27.384 94.084,27.705 94.164,28.025C93.861,27.872 93.557,27.72 93.252,27.569C92.973,27.72 92.693,27.873 92.414,28.027C92.443,27.706 92.472,27.386 92.501,27.065C92.245,26.841 91.988,26.617 91.731,26.394C92.056,26.342 92.38,26.292 92.705,26.243C92.827,25.951 92.951,25.659 93.074,25.367Z" style="fill:rgb(216,225,224);fill-rule:nonzero;"/>
            <path d="M99.558,25.557C99.721,25.857 99.884,26.157 100.046,26.457C100.377,26.524 100.707,26.591 101.037,26.659C100.811,26.871 100.585,27.083 100.359,27.295C100.431,27.619 100.502,27.943 100.574,28.268C100.275,28.098 99.975,27.929 99.675,27.761C99.391,27.896 99.107,28.031 98.824,28.168C98.862,27.85 98.9,27.532 98.938,27.215C98.688,26.975 98.437,26.737 98.187,26.499C98.512,26.467 98.838,26.437 99.164,26.408C99.295,26.124 99.427,25.84 99.558,25.557Z" style="fill:rgb(216,225,224);fill-rule:nonzero;"/>
            <path d="M106.023,26.041C106.177,26.347 106.33,26.652 106.483,26.958C106.811,27.034 107.138,27.112 107.465,27.19C107.233,27.395 107.002,27.6 106.772,27.805C106.834,28.131 106.896,28.458 106.958,28.784C106.665,28.605 106.372,28.426 106.078,28.248C105.791,28.373 105.505,28.499 105.219,28.625C105.265,28.309 105.312,27.993 105.358,27.676C105.116,27.428 104.873,27.181 104.63,26.933C104.955,26.914 105.281,26.896 105.607,26.878C105.745,26.599 105.884,26.32 106.023,26.041Z" style="fill:rgb(216,225,224);fill-rule:nonzero;"/>
            <path d="M77.343,29.549C77.527,29.803 77.71,30.057 77.894,30.312C78.214,30.279 78.534,30.249 78.855,30.222C78.66,30.501 78.467,30.782 78.273,31.064C78.374,31.37 78.474,31.676 78.573,31.982C78.273,31.9 77.972,31.82 77.672,31.743C77.417,31.968 77.163,32.195 76.91,32.424C76.914,32.09 76.918,31.756 76.922,31.422C76.663,31.259 76.404,31.098 76.144,30.938C76.447,30.8 76.751,30.665 77.055,30.533C77.151,30.204 77.247,29.877 77.343,29.549Z" style="fill:rgb(216,225,224);fill-rule:nonzero;"/>
            <path d="M83.591,28.319C83.77,28.59 83.949,28.862 84.128,29.134C84.454,29.139 84.781,29.147 85.107,29.157C84.901,29.41 84.696,29.664 84.492,29.919C84.584,30.232 84.677,30.545 84.769,30.858C84.466,30.742 84.163,30.628 83.86,30.516C83.594,30.706 83.328,30.898 83.063,31.093C83.077,30.765 83.092,30.437 83.106,30.11C82.847,29.918 82.588,29.728 82.328,29.539C82.641,29.441 82.954,29.345 83.268,29.252C83.375,28.941 83.483,28.63 83.591,28.319Z" style="fill:rgb(216,225,224);fill-rule:nonzero;"/>
            <path d="M89.955,27.771C90.128,28.056 90.301,28.341 90.473,28.627C90.802,28.663 91.131,28.7 91.46,28.74C91.245,28.972 91.031,29.205 90.818,29.438C90.902,29.757 90.986,30.075 91.07,30.393C90.768,30.251 90.466,30.11 90.163,29.97C89.889,30.133 89.616,30.297 89.343,30.463C89.367,30.141 89.39,29.818 89.414,29.495C89.158,29.28 88.902,29.067 88.645,28.854C88.964,28.788 89.283,28.724 89.603,28.663C89.72,28.365 89.837,28.068 89.955,27.771Z" style="fill:rgb(216,225,224);fill-rule:nonzero;"/>
            <path d="M96.369,27.75C96.535,28.046 96.7,28.342 96.864,28.639C97.193,28.697 97.521,28.756 97.849,28.817C97.628,29.034 97.407,29.251 97.186,29.469C97.262,29.792 97.337,30.114 97.413,30.437C97.114,30.274 96.815,30.113 96.516,29.953C96.237,30.095 95.958,30.239 95.68,30.383C95.712,30.064 95.745,29.745 95.778,29.426C95.528,29.194 95.276,28.962 95.025,28.732C95.347,28.69 95.669,28.651 95.991,28.612C96.117,28.325 96.243,28.037 96.369,27.75Z" style="fill:rgb(216,225,224);fill-rule:nonzero;"/>
            <path d="M102.783,28.105C102.939,28.408 103.096,28.711 103.252,29.014C103.578,29.087 103.903,29.16 104.229,29.235C104.002,29.442 103.776,29.65 103.55,29.858C103.617,30.183 103.683,30.509 103.749,30.834C103.456,30.659 103.162,30.484 102.868,30.31C102.586,30.439 102.303,30.569 102.021,30.699C102.063,30.383 102.105,30.066 102.147,29.749C101.903,29.505 101.658,29.261 101.414,29.018C101.736,28.993 102.059,28.97 102.381,28.947C102.515,28.666 102.649,28.386 102.783,28.105Z" style="fill:rgb(216,225,224);fill-rule:nonzero;"/>
            <path d="M74.679,32.853C74.862,33.096 75.045,33.34 75.228,33.585C75.54,33.53 75.853,33.479 76.166,33.431C75.98,33.725 75.795,34.021 75.611,34.319C75.714,34.621 75.817,34.923 75.919,35.225C75.624,35.163 75.33,35.103 75.036,35.045C74.79,35.289 74.546,35.536 74.303,35.786C74.302,35.448 74.3,35.11 74.299,34.773C74.043,34.626 73.788,34.481 73.533,34.339C73.826,34.177 74.119,34.02 74.414,33.865C74.502,33.527 74.59,33.19 74.679,32.853Z" style="fill:rgb(216,225,224);fill-rule:nonzero;"/>
            <path d="M80.773,31.228C80.953,31.491 81.133,31.754 81.312,32.018C81.633,32.005 81.953,31.996 82.274,31.988C82.076,32.253 81.878,32.52 81.681,32.788C81.777,33.098 81.872,33.407 81.967,33.717C81.668,33.617 81.369,33.519 81.07,33.424C80.812,33.63 80.555,33.838 80.298,34.049C80.307,33.719 80.316,33.388 80.325,33.057C80.068,32.879 79.811,32.703 79.554,32.528C79.859,32.41 80.164,32.296 80.471,32.185C80.571,31.865 80.672,31.547 80.773,31.228Z" style="fill:rgb(216,225,224);fill-rule:nonzero;"/>
            <path d="M87.023,30.361C87.197,30.64 87.372,30.919 87.546,31.198C87.87,31.22 88.195,31.243 88.52,31.269C88.311,31.511 88.104,31.754 87.897,31.997C87.984,32.313 88.072,32.629 88.159,32.945C87.86,32.814 87.56,32.686 87.26,32.559C86.992,32.735 86.725,32.912 86.459,33.091C86.477,32.766 86.496,32.441 86.515,32.116C86.26,31.912 86.004,31.709 85.748,31.508C86.061,31.427 86.375,31.348 86.689,31.272C86.8,30.968 86.911,30.664 87.023,30.361Z" style="fill:rgb(216,225,224);fill-rule:nonzero;"/>
            <path d="M93.353,30.099C93.52,30.39 93.688,30.681 93.855,30.973C94.18,31.021 94.506,31.07 94.831,31.121C94.615,31.345 94.4,31.569 94.185,31.795C94.264,32.115 94.343,32.436 94.422,32.757C94.125,32.603 93.827,32.451 93.529,32.3C93.255,32.451 92.981,32.604 92.708,32.759C92.736,32.438 92.764,32.117 92.792,31.797C92.541,31.572 92.29,31.349 92.038,31.126C92.355,31.074 92.673,31.023 92.991,30.974C93.111,30.682 93.232,30.39 93.353,30.099Z" style="fill:rgb(216,225,224);fill-rule:nonzero;"/>
            <path d="M99.705,30.288C99.864,30.588 100.024,30.888 100.182,31.189C100.506,31.255 100.83,31.323 101.154,31.391C100.932,31.603 100.71,31.814 100.489,32.027C100.56,32.351 100.63,32.675 100.7,32.999C100.407,32.829 100.114,32.66 99.82,32.492C99.542,32.627 99.264,32.762 98.986,32.899C99.023,32.581 99.06,32.264 99.097,31.946C98.852,31.707 98.607,31.468 98.361,31.23C98.68,31.199 98.999,31.168 99.319,31.139C99.447,30.855 99.576,30.572 99.705,30.288Z" style="fill:rgb(216,225,224);fill-rule:nonzero;"/>
            <path d="M106.037,30.775C106.188,31.081 106.338,31.386 106.488,31.692C106.809,31.769 107.129,31.847 107.45,31.925C107.223,32.129 106.997,32.334 106.771,32.54C106.832,32.866 106.893,33.192 106.954,33.518C106.667,33.339 106.379,33.161 106.091,32.982C105.81,33.107 105.53,33.232 105.25,33.358C105.295,33.042 105.341,32.726 105.386,32.41C105.149,32.162 104.911,31.914 104.673,31.666C104.992,31.648 105.31,31.63 105.629,31.612C105.765,31.333 105.901,31.054 106.037,30.775Z" style="fill:rgb(216,225,224);fill-rule:nonzero;"/>
            <path d="M77.951,34.291C78.131,34.545 78.311,34.799 78.491,35.053C78.804,35.02 79.118,34.99 79.432,34.963C79.242,35.242 79.053,35.523 78.864,35.805C78.963,36.111 79.061,36.417 79.159,36.723C78.865,36.641 78.571,36.562 78.277,36.485C78.028,36.71 77.779,36.937 77.532,37.167C77.535,36.833 77.538,36.499 77.542,36.165C77.288,36.002 77.034,35.841 76.78,35.682C77.076,35.543 77.373,35.408 77.671,35.275C77.764,34.947 77.857,34.619 77.951,34.291Z" style="fill:rgb(216,225,224);fill-rule:nonzero;"/>
            <path d="M84.067,33.055C84.243,33.326 84.419,33.598 84.594,33.87C84.914,33.875 85.233,33.882 85.553,33.892C85.352,34.145 85.151,34.399 84.951,34.655C85.042,34.967 85.133,35.28 85.224,35.593C84.927,35.477 84.63,35.364 84.333,35.252C84.073,35.442 83.813,35.635 83.554,35.829C83.568,35.501 83.581,35.174 83.595,34.846C83.341,34.655 83.086,34.464 82.832,34.276C83.138,34.177 83.445,34.081 83.752,33.988C83.857,33.677 83.962,33.366 84.067,33.055Z" style="fill:rgb(216,225,224);fill-rule:nonzero;"/>
            <path d="M90.299,32.503C90.469,32.788 90.639,33.074 90.808,33.36C91.13,33.395 91.452,33.432 91.774,33.471C91.564,33.703 91.355,33.936 91.146,34.171C91.229,34.489 91.311,34.807 91.394,35.125C91.098,34.983 90.802,34.842 90.506,34.703C90.237,34.865 89.97,35.03 89.703,35.196C89.725,34.873 89.748,34.551 89.771,34.228C89.521,34.013 89.269,33.799 89.018,33.587C89.33,33.521 89.642,33.457 89.955,33.395C90.07,33.097 90.184,32.8 90.299,32.503Z" style="fill:rgb(216,225,224);fill-rule:nonzero;"/>
            <path d="M96.582,32.481C96.744,32.777 96.906,33.073 97.067,33.37C97.389,33.428 97.71,33.487 98.032,33.548C97.815,33.765 97.599,33.982 97.383,34.2C97.457,34.523 97.531,34.845 97.605,35.168C97.313,35.005 97.02,34.844 96.727,34.684C96.454,34.826 96.181,34.97 95.908,35.114C95.94,34.795 95.972,34.476 96.004,34.157C95.758,33.925 95.512,33.693 95.266,33.463C95.581,33.421 95.896,33.382 96.212,33.343C96.335,33.056 96.458,32.769 96.582,32.481Z" style="fill:rgb(216,225,224);fill-rule:nonzero;"/>
            <path d="M102.864,32.837C103.017,33.14 103.171,33.444 103.323,33.747C103.643,33.82 103.962,33.893 104.28,33.968C104.058,34.175 103.837,34.383 103.616,34.591C103.681,34.916 103.746,35.241 103.811,35.567C103.524,35.391 103.236,35.217 102.948,35.043C102.671,35.171 102.395,35.301 102.119,35.431C102.16,35.115 102.2,34.798 102.241,34.481C102.002,34.237 101.763,33.993 101.523,33.75C101.839,33.725 102.155,33.702 102.471,33.68C102.601,33.399 102.732,33.118 102.864,32.837Z" style="fill:rgb(216,225,224);fill-rule:nonzero;"/>
            <path d="M75.348,37.599C75.528,37.842 75.708,38.086 75.888,38.331C76.193,38.275 76.499,38.224 76.805,38.175C76.624,38.47 76.443,38.766 76.264,39.064C76.365,39.366 76.466,39.668 76.566,39.97C76.278,39.908 75.989,39.848 75.701,39.791C75.462,40.036 75.223,40.283 74.986,40.533C74.984,40.195 74.982,39.857 74.98,39.519C74.729,39.373 74.479,39.229 74.229,39.087C74.515,38.925 74.803,38.767 75.091,38.612C75.176,38.274 75.262,37.936 75.348,37.599Z" style="fill:rgb(216,225,224);fill-rule:nonzero;"/>
            <path d="M81.312,35.967C81.488,36.23 81.665,36.493 81.841,36.757C82.155,36.743 82.469,36.733 82.783,36.726C82.589,36.991 82.396,37.258 82.203,37.526C82.297,37.835 82.391,38.145 82.485,38.455C82.192,38.355 81.899,38.257 81.606,38.162C81.354,38.369 81.102,38.577 80.851,38.789C80.859,38.458 80.867,38.127 80.876,37.797C80.624,37.619 80.372,37.442 80.12,37.268C80.418,37.15 80.718,37.036 81.017,36.924C81.115,36.604 81.213,36.285 81.312,35.967Z" style="fill:rgb(216,225,224);fill-rule:nonzero;"/>
            <path d="M87.43,35.095C87.602,35.373 87.773,35.652 87.943,35.932C88.261,35.953 88.579,35.977 88.897,36.002C88.694,36.244 88.49,36.487 88.288,36.731C88.374,37.046 88.46,37.362 88.546,37.678C88.253,37.548 87.959,37.419 87.665,37.293C87.403,37.469 87.142,37.646 86.881,37.825C86.899,37.5 86.917,37.175 86.935,36.85C86.685,36.646 86.434,36.443 86.184,36.242C86.49,36.161 86.797,36.082 87.104,36.006C87.212,35.702 87.321,35.398 87.43,35.095Z" style="fill:rgb(216,225,224);fill-rule:nonzero;"/>
            <path d="M93.629,34.83C93.793,35.121 93.958,35.412 94.121,35.704C94.44,35.752 94.759,35.801 95.077,35.852C94.866,36.076 94.655,36.301 94.445,36.526C94.523,36.846 94.601,37.167 94.678,37.488C94.387,37.334 94.095,37.182 93.803,37.031C93.535,37.183 93.267,37.336 93,37.49C93.027,37.169 93.054,36.849 93.082,36.528C92.836,36.304 92.589,36.08 92.342,35.858C92.653,35.805 92.964,35.755 93.276,35.706C93.393,35.413 93.511,35.122 93.629,34.83Z" style="fill:rgb(216,225,224);fill-rule:nonzero;"/>
            <path d="M99.85,35.02C100.007,35.32 100.163,35.62 100.318,35.92C100.635,35.987 100.952,36.054 101.269,36.123C101.052,36.334 100.835,36.546 100.619,36.758C100.688,37.082 100.757,37.407 100.826,37.731C100.539,37.561 100.251,37.392 99.963,37.224C99.691,37.358 99.419,37.494 99.148,37.63C99.184,37.312 99.219,36.995 99.256,36.677C99.016,36.438 98.775,36.199 98.535,35.962C98.847,35.93 99.159,35.899 99.472,35.87C99.598,35.587 99.724,35.303 99.85,35.02Z" style="fill:rgb(216,225,224);fill-rule:nonzero;"/>
            <path d="M106.052,35.509C106.199,35.815 106.346,36.12 106.493,36.426C106.807,36.503 107.121,36.581 107.435,36.659C107.213,36.864 106.991,37.069 106.77,37.274C106.83,37.6 106.89,37.927 106.949,38.253C106.668,38.073 106.387,37.895 106.105,37.716C105.83,37.841 105.555,37.966 105.281,38.091C105.325,37.775 105.37,37.459 105.414,37.144C105.182,36.895 104.949,36.647 104.715,36.399C105.028,36.381 105.34,36.363 105.652,36.346C105.785,36.067 105.918,35.788 106.052,35.509Z" style="fill:rgb(216,225,224);fill-rule:nonzero;"/>
            <path d="M103.1,56.693C100.364,56.44 97.632,56.271 94.912,56.271C97.633,56.271 100.363,56.44 103.1,56.693ZM94.906,56.271L94.909,56.271L94.906,56.271ZM102.957,53.222C100.2,52.974 97.448,52.809 94.706,52.809C97.448,52.809 100.199,52.974 102.957,53.222ZM94.699,52.809L94.703,52.809L94.699,52.809ZM102.772,49.749C100.007,49.507 97.247,49.347 94.498,49.347C97.248,49.347 100.007,49.507 102.772,49.749ZM94.491,49.347L94.495,49.347L94.491,49.347ZM102.545,46.272C99.785,46.038 97.033,45.884 94.289,45.884C97.033,45.884 99.785,46.038 102.545,46.272ZM94.282,45.884L94.285,45.884L94.282,45.884ZM102.269,42.792C99.531,42.568 96.8,42.422 94.078,42.422C96.8,42.422 99.531,42.568 102.269,42.792ZM94.071,42.422L94.075,42.422L94.071,42.422Z" style="fill:rgb(174,193,190);fill-rule:nonzero;"/>
            <path d="M83.692,39.752C83.693,39.75 83.693,39.748 83.693,39.746C85.572,39.431 87.465,39.223 89.368,39.099C87.471,39.222 85.579,39.432 83.692,39.752Z" style="fill:rgb(183,0,0);fill-rule:nonzero;"/>
            <path d="M101.939,39.308C99.241,39.097 96.549,38.96 93.866,38.96C96.55,38.96 99.24,39.097 101.939,39.308ZM93.859,38.96L93.863,38.96L93.859,38.96Z" style="fill:rgb(174,193,190);fill-rule:nonzero;"/>
            <path d="M101.939,39.308C99.24,39.097 96.55,38.96 93.866,38.96L93.859,38.96C92.416,38.96 90.975,38.999 89.537,39.089C91.019,38.997 92.508,38.956 94.001,38.956C96.636,38.956 99.285,39.083 101.936,39.281C101.937,39.291 101.938,39.298 101.939,39.308ZM89.375,39.099C89.386,39.098 89.394,39.098 89.405,39.097C89.395,39.098 89.385,39.098 89.375,39.099ZM89.418,39.096C89.427,39.096 89.436,39.095 89.445,39.094C89.437,39.095 89.427,39.096 89.418,39.096ZM89.459,39.094C89.469,39.093 89.478,39.092 89.488,39.092C89.478,39.092 89.469,39.093 89.459,39.094ZM89.497,39.091C89.508,39.091 89.518,39.09 89.529,39.089C89.519,39.09 89.507,39.091 89.497,39.091Z" style="fill:rgb(183,0,0);fill-rule:nonzero;"/>
            <path d="M83.209,43.372C83.356,42.18 83.517,40.968 83.692,39.752C85.579,39.432 87.471,39.222 89.368,39.099L89.375,39.099C89.385,39.098 89.395,39.098 89.405,39.097C89.409,39.097 89.414,39.096 89.418,39.096C89.427,39.096 89.437,39.095 89.445,39.094L89.459,39.094C89.469,39.093 89.478,39.092 89.488,39.092C89.491,39.092 89.494,39.091 89.497,39.091C89.507,39.091 89.519,39.09 89.529,39.089L89.537,39.089C90.975,38.999 92.416,38.96 93.859,38.96L93.866,38.96C96.549,38.96 99.241,39.097 101.939,39.308C102.06,40.479 102.17,41.645 102.269,42.792C99.531,42.568 96.8,42.422 94.078,42.422L94.071,42.422C90.431,42.422 86.81,42.683 83.209,43.372Z" style="fill:rgb(233,240,238);fill-rule:nonzero;"/>
            <path d="M82.79,47.001C82.917,45.82 83.055,44.607 83.209,43.372C86.81,42.683 90.431,42.422 94.071,42.422L94.078,42.422C96.8,42.422 99.531,42.568 102.269,42.792C102.372,43.976 102.463,45.141 102.545,46.272C99.785,46.038 97.033,45.884 94.289,45.884L94.282,45.884C90.429,45.884 86.598,46.188 82.79,47.001Z" style="fill:rgb(183,0,0);fill-rule:nonzero;"/>
            <path d="M82.43,50.637C82.536,49.476 82.656,48.258 82.79,47.001C86.598,46.188 90.429,45.884 94.282,45.884L94.289,45.884C97.033,45.884 99.785,46.038 102.545,46.272C102.631,47.475 102.707,48.639 102.772,49.749C100.007,49.507 97.248,49.347 94.498,49.347L94.491,49.347C90.447,49.347 86.423,49.694 82.43,50.637Z" style="fill:rgb(233,240,238);fill-rule:nonzero;"/>
            <path d="M82.123,54.281C82.21,53.154 82.312,51.931 82.43,50.637C86.423,49.694 90.447,49.347 94.491,49.347L94.498,49.347C97.247,49.347 100.007,49.507 102.772,49.749C102.846,50.983 102.906,52.149 102.957,53.222C100.199,52.974 97.448,52.809 94.706,52.809L94.699,52.809C90.48,52.809 86.284,53.2 82.123,54.281Z" style="fill:rgb(183,0,0);fill-rule:nonzero;"/>
            <path d="M81.866,57.93C81.932,56.887 82.016,55.656 82.123,54.281C86.284,53.2 90.48,52.809 94.699,52.809L94.706,52.809C97.448,52.809 100.2,52.974 102.957,53.222C103.019,54.531 103.065,55.703 103.1,56.693C100.363,56.44 97.633,56.271 94.912,56.271L94.906,56.271C90.529,56.271 86.179,56.707 81.866,57.93Z" style="fill:rgb(233,240,238);fill-rule:nonzero;"/>
            <path d="M81.668,61.578C81.668,61.578 81.723,60.204 81.866,57.93C86.179,56.707 90.529,56.271 94.906,56.271L94.912,56.271C97.632,56.271 100.364,56.44 103.1,56.693C103.175,58.849 103.195,60.149 103.195,60.149C103.195,60.149 99.687,59.52 95.151,59.52C94.039,59.52 92.864,59.558 91.664,59.652C85.583,60.13 81.668,61.578 81.668,61.578Z" style="fill:rgb(183,0,0);fill-rule:nonzero;"/>
            <path d="M83.693,39.746C83.908,38.255 84.144,36.759 84.402,35.278C84.676,35.381 84.95,35.486 85.224,35.593C85.133,35.28 85.042,34.967 84.951,34.655C85.151,34.399 85.352,34.145 85.553,33.892C85.254,33.883 84.955,33.876 84.657,33.871C85.077,31.617 85.553,29.424 86.091,27.382C86.072,27.707 86.052,28.032 86.033,28.357C86.305,28.178 86.578,28.001 86.851,27.826C87.158,27.952 87.464,28.081 87.77,28.211C87.681,27.896 87.592,27.58 87.502,27.264C87.714,27.02 87.926,26.778 88.139,26.536C87.808,26.51 87.476,26.486 87.145,26.465C86.968,26.185 86.79,25.906 86.612,25.627C86.566,25.749 86.52,25.87 86.475,25.992C86.731,25.103 87,24.249 87.283,23.439C87.314,23.452 87.346,23.465 87.377,23.478C87.361,23.422 87.345,23.366 87.329,23.309C87.752,22.109 88.206,21.008 88.692,20.03C88.666,20.353 88.641,20.675 88.616,20.998C88.9,20.832 89.186,20.668 89.472,20.506C89.786,20.645 90.101,20.787 90.415,20.929C90.329,20.611 90.241,20.293 90.154,19.974C90.377,19.741 90.6,19.508 90.824,19.276C90.482,19.236 90.14,19.199 89.797,19.163C89.686,18.986 89.575,18.808 89.463,18.631C90.677,16.663 92.072,15.451 93.673,15.348C93.728,15.345 93.783,15.343 93.837,15.343C95.894,15.343 97.501,17.859 98.757,21.699C98.508,21.721 98.259,21.744 98.011,21.768C98.267,22.006 98.522,22.244 98.777,22.483C98.738,22.801 98.699,23.119 98.661,23.436C98.842,23.35 99.024,23.265 99.206,23.18C99.487,24.177 99.749,25.243 99.992,26.359C99.848,26.091 99.704,25.824 99.558,25.557C99.427,25.84 99.295,26.124 99.164,26.408C98.838,26.437 98.512,26.467 98.187,26.499C98.437,26.737 98.688,26.975 98.938,27.215C98.9,27.532 98.862,27.85 98.824,28.168C99.107,28.031 99.391,27.896 99.675,27.761C99.903,27.889 100.131,28.017 100.359,28.146C100.559,29.182 100.744,30.25 100.917,31.341C100.672,31.29 100.427,31.239 100.182,31.189C100.024,30.888 99.864,30.588 99.705,30.288C99.576,30.572 99.447,30.855 99.319,31.139C98.999,31.168 98.68,31.199 98.361,31.23C98.607,31.468 98.852,31.707 99.097,31.946C99.06,32.264 99.023,32.581 98.986,32.899C99.264,32.762 99.542,32.627 99.82,32.492C100.114,32.66 100.407,32.829 100.7,32.999C100.63,32.675 100.56,32.351 100.489,32.027C100.644,31.878 100.799,31.729 100.955,31.581C101.345,34.083 101.669,36.696 101.936,39.281C99.285,39.083 96.636,38.956 94.001,38.956C92.508,38.956 91.019,38.997 89.537,39.089L89.529,39.089C89.518,39.09 89.508,39.091 89.497,39.091C89.494,39.091 89.491,39.092 89.488,39.092C89.478,39.092 89.469,39.093 89.459,39.094L89.445,39.094C89.436,39.095 89.427,39.096 89.418,39.096C89.414,39.096 89.409,39.097 89.405,39.097C89.394,39.098 89.386,39.098 89.375,39.099L89.368,39.099C87.465,39.223 85.572,39.431 83.693,39.746ZM87.43,35.095C87.321,35.398 87.212,35.702 87.104,36.006C86.797,36.082 86.49,36.161 86.184,36.242C86.434,36.443 86.685,36.646 86.935,36.85C86.917,37.175 86.899,37.5 86.881,37.825C87.142,37.646 87.403,37.469 87.665,37.293C87.959,37.419 88.253,37.548 88.546,37.678C88.46,37.362 88.374,37.046 88.288,36.731C88.49,36.487 88.694,36.244 88.897,36.002C88.579,35.977 88.261,35.953 87.943,35.932C87.773,35.652 87.602,35.373 87.43,35.095ZM99.963,37.224C100.251,37.392 100.539,37.561 100.826,37.731C100.757,37.407 100.688,37.082 100.619,36.758C100.835,36.546 101.052,36.334 101.269,36.123C100.952,36.054 100.635,35.987 100.318,35.92C100.163,35.62 100.007,35.32 99.85,35.02C99.724,35.303 99.598,35.587 99.472,35.87C99.159,35.899 98.847,35.93 98.535,35.962C98.775,36.199 99.016,36.438 99.256,36.677C99.219,36.995 99.184,37.312 99.148,37.63C99.419,37.494 99.691,37.358 99.963,37.224ZM93.629,34.83C93.511,35.122 93.393,35.413 93.276,35.706C92.964,35.755 92.653,35.805 92.342,35.858C92.589,36.08 92.836,36.304 93.082,36.528C93.054,36.849 93.027,37.169 93,37.49C93.267,37.336 93.535,37.183 93.803,37.031C94.095,37.182 94.387,37.334 94.678,37.488C94.601,37.167 94.523,36.846 94.445,36.526C94.655,36.301 94.866,36.076 95.077,35.852C94.759,35.801 94.44,35.752 94.121,35.704C93.958,35.412 93.793,35.121 93.629,34.83ZM90.299,32.503C90.184,32.8 90.07,33.097 89.955,33.395C89.642,33.457 89.33,33.521 89.018,33.587C89.269,33.799 89.521,34.013 89.771,34.228C89.748,34.551 89.725,34.873 89.703,35.196C89.97,35.03 90.237,34.865 90.506,34.703C90.802,34.842 91.098,34.983 91.394,35.125C91.311,34.807 91.229,34.489 91.146,34.171C91.355,33.936 91.564,33.703 91.774,33.471C91.452,33.432 91.13,33.395 90.808,33.36C90.639,33.074 90.469,32.788 90.299,32.503ZM96.727,34.684C97.02,34.844 97.313,35.005 97.605,35.168C97.531,34.845 97.457,34.523 97.383,34.2C97.599,33.982 97.815,33.765 98.032,33.548C97.71,33.487 97.389,33.428 97.067,33.37C96.906,33.073 96.744,32.777 96.582,32.481C96.458,32.769 96.335,33.056 96.212,33.343C95.896,33.382 95.581,33.421 95.266,33.463C95.512,33.693 95.758,33.925 96.004,34.157C95.972,34.476 95.94,34.795 95.908,35.114C96.181,34.97 96.454,34.826 96.727,34.684ZM87.023,30.361C86.911,30.664 86.8,30.968 86.689,31.272C86.375,31.348 86.061,31.427 85.748,31.508C86.004,31.709 86.26,31.912 86.515,32.116C86.496,32.441 86.477,32.766 86.459,33.091C86.725,32.912 86.992,32.735 87.26,32.559C87.56,32.686 87.86,32.814 88.159,32.945C88.072,32.629 87.984,32.313 87.897,31.997C88.104,31.754 88.311,31.511 88.52,31.269C88.195,31.243 87.87,31.22 87.546,31.198C87.372,30.919 87.197,30.64 87.023,30.361ZM93.353,30.099C93.232,30.39 93.111,30.682 92.991,30.974C92.673,31.023 92.355,31.074 92.038,31.126C92.29,31.349 92.541,31.572 92.792,31.797C92.764,32.117 92.736,32.438 92.708,32.759C92.981,32.604 93.255,32.451 93.529,32.3C93.827,32.451 94.125,32.603 94.422,32.757C94.343,32.436 94.264,32.115 94.185,31.795C94.4,31.569 94.615,31.345 94.831,31.121C94.506,31.07 94.18,31.021 93.855,30.973C93.688,30.681 93.52,30.39 93.353,30.099ZM89.955,27.771C89.837,28.068 89.72,28.365 89.603,28.663C89.283,28.724 88.964,28.788 88.645,28.854C88.902,29.067 89.158,29.28 89.414,29.495C89.39,29.818 89.367,30.141 89.343,30.463C89.616,30.297 89.889,30.133 90.163,29.97C90.466,30.11 90.768,30.251 91.07,30.393C90.986,30.075 90.902,29.757 90.818,29.438C91.031,29.205 91.245,28.972 91.46,28.74C91.131,28.7 90.802,28.663 90.473,28.627C90.301,28.341 90.128,28.056 89.955,27.771ZM96.516,29.953C96.815,30.113 97.114,30.274 97.413,30.437C97.337,30.114 97.262,29.792 97.186,29.469C97.407,29.251 97.628,29.034 97.849,28.817C97.521,28.756 97.193,28.697 96.864,28.639C96.7,28.342 96.535,28.046 96.369,27.75C96.243,28.037 96.117,28.325 95.991,28.612C95.669,28.651 95.347,28.69 95.025,28.732C95.276,28.962 95.528,29.194 95.778,29.426C95.745,29.745 95.712,30.064 95.68,30.383C95.958,30.239 96.237,30.095 96.516,29.953ZM93.074,25.367C92.951,25.659 92.827,25.951 92.705,26.243C92.38,26.292 92.056,26.342 91.731,26.394C91.988,26.617 92.245,26.841 92.501,27.065C92.472,27.386 92.443,27.706 92.414,28.027C92.693,27.873 92.973,27.72 93.252,27.569C93.557,27.72 93.861,27.872 94.164,28.025C94.084,27.705 94.003,27.384 93.922,27.063C94.142,26.838 94.362,26.614 94.583,26.39C94.251,26.339 93.918,26.29 93.586,26.242C93.416,25.95 93.245,25.659 93.074,25.367ZM89.608,23.038C89.488,23.335 89.368,23.633 89.248,23.93C88.921,23.992 88.596,24.055 88.27,24.121C88.532,24.334 88.793,24.548 89.054,24.763C89.03,25.085 89.005,25.408 88.981,25.731C89.259,25.565 89.539,25.401 89.819,25.238C90.127,25.378 90.436,25.519 90.744,25.661C90.659,25.343 90.573,25.025 90.487,24.706C90.705,24.473 90.924,24.24 91.143,24.008C90.808,23.968 90.472,23.931 90.136,23.895C89.961,23.609 89.785,23.324 89.608,23.038ZM96.304,25.222C96.609,25.382 96.914,25.543 97.219,25.706C97.142,25.383 97.065,25.061 96.988,24.738C97.213,24.52 97.439,24.302 97.665,24.086C97.33,24.025 96.995,23.966 96.66,23.908C96.492,23.611 96.324,23.315 96.155,23.019C96.026,23.306 95.897,23.594 95.769,23.881C95.44,23.919 95.111,23.959 94.782,24C95.039,24.231 95.295,24.463 95.551,24.695C95.517,25.014 95.483,25.333 95.45,25.652C95.734,25.508 96.019,25.364 96.304,25.222ZM92.794,20.636C92.668,20.927 92.542,21.219 92.416,21.511C92.085,21.56 91.753,21.61 91.423,21.663C91.685,21.885 91.946,22.109 92.207,22.334C92.178,22.654 92.148,22.975 92.118,23.296C92.403,23.141 92.688,22.989 92.974,22.837C93.284,22.988 93.594,23.14 93.904,23.294C93.822,22.973 93.74,22.653 93.658,22.332C93.883,22.107 94.107,21.883 94.333,21.659C93.994,21.608 93.655,21.558 93.316,21.51C93.142,21.219 92.968,20.927 92.794,20.636ZM96.09,20.491C96.402,20.651 96.713,20.812 97.024,20.974C96.946,20.652 96.867,20.329 96.789,20.007C97.019,19.789 97.249,19.571 97.48,19.354C97.138,19.294 96.796,19.234 96.454,19.176C96.283,18.88 96.112,18.584 95.94,18.288C95.808,18.575 95.676,18.862 95.545,19.15C95.209,19.188 94.874,19.228 94.538,19.269C94.8,19.5 95.061,19.732 95.322,19.964C95.287,20.283 95.253,20.602 95.218,20.921C95.508,20.776 95.799,20.633 96.09,20.491ZM92.512,15.904C92.383,16.196 92.254,16.488 92.125,16.78C91.787,16.828 91.449,16.879 91.112,16.931C91.379,17.154 91.646,17.377 91.912,17.602C91.881,17.923 91.851,18.243 91.82,18.564C92.111,18.41 92.402,18.257 92.694,18.106C93.01,18.257 93.327,18.409 93.643,18.563C93.559,18.242 93.476,17.921 93.392,17.601C93.622,17.376 93.851,17.151 94.081,16.928C93.735,16.876 93.389,16.827 93.044,16.779C92.867,16.487 92.69,16.196 92.512,15.904Z" style="fill:rgb(2,0,138);fill-rule:nonzero;"/>
            <path d="M91.82,18.564C91.851,18.243 91.881,17.923 91.912,17.602C91.646,17.377 91.379,17.154 91.112,16.931C91.449,16.879 91.787,16.828 92.125,16.78C92.254,16.488 92.383,16.196 92.512,15.904C92.69,16.196 92.867,16.487 93.044,16.779C93.389,16.827 93.735,16.876 94.081,16.928C93.851,17.151 93.622,17.376 93.392,17.601C93.476,17.921 93.559,18.242 93.643,18.563C93.327,18.409 93.01,18.257 92.694,18.106C92.402,18.257 92.111,18.41 91.82,18.564Z" style="fill:rgb(222,232,231);fill-rule:nonzero;"/>
            <path d="M88.616,20.998C88.641,20.675 88.666,20.353 88.692,20.03C88.94,19.529 89.197,19.062 89.463,18.631C89.575,18.808 89.686,18.986 89.797,19.163C90.14,19.199 90.482,19.236 90.824,19.276C90.6,19.508 90.377,19.741 90.154,19.974C90.241,20.293 90.329,20.611 90.415,20.929C90.101,20.787 89.786,20.645 89.472,20.506C89.186,20.668 88.9,20.832 88.616,20.998Z" style="fill:rgb(222,232,231);fill-rule:nonzero;"/>
            <path d="M97.024,20.974C96.713,20.812 96.402,20.651 96.09,20.491C95.799,20.633 95.508,20.776 95.218,20.921C95.253,20.602 95.287,20.283 95.322,19.964C95.061,19.732 94.8,19.5 94.538,19.269C94.874,19.228 95.209,19.188 95.545,19.15C95.676,18.862 95.808,18.575 95.94,18.288C96.112,18.584 96.283,18.88 96.454,19.176C96.796,19.234 97.138,19.294 97.48,19.354C97.249,19.571 97.019,19.789 96.789,20.007C96.867,20.329 96.946,20.652 97.024,20.974Z" style="fill:rgb(222,232,231);fill-rule:nonzero;"/>
            <path d="M87.377,23.478C87.346,23.465 87.314,23.452 87.283,23.439C87.298,23.396 87.314,23.352 87.329,23.309C87.345,23.366 87.361,23.422 87.377,23.478Z" style="fill:rgb(222,232,231);fill-rule:nonzero;"/>
            <path d="M92.118,23.296C92.148,22.975 92.178,22.654 92.207,22.334C91.946,22.109 91.685,21.885 91.423,21.663C91.753,21.61 92.085,21.56 92.416,21.511C92.542,21.219 92.668,20.927 92.794,20.636C92.968,20.927 93.142,21.219 93.316,21.51C93.655,21.558 93.994,21.608 94.333,21.659C94.107,21.883 93.883,22.107 93.658,22.332C93.74,22.653 93.822,22.973 93.904,23.294C93.594,23.14 93.284,22.988 92.974,22.837C92.688,22.989 92.403,23.141 92.118,23.296Z" style="fill:rgb(222,232,231);fill-rule:nonzero;"/>
            <path d="M98.661,23.436C98.699,23.119 98.738,22.801 98.777,22.483C98.522,22.244 98.267,22.006 98.011,21.768C98.259,21.744 98.508,21.721 98.757,21.699C98.912,22.173 99.062,22.667 99.206,23.18C99.024,23.265 98.842,23.35 98.661,23.436Z" style="fill:rgb(222,232,231);fill-rule:nonzero;"/>
            <path d="M88.981,25.731C89.005,25.408 89.03,25.085 89.054,24.763C88.793,24.548 88.532,24.334 88.27,24.121C88.596,24.055 88.921,23.992 89.248,23.93C89.368,23.633 89.488,23.335 89.608,23.038C89.785,23.324 89.961,23.609 90.136,23.895C90.472,23.931 90.808,23.968 91.143,24.008C90.924,24.24 90.705,24.473 90.487,24.706C90.573,25.025 90.659,25.343 90.744,25.661C90.436,25.519 90.127,25.378 89.819,25.238C89.539,25.401 89.259,25.565 88.981,25.731Z" style="fill:rgb(222,232,231);fill-rule:nonzero;"/>
            <path d="M97.219,25.706C96.914,25.543 96.609,25.382 96.304,25.222C96.019,25.364 95.734,25.508 95.45,25.652C95.483,25.333 95.517,25.014 95.551,24.695C95.295,24.463 95.039,24.231 94.782,24C95.111,23.959 95.44,23.919 95.769,23.881C95.897,23.594 96.026,23.306 96.155,23.019C96.324,23.315 96.492,23.611 96.66,23.908C96.995,23.966 97.33,24.025 97.665,24.086C97.439,24.302 97.213,24.52 96.988,24.738C97.065,25.061 97.142,25.383 97.219,25.706Z" style="fill:rgb(222,232,231);fill-rule:nonzero;"/>
            <path d="M86.033,28.357C86.052,28.032 86.072,27.707 86.091,27.382C86.216,26.911 86.344,26.446 86.475,25.992C86.52,25.87 86.566,25.749 86.612,25.627C86.79,25.906 86.968,26.185 87.145,26.465C87.476,26.486 87.808,26.51 88.139,26.536C87.926,26.778 87.714,27.02 87.502,27.264C87.592,27.58 87.681,27.896 87.77,28.211C87.464,28.081 87.158,27.952 86.851,27.826C86.578,28.001 86.305,28.178 86.033,28.357Z" style="fill:rgb(222,232,231);fill-rule:nonzero;"/>
            <path d="M92.414,28.027C92.443,27.706 92.472,27.386 92.501,27.065C92.245,26.841 91.988,26.617 91.731,26.394C92.056,26.342 92.38,26.292 92.705,26.243C92.827,25.951 92.951,25.659 93.074,25.367C93.245,25.659 93.416,25.95 93.586,26.242C93.918,26.29 94.251,26.339 94.583,26.39C94.362,26.614 94.142,26.838 93.922,27.063C94.003,27.384 94.084,27.705 94.164,28.025C93.861,27.872 93.557,27.72 93.252,27.569C92.973,27.72 92.693,27.873 92.414,28.027Z" style="fill:rgb(222,232,231);fill-rule:nonzero;"/>
            <path d="M98.824,28.168C98.862,27.85 98.9,27.532 98.938,27.215C98.688,26.975 98.437,26.737 98.187,26.499C98.512,26.467 98.838,26.437 99.164,26.408C99.295,26.124 99.427,25.84 99.558,25.557C99.704,25.824 99.848,26.091 99.992,26.359C100.12,26.942 100.242,27.538 100.359,28.146C100.131,28.017 99.903,27.889 99.675,27.761C99.391,27.896 99.107,28.031 98.824,28.168Z" style="fill:rgb(222,232,231);fill-rule:nonzero;"/>
            <path d="M89.343,30.463C89.367,30.141 89.39,29.818 89.414,29.495C89.158,29.28 88.902,29.067 88.645,28.854C88.964,28.788 89.283,28.724 89.603,28.663C89.72,28.365 89.837,28.068 89.955,27.771C90.128,28.056 90.301,28.341 90.473,28.627C90.802,28.663 91.131,28.7 91.46,28.74C91.245,28.972 91.031,29.205 90.818,29.438C90.902,29.757 90.986,30.075 91.07,30.393C90.768,30.251 90.466,30.11 90.163,29.97C89.889,30.133 89.616,30.297 89.343,30.463Z" style="fill:rgb(222,232,231);fill-rule:nonzero;"/>
            <path d="M97.413,30.437C97.114,30.274 96.815,30.113 96.516,29.953C96.237,30.095 95.958,30.239 95.68,30.383C95.712,30.064 95.745,29.745 95.778,29.426C95.528,29.194 95.276,28.962 95.025,28.732C95.347,28.69 95.669,28.651 95.991,28.612C96.117,28.325 96.243,28.037 96.369,27.75C96.535,28.046 96.7,28.342 96.864,28.639C97.193,28.697 97.521,28.756 97.849,28.817C97.628,29.034 97.407,29.251 97.186,29.469C97.262,29.792 97.337,30.114 97.413,30.437Z" style="fill:rgb(222,232,231);fill-rule:nonzero;"/>
            <path d="M86.459,33.091C86.477,32.766 86.496,32.441 86.515,32.116C86.26,31.912 86.004,31.709 85.748,31.508C86.061,31.427 86.375,31.348 86.689,31.272C86.8,30.968 86.911,30.664 87.023,30.361C87.197,30.64 87.372,30.919 87.546,31.198C87.87,31.22 88.195,31.243 88.52,31.269C88.311,31.511 88.104,31.754 87.897,31.997C87.984,32.313 88.072,32.629 88.159,32.945C87.86,32.814 87.56,32.686 87.26,32.559C86.992,32.735 86.725,32.912 86.459,33.091Z" style="fill:rgb(222,232,231);fill-rule:nonzero;"/>
            <path d="M92.708,32.759C92.736,32.438 92.764,32.117 92.792,31.797C92.541,31.572 92.29,31.349 92.038,31.126C92.355,31.074 92.673,31.023 92.991,30.974C93.111,30.682 93.232,30.39 93.353,30.099C93.52,30.39 93.688,30.681 93.855,30.973C94.18,31.021 94.506,31.07 94.831,31.121C94.615,31.345 94.4,31.569 94.185,31.795C94.264,32.115 94.343,32.436 94.422,32.757C94.125,32.603 93.827,32.451 93.529,32.3C93.255,32.451 92.981,32.604 92.708,32.759Z" style="fill:rgb(222,232,231);fill-rule:nonzero;"/>
            <path d="M100.7,32.999C100.407,32.829 100.114,32.66 99.82,32.492C99.542,32.627 99.264,32.762 98.986,32.899C99.023,32.581 99.06,32.264 99.097,31.946C98.852,31.707 98.607,31.468 98.361,31.23C98.68,31.199 98.999,31.168 99.319,31.139C99.447,30.855 99.576,30.572 99.705,30.288C99.864,30.588 100.024,30.888 100.182,31.189C100.427,31.239 100.672,31.29 100.917,31.341C100.929,31.421 100.942,31.501 100.955,31.581C100.799,31.729 100.644,31.878 100.489,32.027C100.56,32.351 100.63,32.675 100.7,32.999Z" style="fill:rgb(222,232,231);fill-rule:nonzero;"/>
            <path d="M85.224,35.593C84.95,35.486 84.676,35.381 84.402,35.278C84.485,34.807 84.57,34.337 84.657,33.871C84.955,33.876 85.254,33.883 85.553,33.892C85.352,34.145 85.151,34.399 84.951,34.655C85.042,34.967 85.133,35.28 85.224,35.593Z" style="fill:rgb(222,232,231);fill-rule:nonzero;"/>
            <path d="M89.703,35.196C89.725,34.873 89.748,34.551 89.771,34.228C89.521,34.013 89.269,33.799 89.018,33.587C89.33,33.521 89.642,33.457 89.955,33.395C90.07,33.097 90.184,32.8 90.299,32.503C90.469,32.788 90.639,33.074 90.808,33.36C91.13,33.395 91.452,33.432 91.774,33.471C91.564,33.703 91.355,33.936 91.146,34.171C91.229,34.489 91.311,34.807 91.394,35.125C91.098,34.983 90.802,34.842 90.506,34.703C90.237,34.865 89.97,35.03 89.703,35.196Z" style="fill:rgb(222,232,231);fill-rule:nonzero;"/>
            <path d="M97.605,35.168C97.313,35.005 97.02,34.844 96.727,34.684C96.454,34.826 96.181,34.97 95.908,35.114C95.94,34.795 95.972,34.476 96.004,34.157C95.758,33.925 95.512,33.693 95.266,33.463C95.581,33.421 95.896,33.382 96.212,33.343C96.335,33.056 96.458,32.769 96.582,32.481C96.744,32.777 96.906,33.073 97.067,33.37C97.389,33.428 97.71,33.487 98.032,33.548C97.815,33.765 97.599,33.982 97.383,34.2C97.457,34.523 97.531,34.845 97.605,35.168Z" style="fill:rgb(222,232,231);fill-rule:nonzero;"/>
            <path d="M86.881,37.825C86.899,37.5 86.917,37.175 86.935,36.85C86.685,36.646 86.434,36.443 86.184,36.242C86.49,36.161 86.797,36.082 87.104,36.006C87.212,35.702 87.321,35.398 87.43,35.095C87.602,35.373 87.773,35.652 87.943,35.932C88.261,35.953 88.579,35.977 88.897,36.002C88.694,36.244 88.49,36.487 88.288,36.731C88.374,37.046 88.46,37.362 88.546,37.678C88.253,37.548 87.959,37.419 87.665,37.293C87.403,37.469 87.142,37.646 86.881,37.825Z" style="fill:rgb(222,232,231);fill-rule:nonzero;"/>
            <path d="M93,37.49C93.027,37.169 93.054,36.849 93.082,36.528C92.836,36.304 92.589,36.08 92.342,35.858C92.653,35.805 92.964,35.755 93.276,35.706C93.393,35.413 93.511,35.122 93.629,34.83C93.793,35.121 93.958,35.412 94.121,35.704C94.44,35.752 94.759,35.801 95.077,35.852C94.866,36.076 94.655,36.301 94.445,36.526C94.523,36.846 94.601,37.167 94.678,37.488C94.387,37.334 94.095,37.182 93.803,37.031C93.535,37.183 93.267,37.336 93,37.49Z" style="fill:rgb(222,232,231);fill-rule:nonzero;"/>
            <path d="M100.826,37.731C100.539,37.561 100.251,37.392 99.963,37.224C99.691,37.358 99.419,37.494 99.148,37.63C99.184,37.312 99.219,36.995 99.256,36.677C99.016,36.438 98.775,36.199 98.535,35.962C98.847,35.93 99.159,35.899 99.472,35.87C99.598,35.587 99.724,35.303 99.85,35.02C100.007,35.32 100.163,35.62 100.318,35.92C100.635,35.987 100.952,36.054 101.269,36.123C101.052,36.334 100.835,36.546 100.619,36.758C100.688,37.082 100.757,37.407 100.826,37.731Z" style="fill:rgb(222,232,231);fill-rule:nonzero;"/>
            <path d="M79.189,82.251L67.746,16.215L69.507,15.909L80.951,81.946L79.189,82.251Z" style="fill:rgb(84,21,9);fill-rule:nonzero;"/>
        </g>
    </g>
</svg>
