<?xml version="1.0" encoding="UTF-8" standalone="no"?>
<!DOCTYPE svg PUBLIC "-//W3C//DTD SVG 1.1//EN" "http://www.w3.org/Graphics/SVG/1.1/DTD/svg11.dtd">
<svg width="100%" height="100%" viewBox="0 0 3796 2000" version="1.1" xmlns="http://www.w3.org/2000/svg" xmlns:xlink="http://www.w3.org/1999/xlink" xml:space="preserve" xmlns:serif="http://www.serif.com/" style="fill-rule:evenodd;clip-rule:evenodd;stroke-linejoin:round;stroke-miterlimit:2;">
    <g>
        <path d="M0,154.2L3795.75,154.2L3795.75,0.371L3765.032,0.328L1643.067,-0.629L0,2.371L0,154.2Z" style="fill:rgb(187,19,62);fill-rule:nonzero;"/>
        <rect x="0" y="154.209" width="3795.75" height="151.831" style="fill:white;fill-rule:nonzero;"/>
        <rect x="0" y="310.794" width="3795.75" height="151.83" style="fill:rgb(187,19,62);fill-rule:nonzero;"/>
        <rect x="0" y="462.634" width="3795.75" height="151.83" style="fill:white;fill-rule:nonzero;"/>
        <rect x="0" y="619.218" width="3795.75" height="151.83" style="fill:rgb(187,19,62);fill-rule:nonzero;"/>
        <rect x="0" y="771.058" width="3795.75" height="151.83" style="fill:white;fill-rule:nonzero;"/>
        <rect x="0" y="927.643" width="3795.75" height="151.827" style="fill:rgb(187,19,62);fill-rule:nonzero;"/>
        <rect x="0" y="1079.48" width="3795.75" height="151.83" style="fill:white;fill-rule:nonzero;"/>
        <rect x="0" y="1231.32" width="3795.75" height="151.83" style="fill:rgb(187,19,62);fill-rule:nonzero;"/>
        <rect x="0" y="1383.16" width="3795.75" height="151.83" style="fill:white;fill-rule:nonzero;"/>
        <rect x="0" y="1539.75" width="3795.75" height="151.83" style="fill:rgb(187,19,62);fill-rule:nonzero;"/>
        <rect x="0" y="1691.58" width="3795.75" height="151.84" style="fill:white;fill-rule:nonzero;"/>
        <rect x="0" y="1848.17" width="3795.75" height="151.83" style="fill:rgb(187,19,62);fill-rule:nonzero;"/>
        <g transform="matrix(1,0,0,1.001857,0,0)">
            <rect x="0" y="0" width="1518.3" height="1077.1" style="fill:rgb(0,38,100);fill-rule:nonzero;"/>
        </g>
        <path d="M129.886,139.303L164.268,160.629L154.611,121.339L185.518,95.229L145.167,92.273L129.886,54.811L114.605,92.273L74.253,95.229L105.16,121.339L95.503,160.629L129.886,139.303Z" style="fill:white;fill-rule:nonzero;"/>
        <path d="M381.592,139.303L415.974,160.629L406.317,121.339L437.224,95.229L396.873,92.273L381.592,54.811L366.31,92.273L325.959,95.229L356.866,121.339L347.209,160.629L381.592,139.303Z" style="fill:white;fill-rule:nonzero;"/>
        <path d="M633.297,139.303L667.68,160.629L658.023,121.339L688.93,95.229L648.578,92.273L633.297,54.811L618.016,92.273L577.665,95.229L608.572,121.339L598.914,160.629L633.297,139.303Z" style="fill:white;fill-rule:nonzero;"/>
        <path d="M885.003,139.303L919.386,160.629L909.728,121.339L940.635,95.229L900.284,92.273L885.003,54.811L869.722,92.273L829.37,95.229L860.278,121.339L850.62,160.629L885.003,139.303Z" style="fill:white;fill-rule:nonzero;"/>
        <path d="M1136.71,139.303L1171.09,160.629L1161.43,121.339L1192.34,95.229L1151.99,92.273L1136.71,54.811L1121.43,92.273L1081.08,95.229L1111.98,121.339L1102.33,160.629L1136.71,139.303Z" style="fill:white;fill-rule:nonzero;"/>
        <path d="M1388.41,139.303L1422.8,160.629L1413.14,121.339L1444.05,95.229L1403.7,92.273L1388.41,54.811L1373.13,92.273L1332.78,95.229L1363.69,121.339L1354.03,160.629L1388.41,139.303Z" style="fill:white;fill-rule:nonzero;"/>
        <path d="M255.739,246.058L290.121,267.384L280.464,228.094L311.371,201.984L271.02,199.028L255.739,161.565L240.457,199.028L200.106,201.984L231.013,228.094L221.356,267.384L255.739,246.058Z" style="fill:white;fill-rule:nonzero;"/>
        <path d="M507.444,246.058L541.827,267.384L532.17,228.094L563.076,201.984L522.724,199.028L507.444,161.565L492.163,199.028L451.812,201.984L482.719,228.094L473.062,267.384L507.444,246.058Z" style="fill:white;fill-rule:nonzero;"/>
        <path d="M759.15,246.058L793.533,267.384L783.875,228.094L814.783,201.984L774.431,199.028L759.15,161.565L743.869,199.028L703.518,201.984L734.425,228.094L724.767,267.384L759.15,246.058Z" style="fill:white;fill-rule:nonzero;"/>
        <path d="M1010.86,246.058L1045.24,267.384L1035.579,228.094L1066.49,201.984L1026.14,199.028L1010.86,161.565L995.575,199.028L955.223,201.984L986.13,228.094L976.473,267.384L1010.86,246.058Z" style="fill:white;fill-rule:nonzero;"/>
        <path d="M1262.56,246.058L1296.94,267.384L1287.29,228.094L1318.19,201.984L1277.84,199.028L1262.56,161.565L1247.28,199.028L1206.93,201.984L1237.84,228.094L1228.18,267.384L1262.56,246.058Z" style="fill:white;fill-rule:nonzero;"/>
        <path d="M129.886,351.877L164.268,373.203L154.611,333.913L185.518,307.803L145.167,304.847L129.886,267.384L114.605,304.847L74.253,307.803L105.16,333.913L95.503,373.203L129.886,351.877Z" style="fill:white;fill-rule:nonzero;"/>
        <path d="M381.592,351.877L415.974,373.203L406.317,333.913L437.224,307.803L396.873,304.847L381.592,267.384L366.31,304.847L325.959,307.803L356.866,333.913L347.209,373.203L381.592,351.877Z" style="fill:white;fill-rule:nonzero;"/>
        <path d="M633.297,351.877L667.68,373.203L658.023,333.913L688.93,307.803L648.578,304.847L633.297,267.384L618.016,304.847L577.665,307.803L608.572,333.913L598.914,373.203L633.297,351.877Z" style="fill:white;fill-rule:nonzero;"/>
        <path d="M885.003,351.877L919.386,373.203L909.728,333.913L940.635,307.803L900.284,304.847L885.003,267.384L869.722,304.847L829.37,307.803L860.278,333.913L850.62,373.203L885.003,351.877Z" style="fill:white;fill-rule:nonzero;"/>
        <path d="M1136.71,351.877L1171.09,373.203L1161.43,333.913L1192.34,307.803L1151.99,304.847L1136.71,267.384L1121.43,304.847L1081.08,307.803L1111.98,333.913L1102.33,373.203L1136.71,351.877Z" style="fill:white;fill-rule:nonzero;"/>
        <path d="M1388.41,351.877L1422.8,373.203L1413.14,333.913L1444.05,307.803L1403.7,304.847L1388.41,267.384L1373.13,304.847L1332.78,307.803L1363.69,333.913L1354.03,373.203L1388.41,351.877Z" style="fill:white;fill-rule:nonzero;"/>
        <path d="M255.739,458.632L290.121,479.958L280.464,440.668L311.371,414.559L271.02,411.602L255.739,374.139L240.457,411.602L200.106,414.559L231.013,440.668L221.356,479.958L255.739,458.632Z" style="fill:white;fill-rule:nonzero;"/>
        <path d="M507.444,458.632L541.827,479.958L532.17,440.668L563.076,414.559L522.724,411.602L507.444,374.139L492.163,411.602L451.812,414.559L482.719,440.668L473.062,479.958L507.444,458.632Z" style="fill:white;fill-rule:nonzero;"/>
        <path d="M759.15,458.632L793.533,479.958L783.875,440.668L814.783,414.559L774.431,411.602L759.15,374.139L743.869,411.602L703.518,414.559L734.425,440.668L724.767,479.958L759.15,458.632Z" style="fill:white;fill-rule:nonzero;"/>
        <path d="M1010.86,458.632L1045.24,479.958L1035.579,440.668L1066.49,414.559L1026.14,411.602L1010.86,374.139L995.575,411.602L955.223,414.559L986.13,440.668L976.473,479.958L1010.86,458.632Z" style="fill:white;fill-rule:nonzero;"/>
        <path d="M1262.56,458.632L1296.94,479.958L1287.29,440.668L1318.19,414.559L1277.84,411.602L1262.56,374.139L1247.28,411.602L1206.93,414.559L1237.84,440.668L1228.18,479.958L1262.56,458.632Z" style="fill:white;fill-rule:nonzero;"/>
        <path d="M129.886,570.132L164.268,591.458L154.611,552.168L185.518,526.059L145.167,523.102L129.886,485.639L114.605,523.102L74.253,526.059L105.16,552.168L95.503,591.458L129.886,570.132Z" style="fill:white;fill-rule:nonzero;"/>
        <path d="M381.592,570.132L415.974,591.458L406.317,552.168L437.224,526.059L396.873,523.102L381.592,485.639L366.31,523.102L325.959,526.059L356.866,552.168L347.209,591.458L381.592,570.132Z" style="fill:white;fill-rule:nonzero;"/>
        <path d="M633.297,570.132L667.68,591.458L658.023,552.168L688.93,526.059L648.578,523.102L633.297,485.639L618.016,523.102L577.665,526.059L608.572,552.168L598.914,591.458L633.297,570.132Z" style="fill:white;fill-rule:nonzero;"/>
        <path d="M885.003,570.132L919.386,591.458L909.728,552.168L940.635,526.059L900.284,523.102L885.003,485.639L869.722,523.102L829.37,526.059L860.278,552.168L850.62,591.458L885.003,570.132Z" style="fill:white;fill-rule:nonzero;"/>
        <path d="M1136.71,570.132L1171.09,591.458L1161.43,552.168L1192.34,526.059L1151.99,523.102L1136.71,485.639L1121.43,523.102L1081.08,526.059L1111.98,552.168L1102.33,591.458L1136.71,570.132Z" style="fill:white;fill-rule:nonzero;"/>
        <path d="M1388.41,570.132L1422.8,591.458L1413.14,552.168L1444.05,526.059L1403.7,523.102L1388.41,485.639L1373.13,523.102L1332.78,526.059L1363.69,552.168L1354.03,591.458L1388.41,570.132Z" style="fill:white;fill-rule:nonzero;"/>
        <path d="M255.739,676.888L290.121,698.213L280.464,658.924L311.371,632.814L271.02,629.857L255.739,592.395L240.457,629.857L200.106,632.814L231.013,658.924L221.356,698.213L255.739,676.888Z" style="fill:white;fill-rule:nonzero;"/>
        <path d="M507.444,676.888L541.827,698.213L532.17,658.924L563.076,632.814L522.724,629.857L507.444,592.395L492.163,629.857L451.812,632.814L482.719,658.924L473.062,698.213L507.444,676.888Z" style="fill:white;fill-rule:nonzero;"/>
        <path d="M759.15,676.888L793.533,698.213L783.875,658.924L814.783,632.814L774.431,629.857L759.15,592.395L743.869,629.857L703.518,632.814L734.425,658.924L724.767,698.213L759.15,676.888Z" style="fill:white;fill-rule:nonzero;"/>
        <path d="M1010.86,676.888L1045.24,698.213L1035.579,658.924L1066.49,632.814L1026.14,629.857L1010.86,592.395L995.575,629.857L955.223,632.814L986.13,658.924L976.473,698.213L1010.86,676.888Z" style="fill:white;fill-rule:nonzero;"/>
        <path d="M1262.56,676.888L1296.94,698.213L1287.29,658.924L1318.19,632.814L1277.84,629.857L1262.56,592.395L1247.28,629.857L1206.93,632.814L1237.84,658.924L1228.18,698.213L1262.56,676.888Z" style="fill:white;fill-rule:nonzero;"/>
        <path d="M129.886,788.388L164.268,809.713L154.611,770.424L185.518,744.314L145.167,741.357L129.886,703.895L114.605,741.357L74.253,744.314L105.16,770.424L95.503,809.713L129.886,788.388Z" style="fill:white;fill-rule:nonzero;"/>
        <path d="M381.592,788.388L415.974,809.713L406.317,770.424L437.224,744.314L396.873,741.357L381.592,703.895L366.31,741.357L325.959,744.314L356.866,770.424L347.209,809.713L381.592,788.388Z" style="fill:white;fill-rule:nonzero;"/>
        <path d="M633.297,788.388L667.68,809.713L658.023,770.424L688.93,744.314L648.578,741.357L633.297,703.895L618.016,741.357L577.665,744.314L608.572,770.424L598.914,809.713L633.297,788.388Z" style="fill:white;fill-rule:nonzero;"/>
        <path d="M885.003,788.388L919.386,809.713L909.728,770.424L940.635,744.314L900.284,741.357L885.003,703.895L869.722,741.357L829.37,744.314L860.278,770.424L850.62,809.713L885.003,788.388Z" style="fill:white;fill-rule:nonzero;"/>
        <path d="M1136.71,788.388L1171.09,809.713L1161.43,770.424L1192.34,744.314L1151.99,741.357L1136.71,703.895L1121.43,741.357L1081.08,744.314L1111.98,770.424L1102.33,809.713L1136.71,788.388Z" style="fill:white;fill-rule:nonzero;"/>
        <path d="M1388.41,788.388L1422.8,809.713L1413.14,770.424L1444.05,744.314L1403.7,741.357L1388.41,703.895L1373.13,741.357L1332.78,744.314L1363.69,770.424L1354.03,809.713L1388.41,788.388Z" style="fill:white;fill-rule:nonzero;"/>
        <path d="M255.739,895.143L290.121,916.469L280.464,877.179L311.371,851.069L271.02,848.112L255.739,810.65L240.457,848.112L200.106,851.069L231.013,877.179L221.356,916.469L255.739,895.143Z" style="fill:white;fill-rule:nonzero;"/>
        <path d="M507.444,895.143L541.827,916.469L532.17,877.179L563.076,851.069L522.724,848.112L507.444,810.65L492.163,848.112L451.812,851.069L482.719,877.179L473.062,916.469L507.444,895.143Z" style="fill:white;fill-rule:nonzero;"/>
        <path d="M759.15,895.143L793.533,916.469L783.875,877.179L814.783,851.069L774.431,848.112L759.15,810.65L743.869,848.112L703.518,851.069L734.425,877.179L724.767,916.469L759.15,895.143Z" style="fill:white;fill-rule:nonzero;"/>
        <path d="M1010.86,895.143L1045.24,916.469L1035.579,877.179L1066.49,851.069L1026.14,848.112L1010.86,810.65L995.575,848.112L955.223,851.069L986.13,877.179L976.473,916.469L1010.86,895.143Z" style="fill:white;fill-rule:nonzero;"/>
        <path d="M1262.56,895.143L1296.94,916.469L1287.29,877.179L1318.19,851.069L1277.84,848.112L1262.56,810.65L1247.28,848.112L1206.93,851.069L1237.84,877.179L1228.18,916.469L1262.56,895.143Z" style="fill:white;fill-rule:nonzero;"/>
        <path d="M129.886,1000.96L164.268,1022.29L154.611,982.998L185.518,956.888L145.167,953.931L129.886,916.469L114.605,953.931L74.253,956.888L105.16,982.998L95.503,1022.29L129.886,1000.96Z" style="fill:white;fill-rule:nonzero;"/>
        <path d="M381.592,1000.96L415.974,1022.29L406.317,982.998L437.224,956.888L396.873,953.931L381.592,916.469L366.31,953.931L325.959,956.888L356.866,982.998L347.209,1022.29L381.592,1000.96Z" style="fill:white;fill-rule:nonzero;"/>
        <path d="M633.297,1000.96L667.68,1022.29L658.023,982.998L688.93,956.888L648.578,953.931L633.297,916.469L618.016,953.931L577.665,956.888L608.572,982.998L598.914,1022.29L633.297,1000.96Z" style="fill:white;fill-rule:nonzero;"/>
        <path d="M885.003,1000.96L919.386,1022.29L909.728,982.998L940.635,956.888L900.284,953.931L885.003,916.469L869.722,953.931L829.37,956.888L860.278,982.998L850.62,1022.29L885.003,1000.96Z" style="fill:white;fill-rule:nonzero;"/>
        <path d="M1136.71,1000.96L1171.09,1022.29L1161.43,982.998L1192.34,956.888L1151.99,953.931L1136.71,916.469L1121.43,953.931L1081.08,956.888L1111.98,982.998L1102.33,1022.29L1136.71,1000.96Z" style="fill:white;fill-rule:nonzero;"/>
        <path d="M1388.41,1000.96L1422.8,1022.29L1413.14,982.998L1444.05,956.888L1403.7,953.931L1388.41,916.469L1373.13,953.931L1332.78,956.888L1363.69,982.998L1354.03,1022.29L1388.41,1000.96Z" style="fill:white;fill-rule:nonzero;"/>
    </g>
</svg>
